<svg width="160" height="26" viewBox="0 0 160 26" fill="none" xmlns="http://www.w3.org/2000/svg">
  <g clip-path="url(#clip0_32_602)">
    <path d="M4.3359 -2H0V2.3359H4.3359V-2Z" fill="#F9B23E"/>
    <path fill-rule="evenodd" clip-rule="evenodd" d="M6.32125 12.8315H2.01019V4.70631H6.34112V0.479736H14.998V4.66655H10.6547V8.60489H6.32125V12.8315Z" fill="#F9B23E"/>
    <path fill-rule="evenodd" clip-rule="evenodd" d="M16.9734 2.71851H21.0359V19.1328H16.5584L12.6424 23.0488V19.2148H4.01038V15.1945H8.31894V10.9977H12.6747V7.00968H16.9435L16.9734 2.71851Z" fill="#F1592A"/>
    <path d="M41.252 19.2422C37.3906 19.5602 34.1878 19.7168 31.6434 19.7168C29.9463 19.7168 28.7015 19.3515 27.9038 18.6235C27.1087 17.893 26.7087 16.7525 26.7087 15.1995V7.58869C26.7087 5.9239 27.1187 4.71382 27.9411 3.96094C28.7636 3.20806 30.083 2.83038 31.9018 2.83038H41.2495V6.15995H32.9405C31.9018 6.15995 31.3825 6.63702 31.3825 7.5862V15.197C31.3825 15.5623 31.4993 15.8505 31.7329 16.0642C31.9664 16.2779 32.2646 16.3847 32.6274 16.3847C32.9901 16.3847 33.3902 16.3798 33.8225 16.3723C34.2549 16.3648 34.7046 16.3524 35.1718 16.3375C35.6389 16.3226 36.111 16.3052 36.5856 16.2903C37.0627 16.2754 37.6764 16.2431 38.4293 16.1959C39.1822 16.1487 40.1214 16.0915 41.247 16.0294V19.2397L41.252 19.2422ZM48.7833 7.34766V19.4782H44.2386V10.558H42.2906V7.34766H48.7833ZM44.2386 2.58936H48.7833V5.91893H44.2386V2.58936ZM60.9884 19.4782C59.3087 19.6373 57.6638 19.7168 56.0537 19.7168C54.8759 19.7168 53.9342 19.3913 53.2235 18.7428C52.5129 18.0918 52.16 17.2271 52.16 16.1512V10.0859H50.6021V6.87556H52.16L52.6794 4.02058H56.7047V6.87556H59.9498V10.0859H56.7047V15.5573C56.7047 15.7958 56.7916 15.9921 56.9631 16.1512C57.137 16.3102 57.3532 16.3897 57.6116 16.3897H60.9884V19.4832V19.4782ZM65.9231 23.7595C65.0062 23.7595 63.8806 23.68 62.5463 23.5209V20.4274H64.882C65.5405 20.4274 65.9678 20.2609 66.1666 19.928C66.3654 19.595 66.3256 19.1279 66.0498 18.5241L60.7275 6.86811H65.5305L68.7756 14.956L71.5014 6.86811H76.3044L71.1113 19.9503C70.6094 21.2027 69.9608 22.1494 69.1632 22.7929C68.3681 23.434 67.2848 23.757 65.9181 23.757L65.9231 23.7595Z" fill="#F9B23E"/>
    <path d="M87.4734 2.83032C89.4289 2.83032 90.9148 3.29497 91.9261 4.22179C92.9399 5.1486 93.4443 6.51025 93.4443 8.30176V14.0117C93.4443 15.8032 92.9374 17.1624 91.9261 18.0917C90.9123 19.0185 89.4289 19.4832 87.4734 19.4832H77.3455V2.83281H87.4734V2.83032ZM88.7729 8.30176C88.7729 6.87551 87.9952 6.1599 86.4372 6.1599H82.0218V16.1511H86.4372C87.9952 16.1511 88.7729 15.438 88.7729 14.0092V8.29927V8.30176ZM103.704 10.3243C102.613 10.3243 101.487 10.5629 100.33 11.0375V19.4807H95.7849V6.87302H99.8102L100.069 8.41854C101.557 7.22834 103.115 6.63448 104.742 6.63448H105.91V10.3219H103.704V10.3243ZM112.532 9.61122C111.839 9.61122 111.494 9.92927 111.494 10.5629V11.8699H115.909V10.5629C115.909 9.92927 115.564 9.61122 114.87 9.61122H112.535H112.532ZM119.932 19.2446C116.592 19.5627 113.561 19.7192 110.843 19.7192C109.665 19.7192 108.723 19.3937 108.012 18.7452C107.302 18.0942 106.946 17.2295 106.946 16.1536V10.4436C106.946 9.25342 107.314 8.32412 108.05 7.64827C108.785 6.9749 109.801 6.63697 111.101 6.63697H116.294C117.591 6.63697 118.61 6.9749 119.345 7.64827C120.081 8.32163 120.449 9.25342 120.449 10.4436V14.8441H111.489V15.7958C111.489 16.0343 111.576 16.2331 111.749 16.3896C111.923 16.5487 112.14 16.6282 112.398 16.6282C114.112 16.6282 116.622 16.5089 119.929 16.2704V19.2446H119.932ZM128.241 16.3896C129.158 16.3896 130.196 16.2306 131.357 15.9151V14.4863H127.592C127.334 14.4863 127.115 14.5658 126.944 14.7249C126.77 14.8839 126.683 15.0827 126.683 15.3187V15.5572C126.683 15.7958 126.77 15.9921 126.944 16.1511C127.118 16.3101 127.334 16.3896 127.592 16.3896H128.241ZM123.438 7.11156C126.606 6.79351 129.463 6.63697 132.008 6.63697C133.185 6.63697 134.127 6.96247 134.838 7.61099C135.548 8.262 135.901 9.1267 135.901 10.2026V19.4807H131.876L131.618 18.2905C130.805 18.7825 129.968 19.1427 129.113 19.3738C128.256 19.6024 127.533 19.7192 126.944 19.7192H126.034C124.857 19.7192 123.912 19.3937 123.204 18.7452C122.494 18.0942 122.138 17.2295 122.138 16.1536V15.0827C122.138 14.0043 122.494 13.1396 123.204 12.4911C123.915 11.84 124.857 11.5145 126.034 11.5145H131.357V10.5629C131.357 10.3243 131.27 10.1256 131.098 9.96903C130.924 9.81 130.708 9.73049 130.45 9.73049C129.324 9.73049 128.082 9.7777 126.723 9.87212C125.363 9.96654 124.268 10.0386 123.438 10.0858V7.11156ZM147.458 6.63697C148.859 6.63697 149.943 7.11156 150.703 8.06322C151.498 7.57124 152.36 7.21095 153.287 6.97987C154.214 6.75127 155.039 6.63448 155.767 6.63448H156.025C157.203 6.63448 158.147 6.95999 158.855 7.60851C159.566 8.25952 159.919 9.12421 159.919 10.2001V19.4782H155.374V10.9157C155.374 10.6772 155.287 10.4784 155.113 10.3219C154.939 10.1628 154.723 10.0833 154.465 10.0833H154.336C153.558 10.0833 152.562 10.2424 151.349 10.5604V19.4807H146.804V10.9182C146.804 10.6797 146.717 10.4809 146.544 10.3243C146.37 10.1653 146.153 10.0858 145.895 10.0858H145.766C144.988 10.0858 143.992 10.2448 142.779 10.5629V19.4832H138.234V6.87551H142.26L142.518 8.0657C143.331 7.57372 144.168 7.21343 145.025 6.98235C145.883 6.75375 146.606 6.63697 147.195 6.63697H147.453H147.458Z" fill="#F1592A"/>
  </g>
  <defs>
    <clipPath id="clip0_32_602">
      <rect width="159.924" height="25.762" fill="white"/>
    </clipPath>
  </defs>
</svg>
