<?xml version="1.0" encoding="UTF-8"?> <!-- Creator: CorelDRAW 2020 (64-Bit) --> <svg xmlns="http://www.w3.org/2000/svg" xmlns:xlink="http://www.w3.org/1999/xlink" xmlns:xodm="http://www.corel.com/coreldraw/odm/2003" xml:space="preserve" width="42.3132mm" height="6.8162mm" style="shape-rendering:geometricPrecision; text-rendering:geometricPrecision; image-rendering:optimizeQuality; fill-rule:evenodd; clip-rule:evenodd" viewBox="0 0 643.62 103.68"> <defs> <style type="text/css"> <![CDATA[ .fil1 {fill:#F1592A} .fil0 {fill:#F9B23E} .fil3 {fill:#F1592A;fill-rule:nonzero} .fil2 {fill:#F9B23E;fill-rule:nonzero} ]]> </style> </defs> <g id="Layer_x0020_1"> <metadata id="CorelCorpID_0Corel-Layer"></metadata> <rect class="fil0" y="-0" width="17.45" height="17.45"></rect> <polygon class="fil0" points="25.44,59.69 8.09,59.69 8.09,26.99 25.52,26.99 25.52,9.98 60.36,9.98 60.36,26.83 42.88,26.83 42.88,42.68 25.44,42.68 "></polygon> <polygon class="fil1" points="68.31,18.99 84.66,18.99 84.66,85.05 66.64,85.05 50.88,100.81 50.88,85.38 16.14,85.38 16.14,69.2 33.48,69.2 33.48,52.31 51.01,52.31 51.01,36.26 68.19,36.26 "></polygon> <g id="_1634656380912"> <path class="fil2" d="M166.02 85.49c-15.54,1.28 -28.43,1.91 -38.67,1.91 -6.83,0 -11.84,-1.47 -15.05,-4.4 -3.2,-2.94 -4.81,-7.53 -4.81,-13.78l0 -30.63c0,-6.7 1.65,-11.57 4.96,-14.6 3.31,-3.03 8.62,-4.55 15.94,-4.55l37.62 0 0 13.4 -33.44 0c-4.18,0 -6.27,1.92 -6.27,5.74l0 30.63c0,1.47 0.47,2.63 1.41,3.49 0.94,0.86 2.14,1.29 3.6,1.29 1.46,0 3.07,-0.02 4.81,-0.05 1.74,-0.03 3.55,-0.08 5.43,-0.14 1.88,-0.06 3.78,-0.13 5.69,-0.19 1.92,-0.06 4.39,-0.19 7.42,-0.38 3.03,-0.19 6.81,-0.42 11.34,-0.67l0 12.92zm30.31 -47.87l0 48.82 -18.29 0 0 -35.9 -7.84 0 0 -12.92 26.13 0zm-18.29 -19.15l18.29 0 0 13.4 -18.29 0 0 -13.4zm67.41 67.97c-6.76,0.64 -13.38,0.96 -19.86,0.96 -4.74,0 -8.53,-1.31 -11.39,-3.92 -2.86,-2.62 -4.28,-6.1 -4.28,-10.43l0 -24.41 -6.27 0 0 -12.92 6.27 0 2.09 -11.49 16.2 0 0 11.49 13.06 0 0 12.92 -13.06 0 0 22.02c0,0.96 0.35,1.75 1.04,2.39 0.7,0.64 1.57,0.96 2.61,0.96l13.59 0 0 12.45zm19.86 17.23c-3.69,0 -8.22,-0.32 -13.59,-0.96l0 -12.45 9.4 0c2.65,0 4.37,-0.67 5.17,-2.01 0.8,-1.34 0.64,-3.22 -0.47,-5.65l-21.42 -46.91 19.33 0 13.06 32.55 10.97 -32.55 19.33 0 -20.9 52.65c-2.02,5.04 -4.63,8.85 -7.84,11.44 -3.2,2.58 -7.56,3.88 -13.06,3.88z"></path> <path class="fil3" d="M352.04 19.44c7.87,0 13.85,1.87 17.92,5.6 4.08,3.73 6.11,9.21 6.11,16.42l0 22.98c0,7.21 -2.04,12.68 -6.11,16.42 -4.08,3.73 -10.05,5.6 -17.92,5.6l-40.76 0 0 -67.01 40.76 0zm5.23 22.02c0,-5.74 -3.13,-8.62 -9.4,-8.62l-17.77 0 0 40.21 17.77 0c6.27,0 9.4,-2.87 9.4,-8.62l0 -22.98zm60.09 8.14c-4.39,0 -8.92,0.96 -13.58,2.87l0 33.98 -18.29 0 0 -50.74 16.2 0 1.04 6.22c5.99,-4.79 12.26,-7.18 18.81,-7.18l4.7 0 0 14.84 -8.88 0zm35.53 -2.87c-2.79,0 -4.18,1.28 -4.18,3.83l0 5.26 17.77 0 0 -5.26c0,-2.55 -1.39,-3.83 -4.18,-3.83l-9.4 0zm29.78 38.77c-13.44,1.28 -25.64,1.91 -36.58,1.91 -4.74,0 -8.53,-1.31 -11.39,-3.92 -2.86,-2.62 -4.29,-6.1 -4.29,-10.43l0 -22.98c0,-4.79 1.48,-8.53 4.44,-11.25 2.96,-2.71 7.05,-4.07 12.28,-4.07l20.9 0c5.22,0 9.32,1.36 12.28,4.07 2.96,2.71 4.44,6.46 4.44,11.25l0 17.71 -36.06 0 0 3.83c0,0.96 0.35,1.76 1.05,2.39 0.7,0.64 1.57,0.96 2.61,0.96 6.9,0 17,-0.48 30.31,-1.44l0 11.97zm33.44 -11.49c3.69,0 7.87,-0.64 12.54,-1.91l0 -5.75 -15.15 0c-1.04,0 -1.92,0.32 -2.61,0.96 -0.7,0.64 -1.05,1.44 -1.05,2.39l0 0.96c0,0.96 0.35,1.75 1.05,2.39 0.7,0.64 1.57,0.96 2.61,0.96l2.61 0zm-19.33 -37.34c12.75,-1.28 24.25,-1.91 34.49,-1.91 4.74,0 8.53,1.31 11.39,3.92 2.86,2.62 4.28,6.1 4.28,10.43l0 37.34 -16.2 0 -1.04 -4.79c-3.27,1.98 -6.64,3.43 -10.08,4.36 -3.45,0.92 -6.36,1.39 -8.73,1.39l-3.66 0c-4.74,0 -8.54,-1.31 -11.39,-3.92 -2.86,-2.62 -4.29,-6.1 -4.29,-10.43l0 -4.31c0,-4.34 1.43,-7.82 4.29,-10.43 2.86,-2.62 6.65,-3.93 11.39,-3.93l21.42 0 0 -3.83c0,-0.96 -0.35,-1.76 -1.04,-2.39 -0.7,-0.64 -1.57,-0.96 -2.61,-0.96 -4.53,0 -9.53,0.19 -15,0.57 -5.47,0.38 -9.88,0.67 -13.22,0.86l0 -11.97zm96.67 -1.91c5.64,0 10,1.91 13.06,5.74 3.2,-1.98 6.67,-3.43 10.4,-4.36 3.73,-0.92 7.05,-1.39 9.98,-1.39l1.04 0c4.74,0 8.54,1.31 11.39,3.92 2.86,2.62 4.28,6.1 4.28,10.43l0 37.34 -18.29 0 0 -34.46c0,-0.96 -0.35,-1.76 -1.05,-2.39 -0.7,-0.64 -1.57,-0.96 -2.61,-0.96l-0.52 0c-3.13,0 -7.14,0.64 -12.02,1.92l0 35.9 -18.29 0 0 -34.46c0,-0.96 -0.35,-1.76 -1.05,-2.39 -0.7,-0.64 -1.57,-0.96 -2.61,-0.96l-0.52 0c-3.13,0 -7.14,0.64 -12.02,1.92l0 35.9 -18.29 0 0 -50.74 16.2 0 1.04 4.79c3.27,-1.98 6.64,-3.43 10.09,-4.36 3.45,-0.92 6.36,-1.39 8.73,-1.39l1.04 0z"></path> </g> </g> </svg> 