<?xml version="1.0" encoding="UTF-8"?> <!-- Creator: CorelDRAW 2020 (64-Bit) --> <svg xmlns="http://www.w3.org/2000/svg" xmlns:xlink="http://www.w3.org/1999/xlink" xmlns:xodm="http://www.corel.com/coreldraw/odm/2003" xml:space="preserve" width="13.5301mm" height="13.8687mm" style="shape-rendering:geometricPrecision; text-rendering:geometricPrecision; image-rendering:optimizeQuality; fill-rule:evenodd; clip-rule:evenodd" viewBox="0 0 69.51 71.25"> <defs> <style type="text/css"> <![CDATA[ .fil59 {fill:none} .fil44 {fill:#6C391C} .fil6 {fill:#9A692E} .fil5 {fill:#B68A49} .fil0 {fill:#F9B23E} .fil2 {fill:#FFF2DE} .fil1 {fill:#FEFEFE;fill-rule:nonzero} .fil4 {fill:#547100;fill-rule:nonzero} .fil9 {fill:#ACC300;fill-rule:nonzero} .fil45 {fill:#4F2411;fill-opacity:0.600000} .fil43 {fill:url(#id1)} .fil42 {fill:url(#id2)} .fil27 {fill:url(#id3);fill-rule:nonzero} .fil24 {fill:url(#id4);fill-rule:nonzero} .fil13 {fill:url(#id5);fill-rule:nonzero} .fil28 {fill:url(#id6);fill-rule:nonzero} .fil25 {fill:url(#id7);fill-rule:nonzero} .fil20 {fill:url(#id8);fill-rule:nonzero} .fil26 {fill:url(#id9);fill-rule:nonzero} .fil37 {fill:url(#id10);fill-rule:nonzero} .fil12 {fill:url(#id11);fill-rule:nonzero} .fil33 {fill:url(#id12);fill-rule:nonzero} .fil3 {fill:url(#id13);fill-rule:nonzero} .fil29 {fill:url(#id14);fill-rule:nonzero} .fil40 {fill:url(#id15);fill-rule:nonzero} .fil34 {fill:url(#id16);fill-rule:nonzero} .fil21 {fill:url(#id17);fill-rule:nonzero} .fil41 {fill:url(#id18);fill-rule:nonzero} .fil31 {fill:url(#id19);fill-rule:nonzero} .fil7 {fill:url(#id20);fill-rule:nonzero} .fil11 {fill:url(#id21);fill-rule:nonzero} .fil35 {fill:url(#id22);fill-rule:nonzero} .fil32 {fill:url(#id23);fill-rule:nonzero} .fil36 {fill:url(#id24);fill-rule:nonzero} .fil17 {fill:url(#id25);fill-rule:nonzero} .fil22 {fill:url(#id26);fill-rule:nonzero} .fil10 {fill:url(#id27);fill-rule:nonzero} .fil23 {fill:url(#id28);fill-rule:nonzero} .fil38 {fill:url(#id29);fill-rule:nonzero} .fil14 {fill:url(#id30);fill-rule:nonzero} .fil18 {fill:url(#id31);fill-rule:nonzero} .fil39 {fill:url(#id32);fill-rule:nonzero} .fil19 {fill:url(#id33);fill-rule:nonzero} .fil16 {fill:url(#id34);fill-rule:nonzero} .fil30 {fill:url(#id35);fill-rule:nonzero} .fil15 {fill:url(#id36);fill-rule:nonzero} .fil8 {fill:url(#id37);fill-rule:nonzero} .fil51 {fill:url(#id38);fill-opacity:0.600000} .fil50 {fill:url(#id39);fill-opacity:0.600000} .fil58 {fill:url(#id40);fill-opacity:0.600000} .fil52 {fill:url(#id41);fill-opacity:0.600000} .fil47 {fill:url(#id42);fill-opacity:0.600000} .fil48 {fill:url(#id43);fill-opacity:0.600000} .fil56 {fill:url(#id44);fill-opacity:0.600000} .fil55 {fill:url(#id45);fill-opacity:0.600000} .fil49 {fill:url(#id46);fill-opacity:0.600000} .fil54 {fill:url(#id47);fill-opacity:0.600000} .fil57 {fill:url(#id48);fill-opacity:0.600000} .fil53 {fill:url(#id49);fill-opacity:0.600000} .fil46 {fill:url(#id50);fill-opacity:0.600000} ]]> </style> <clipPath id="id0"> <path d="M5.72 0l59.44 0c2.39,0 4.35,1.96 4.35,4.35l0 62.55c0,2.39 -1.96,4.35 -4.35,4.35l-52.78 0c-2.39,0 -4.35,-1.96 -4.35,-4.35l0 -36.51 -7.83 -10.98 -0.06 -16.14c-0.01,-2.39 3.18,-3.26 5.58,-3.26z"></path> </clipPath> <linearGradient id="id1" gradientUnits="userSpaceOnUse" x1="38.77" y1="59.73" x2="38.92" y2="71.25"> <stop offset="0" style="stop-opacity:1; stop-color:#825130"></stop> <stop offset="0.301961" style="stop-opacity:1; stop-color:#84502F"></stop> <stop offset="1" style="stop-opacity:1; stop-color:#874F2E"></stop> </linearGradient> <radialGradient id="id2" gradientUnits="userSpaceOnUse" gradientTransform="matrix(1.79983E-17 -0.293935 -1 -6.12325E-17 102 75)" cx="38.84" cy="63.4" r="645.88" fx="38.84" fy="63.4"> <stop offset="0" style="stop-opacity:1; stop-color:#8C522E"></stop> <stop offset="1" style="stop-opacity:1; stop-color:#C4966F"></stop> </radialGradient> <linearGradient id="id3" gradientUnits="userSpaceOnUse" x1="59.75" y1="17.84" x2="63.35" y2="18.41"> <stop offset="0" style="stop-opacity:1; stop-color:#6A9007"></stop> <stop offset="0.811765" style="stop-opacity:1; stop-color:#799C16"></stop> <stop offset="1" style="stop-opacity:1; stop-color:#89A825"></stop> </linearGradient> <linearGradient id="id4" gradientUnits="userSpaceOnUse" x1="30.1" y1="27.05" x2="26.84" y2="21.63"> <stop offset="0" style="stop-opacity:1; stop-color:#889C00"></stop> <stop offset="0.54902" style="stop-opacity:1; stop-color:#637600"></stop> <stop offset="1" style="stop-opacity:1; stop-color:#3D5000"></stop> </linearGradient> <linearGradient id="id5" gradientUnits="userSpaceOnUse" xlink:href="#id4" x1="64.17" y1="30.2" x2="61.84" y2="29.99"> </linearGradient> <linearGradient id="id6" gradientUnits="userSpaceOnUse" xlink:href="#id4" x1="24.92" y1="19.19" x2="23.71" y2="16.38"> </linearGradient> <linearGradient id="id7" gradientUnits="userSpaceOnUse" xlink:href="#id4" x1="52.31" y1="19.76" x2="51.09" y2="16.95"> </linearGradient> <linearGradient id="id8" gradientUnits="userSpaceOnUse" xlink:href="#id3" x1="24.64" y1="30.89" x2="28.24" y2="31.45"> </linearGradient> <linearGradient id="id9" gradientUnits="userSpaceOnUse" xlink:href="#id3" x1="48.83" y1="23.99" x2="52.43" y2="24.55"> </linearGradient> <linearGradient id="id10" gradientUnits="userSpaceOnUse" xlink:href="#id3" x1="16.54" y1="27.6" x2="16.82" y2="26.06"> </linearGradient> <linearGradient id="id11" gradientUnits="userSpaceOnUse" xlink:href="#id3" x1="57.12" y1="26.08" x2="59.88" y2="29.21"> </linearGradient> <linearGradient id="id12" gradientUnits="userSpaceOnUse" xlink:href="#id3" x1="35.67" y1="19.14" x2="35.87" y2="20.7"> </linearGradient> <linearGradient id="id13" gradientUnits="userSpaceOnUse" xlink:href="#id3" x1="36.08" y1="34.09" x2="38.55" y2="34.47"> </linearGradient> <linearGradient id="id14" gradientUnits="userSpaceOnUse" xlink:href="#id3" x1="64.67" y1="10.58" x2="62.19" y2="10.56"> </linearGradient> <linearGradient id="id15" gradientUnits="userSpaceOnUse" xlink:href="#id3" x1="47.22" y1="24.6" x2="45.65" y2="26.95"> </linearGradient> <linearGradient id="id16" gradientUnits="userSpaceOnUse" xlink:href="#id3" x1="45.89" y1="19.42" x2="45.27" y2="20.86"> </linearGradient> <linearGradient id="id17" gradientUnits="userSpaceOnUse" xlink:href="#id4" x1="15.12" y1="28.51" x2="13.36" y2="31.02"> </linearGradient> <linearGradient id="id18" gradientUnits="userSpaceOnUse" xlink:href="#id3" x1="56.74" y1="17.22" x2="55.52" y2="14.41"> </linearGradient> <linearGradient id="id19" gradientUnits="userSpaceOnUse" xlink:href="#id3" x1="35.5" y1="10.92" x2="35.91" y2="8.47"> </linearGradient> <linearGradient id="id20" gradientUnits="userSpaceOnUse" xlink:href="#id4" x1="54.18" y1="35.54" x2="49.52" y2="35.12"> </linearGradient> <linearGradient id="id21" gradientUnits="userSpaceOnUse" xlink:href="#id4" x1="62.59" y1="33.74" x2="57.93" y2="33.31"> </linearGradient> <linearGradient id="id22" gradientUnits="userSpaceOnUse" xlink:href="#id3" x1="31.72" y1="35.71" x2="32.01" y2="34.17"> </linearGradient> <linearGradient id="id23" gradientUnits="userSpaceOnUse" xlink:href="#id4" x1="31.07" y1="12.62" x2="33.16" y2="9.49"> </linearGradient> <linearGradient id="id24" gradientUnits="userSpaceOnUse" xlink:href="#id3" x1="23.17" y1="29.33" x2="23.45" y2="27.79"> </linearGradient> <linearGradient id="id25" gradientUnits="userSpaceOnUse" xlink:href="#id4" x1="32.3" y1="28.52" x2="36.93" y2="27.82"> </linearGradient> <linearGradient id="id26" gradientUnits="userSpaceOnUse" xlink:href="#id4" x1="19.31" y1="30.56" x2="17.56" y2="33.07"> </linearGradient> <linearGradient id="id27" gradientUnits="userSpaceOnUse" xlink:href="#id4" x1="46.5" y1="13.61" x2="40.25" y2="12.69"> </linearGradient> <linearGradient id="id28" gradientUnits="userSpaceOnUse" xlink:href="#id4" x1="45.26" y1="32.04" x2="41.6" y2="29.93"> </linearGradient> <linearGradient id="id29" gradientUnits="userSpaceOnUse" xlink:href="#id4" x1="40.95" y1="18.91" x2="38.27" y2="17.42"> </linearGradient> <linearGradient id="id30" gradientUnits="userSpaceOnUse" xlink:href="#id3" x1="22.04" y1="16.41" x2="21.24" y2="12.4"> </linearGradient> <linearGradient id="id31" gradientUnits="userSpaceOnUse" xlink:href="#id3" x1="38.59" y1="24.95" x2="39.22" y2="30.03"> </linearGradient> <linearGradient id="id32" gradientUnits="userSpaceOnUse" xlink:href="#id4" x1="35.26" y1="36.68" x2="35.54" y2="35.14"> </linearGradient> <linearGradient id="id33" gradientUnits="userSpaceOnUse" xlink:href="#id4" x1="26.75" y1="32.25" x2="25" y2="34.77"> </linearGradient> <linearGradient id="id34" gradientUnits="userSpaceOnUse" xlink:href="#id4" x1="9.63" y1="26.09" x2="11.72" y2="22.96"> </linearGradient> <linearGradient id="id35" gradientUnits="userSpaceOnUse" xlink:href="#id4" x1="67.05" y1="14.68" x2="63.63" y2="13.11"> </linearGradient> <linearGradient id="id36" gradientUnits="userSpaceOnUse" xlink:href="#id3" x1="14.05" y1="24.39" x2="14.46" y2="21.93"> </linearGradient> <linearGradient id="id37" gradientUnits="userSpaceOnUse" xlink:href="#id4" x1="62.06" y1="12.46" x2="56.94" y2="8.83"> </linearGradient> <linearGradient id="id38" gradientUnits="userSpaceOnUse" x1="34.01" y1="58.77" x2="32.4" y2="58.77"> <stop offset="0" style="stop-opacity:1; stop-color:#4F2411"></stop> <stop offset="1" style="stop-opacity:1; stop-color:#9E5B39"></stop> </linearGradient> <linearGradient id="id39" gradientUnits="userSpaceOnUse" xlink:href="#id38" x1="33.34" y1="69.1" x2="31.72" y2="69.1"> </linearGradient> <linearGradient id="id40" gradientUnits="userSpaceOnUse" xlink:href="#id38" x1="53.69" y1="61.73" x2="52.07" y2="61.73"> </linearGradient> <linearGradient id="id41" gradientUnits="userSpaceOnUse" xlink:href="#id38" x1="61.61" y1="64.3" x2="60" y2="64.3"> </linearGradient> <linearGradient id="id42" gradientUnits="userSpaceOnUse" xlink:href="#id38" x1="55.89" y1="68.75" x2="54.27" y2="68.75"> </linearGradient> <linearGradient id="id43" gradientUnits="userSpaceOnUse" xlink:href="#id38" x1="25.7" y1="65.13" x2="24.08" y2="65.13"> </linearGradient> <linearGradient id="id44" gradientUnits="userSpaceOnUse" xlink:href="#id38" x1="39.61" y1="56.86" x2="38" y2="56.86"> </linearGradient> <linearGradient id="id45" gradientUnits="userSpaceOnUse" xlink:href="#id38" x1="38.05" y1="63" x2="36.43" y2="63"> </linearGradient> <linearGradient id="id46" gradientUnits="userSpaceOnUse" xlink:href="#id38" x1="41.55" y1="65.92" x2="39.93" y2="65.92"> </linearGradient> <linearGradient id="id47" gradientUnits="userSpaceOnUse" xlink:href="#id38" x1="29.35" y1="67.07" x2="27.73" y2="67.07"> </linearGradient> <linearGradient id="id48" gradientUnits="userSpaceOnUse" xlink:href="#id38" x1="49.27" y1="69.79" x2="47.65" y2="69.79"> </linearGradient> <linearGradient id="id49" gradientUnits="userSpaceOnUse" xlink:href="#id38" x1="19.23" y1="70.31" x2="17.61" y2="70.31"> </linearGradient> <linearGradient id="id50" gradientUnits="userSpaceOnUse" xlink:href="#id38" x1="47.43" y1="62.06" x2="45.82" y2="62.06"> </linearGradient> </defs> <g id="Layer_x0020_1"> <metadata id="CorelCorpID_0Corel-Layer"></metadata> <rect class="fil0" x="0" y="0" width="22.45" height="22.45" rx="4.35" ry="4.28"></rect> <path class="fil1" d="M12.09 16.3c-0.1,0 -0.18,-0.03 -0.25,-0.1 -0.07,-0.07 -0.1,-0.15 -0.1,-0.26l0 -1.74 -4.57 0c-0.1,0 -0.18,-0.03 -0.25,-0.1 -0.07,-0.07 -0.1,-0.15 -0.1,-0.26l0 -1.17c0,-0.08 0.01,-0.15 0.04,-0.23 0.03,-0.08 0.07,-0.15 0.12,-0.22l4.25 -5.81c0.13,-0.16 0.3,-0.25 0.54,-0.25l1.84 0c0.11,0 0.19,0.03 0.26,0.1 0.07,0.07 0.1,0.15 0.1,0.26l0 5.74 1.29 0c0.11,0 0.19,0.03 0.26,0.1 0.07,0.07 0.1,0.15 0.1,0.26l0 1.22c0,0.11 -0.03,0.19 -0.1,0.26 -0.07,0.07 -0.15,0.1 -0.26,0.1l-1.29 0 0 1.74c0,0.11 -0.03,0.19 -0.1,0.26 -0.07,0.07 -0.15,0.1 -0.26,0.1l-1.52 0zm-3 -3.96l2.7 0 0 -3.81 -2.7 3.81z"></path> <path class="fil2" d="M25.38 9.77l39.78 0c2.39,0 4.35,1.96 4.35,4.35l0 52.78c0,2.39 -1.96,4.35 -4.35,4.35l-52.78 0c-2.39,0 -4.35,-1.96 -4.35,-4.35l0 -41.52 13 0c2.39,0 4.35,-1.96 4.35,-4.35l0 -11.26z"></path> <g> </g> <g style="clip-path:url(#id0)"> <g> <g id="_1634557513664"> <path class="fil3" d="M38.35 35.72c0,0 0.41,-2.68 -2.07,-2.89 -0.1,0.21 -0.09,2.91 2.07,2.89z"></path> <g> <path class="fil4" d="M22.69 32.43l-0 0 -0.17 -0.02 -0.18 -0.04 -0.2 -0.05 -0.21 -0.06 -0.22 -0.07 -0.24 -0.08 -0.25 -0.09 -0.26 -0.1 -0.27 -0.11 -0.27 -0.11 -0.28 -0.12 -0.29 -0.12 -0.29 -0.13 -0.29 -0.13 -0.29 -0.13 -0.29 -0.13 -0.29 -0.13 -0.28 -0.13 -0.27 -0.13 -0.27 -0.12 -0.26 -0.12 -0.25 -0.11 -0.23 -0.11 -0.22 -0.1 -0.2 -0.09 -0.19 -0.08 -0.17 -0.07 -0.14 -0.06 -0.12 -0.05 -0.09 -0.04 -0.06 -0.02 0.01 0 0.07 -0.69 0.12 0.02 0.1 0.03 0.11 0.04 0.13 0.06 0.15 0.07 0.17 0.08 0.19 0.09 0.21 0.1 0.22 0.1 0.23 0.11 0.25 0.12 0.26 0.12 0.27 0.12 0.27 0.13 0.28 0.13 0.28 0.13 0.29 0.13 0.29 0.13 0.29 0.13 0.29 0.13 0.28 0.12 0.28 0.12 0.27 0.11 0.26 0.1 0.25 0.1 0.24 0.09 0.22 0.08 0.21 0.07 0.19 0.06 0.17 0.04 0.14 0.03 0.11 0.02 -0 0 -0.07 0.69zm0 0l-0 0 -0.03 -0 0.03 0zm5.54 1.17l0 0 0.04 0.02 -0.04 -0.01 -0.07 -0.02 -0.1 -0.02 -0.12 -0.03 -0.15 -0.03 -0.17 -0.04 -0.18 -0.04 -0.2 -0.04 -0.22 -0.05 -0.23 -0.05 -0.24 -0.05 -0.25 -0.05 -0.25 -0.05 -0.26 -0.06 -0.26 -0.05 -0.26 -0.06 -0.26 -0.06 -0.26 -0.05 -0.25 -0.05 -0.24 -0.05 -0.23 -0.05 -0.22 -0.05 -0.21 -0.04 -0.19 -0.04 -0.18 -0.04 -0.16 -0.03 -0.14 -0.03 -0.11 -0.02 -0.08 -0.02 -0.06 -0.01 -0.01 -0 0.07 -0.69 0.06 0.01 0.07 0.01 0.09 0.02 0.11 0.02 0.14 0.03 0.16 0.03 0.18 0.04 0.19 0.04 0.21 0.04 0.22 0.05 0.23 0.05 0.24 0.05 0.25 0.05 0.26 0.05 0.26 0.06 0.26 0.05 0.26 0.06 0.26 0.06 0.25 0.05 0.25 0.05 0.24 0.05 0.23 0.05 0.22 0.05 0.2 0.04 0.18 0.04 0.17 0.04 0.15 0.03 0.13 0.03 0.1 0.02 0.08 0.02 0.05 0.01 0.08 0.02 0 0 -0.28 0.63zm6.69 1.73l0 0 -0.13 -0.07 -0.14 -0.07 -0.16 -0.07 -0.18 -0.07 -0.19 -0.07 -0.2 -0.07 -0.22 -0.06 -0.23 -0.06 -0.23 -0.06 -0.24 -0.06 -0.25 -0.06 -0.25 -0.06 -0.26 -0.06 -0.26 -0.06 -0.26 -0.05 -0.26 -0.05 -0.26 -0.05 -0.26 -0.05 -0.25 -0.05 -0.25 -0.05 -0.24 -0.05 -0.23 -0.05 -0.23 -0.05 -0.22 -0.05 -0.21 -0.04 -0.2 -0.04 -0.18 -0.04 -0.17 -0.04 -0.16 -0.04 -0.14 -0.04 -0.13 -0.04 -0.11 -0.05 0.28 -0.63 0.07 0.03 0.1 0.03 0.12 0.04 0.14 0.04 0.16 0.04 0.17 0.04 0.19 0.04 0.2 0.04 0.21 0.05 0.22 0.05 0.23 0.05 0.24 0.05 0.25 0.05 0.25 0.05 0.26 0.05 0.26 0.05 0.26 0.05 0.26 0.06 0.26 0.06 0.26 0.06 0.26 0.06 0.25 0.06 0.25 0.06 0.24 0.06 0.24 0.07 0.23 0.07 0.22 0.07 0.21 0.07 0.2 0.07 0.19 0.08 0.17 0.08 0.16 0.08 0 0 -0.34 0.6zm4.12 0.75l0 0 -0.08 -0 -0.08 -0.01 -0.09 -0.01 -0.1 -0.01 -0.11 -0.01 -0.12 -0.02 -0.13 -0.02 -0.14 -0.02 -0.15 -0.02 -0.15 -0.02 -0.16 -0.02 -0.16 -0.03 -0.16 -0.03 -0.17 -0.03 -0.17 -0.03 -0.17 -0.03 -0.17 -0.03 -0.16 -0.03 -0.16 -0.03 -0.16 -0.03 -0.15 -0.03 -0.15 -0.03 -0.14 -0.03 -0.13 -0.03 -0.13 -0.03 -0.12 -0.03 -0.11 -0.03 -0.1 -0.03 -0.09 -0.02 -0.08 -0.02 -0.07 -0.03 -0.08 -0.04 0.34 -0.6 -0.01 -0 0.03 0.01 0.05 0.02 0.07 0.02 0.08 0.02 0.1 0.02 0.11 0.03 0.12 0.03 0.13 0.03 0.14 0.03 0.14 0.03 0.15 0.03 0.16 0.03 0.16 0.03 0.16 0.03 0.16 0.03 0.16 0.03 0.16 0.03 0.16 0.03 0.16 0.03 0.16 0.03 0.15 0.02 0.15 0.02 0.14 0.02 0.13 0.02 0.13 0.02 0.12 0.01 0.11 0.01 0.09 0.01 0.08 0.01 0.06 0 0.04 0 0 0 0 0.69zm7.76 -3.71l0 0 -0.12 0.14 -0.14 0.14 -0.16 0.14 -0.18 0.15 -0.2 0.15 -0.21 0.15 -0.23 0.15 -0.24 0.15 -0.25 0.15 -0.26 0.15 -0.27 0.15 -0.28 0.15 -0.28 0.15 -0.29 0.15 -0.29 0.14 -0.3 0.14 -0.3 0.14 -0.3 0.13 -0.3 0.13 -0.29 0.12 -0.29 0.12 -0.28 0.11 -0.28 0.1 -0.27 0.1 -0.26 0.09 -0.25 0.08 -0.24 0.07 -0.23 0.06 -0.21 0.05 -0.2 0.03 -0.19 0.02 -0.18 0.01 0 -0.69 0.12 -0.01 0.14 -0.02 0.17 -0.03 0.19 -0.04 0.21 -0.05 0.22 -0.06 0.24 -0.07 0.25 -0.08 0.26 -0.09 0.27 -0.1 0.27 -0.11 0.28 -0.11 0.28 -0.12 0.29 -0.13 0.29 -0.13 0.29 -0.13 0.29 -0.14 0.29 -0.14 0.28 -0.14 0.28 -0.15 0.27 -0.15 0.26 -0.15 0.25 -0.15 0.24 -0.15 0.23 -0.14 0.21 -0.14 0.19 -0.14 0.18 -0.13 0.16 -0.13 0.14 -0.12 0.11 -0.11 0.09 -0.1 0 0 0.54 0.43zm2.38 -2.86l0 0 -0.05 0.11 -0.06 0.11 -0.06 0.1 -0.06 0.1 -0.07 0.1 -0.07 0.1 -0.07 0.1 -0.08 0.1 -0.08 0.1 -0.08 0.1 -0.08 0.1 -0.08 0.1 -0.08 0.1 -0.08 0.09 -0.09 0.09 -0.09 0.09 -0.09 0.09 -0.09 0.09 -0.09 0.09 -0.08 0.09 -0.08 0.09 -0.08 0.08 -0.08 0.08 -0.08 0.08 -0.08 0.08 -0.07 0.08 -0.07 0.08 -0.07 0.07 -0.06 0.07 -0.06 0.07 -0.06 0.07 -0.05 0.06 -0.54 -0.43 0.06 -0.07 0.06 -0.08 0.07 -0.08 0.07 -0.08 0.07 -0.08 0.07 -0.08 0.08 -0.08 0.08 -0.08 0.08 -0.08 0.08 -0.08 0.08 -0.08 0.08 -0.09 0.08 -0.09 0.08 -0.09 0.08 -0.09 0.08 -0.09 0.08 -0.09 0.08 -0.09 0.08 -0.09 0.08 -0.09 0.08 -0.09 0.08 -0.09 0.07 -0.09 0.07 -0.09 0.07 -0.09 0.07 -0.09 0.06 -0.09 0.06 -0.09 0.05 -0.09 0.05 -0.09 0.05 -0.08 0.04 -0.08 0 0 0.63 0.3zm12.24 -7.6l0 0 -0.27 0.13 -0.3 0.14 -0.33 0.16 -0.36 0.17 -0.38 0.18 -0.4 0.2 -0.42 0.21 -0.44 0.22 -0.45 0.23 -0.47 0.24 -0.48 0.24 -0.48 0.25 -0.49 0.26 -0.49 0.26 -0.49 0.27 -0.49 0.27 -0.49 0.28 -0.48 0.28 -0.47 0.28 -0.46 0.28 -0.44 0.28 -0.43 0.28 -0.4 0.28 -0.38 0.28 -0.36 0.27 -0.33 0.27 -0.3 0.26 -0.27 0.25 -0.23 0.24 -0.19 0.23 -0.15 0.22 -0.11 0.2 -0.63 -0.3 0.15 -0.27 0.19 -0.27 0.23 -0.27 0.26 -0.27 0.29 -0.28 0.32 -0.28 0.35 -0.28 0.37 -0.28 0.4 -0.29 0.42 -0.29 0.44 -0.29 0.45 -0.29 0.46 -0.29 0.48 -0.28 0.49 -0.28 0.49 -0.28 0.5 -0.27 0.5 -0.27 0.5 -0.27 0.49 -0.26 0.49 -0.25 0.48 -0.24 0.47 -0.24 0.46 -0.23 0.44 -0.22 0.42 -0.21 0.4 -0.2 0.38 -0.18 0.36 -0.17 0.33 -0.16 0.3 -0.14 0.27 -0.13 0 0 0.3 0.62zm2.18 -1.57l-0.08 0.06 -0.08 0.06 -0.08 0.06 -0.08 0.06 -0.08 0.06 -0.08 0.06 -0.08 0.06 -0.08 0.06 -0.08 0.06 -0.07 0.06 -0.07 0.06 -0.07 0.06 -0.07 0.05 -0.07 0.05 -0.07 0.05 -0.07 0.05 -0.07 0.05 -0.07 0.05 -0.07 0.05 -0.07 0.05 -0.06 0.04 -0.06 0.04 -0.06 0.04 -0.06 0.04 -0.06 0.04 -0.06 0.04 -0.06 0.04 -0.06 0.03 -0.06 0.03 -0.06 0.03 -0.06 0.03 -0.05 0.03 -0.3 -0.62 0.04 -0.02 0.04 -0.02 0.05 -0.02 0.05 -0.03 0.05 -0.03 0.05 -0.03 0.05 -0.03 0.05 -0.03 0.06 -0.04 0.06 -0.04 0.06 -0.04 0.06 -0.04 0.06 -0.04 0.06 -0.04 0.06 -0.05 0.06 -0.05 0.07 -0.05 0.07 -0.05 0.07 -0.05 0.07 -0.05 0.07 -0.05 0.07 -0.06 0.07 -0.06 0.07 -0.06 0.07 -0.06 0.08 -0.06 0.08 -0.06 0.08 -0.06 0.08 -0.06 0.08 -0.06 0.08 -0.06 0.08 -0.06 0.44 0.54z"></path> </g> <g> <path class="fil4" d="M39.65 22.56l0 0 0.02 -0.04 0.02 -0.05 0.02 -0.07 0.02 -0.09 0.02 -0.1 0.02 -0.11 0.02 -0.12 0.02 -0.13 0.02 -0.14 0.02 -0.14 0.02 -0.15 0.02 -0.16 0.02 -0.16 0.01 -0.17 0.01 -0.17 0.01 -0.17 0.01 -0.17 0.01 -0.17 0.01 -0.17 0.01 -0.17 0.01 -0.17 0.01 -0.17 0.01 -0.17 0.01 -0.16 0.01 -0.16 0.01 -0.16 0.01 -0.15 0.01 -0.14 0.01 -0.14 0.01 -0.13 0.01 -0.12 0.01 -0.11 0.69 0.05 -0.01 0.11 -0.01 0.12 -0.01 0.13 -0.01 0.14 -0.01 0.14 -0.01 0.15 -0.01 0.16 -0.01 0.16 -0.01 0.16 -0.01 0.17 -0.01 0.17 -0.01 0.17 -0.01 0.18 -0.01 0.18 -0.01 0.18 -0.01 0.18 -0.01 0.17 -0.01 0.17 -0.01 0.17 -0.02 0.17 -0.02 0.16 -0.02 0.16 -0.02 0.15 -0.02 0.15 -0.02 0.14 -0.02 0.13 -0.02 0.13 -0.03 0.12 -0.03 0.11 -0.03 0.1 -0.04 0.1 -0.04 0.09 0 0 -0.61 -0.32zm-1.95 8.07l-0.06 -0.21 0.01 -0.12 0.02 -0.13 0.03 -0.16 0.04 -0.18 0.04 -0.21 0.05 -0.23 0.06 -0.26 0.06 -0.27 0.07 -0.29 0.07 -0.31 0.08 -0.32 0.08 -0.33 0.09 -0.34 0.09 -0.35 0.09 -0.35 0.09 -0.35 0.09 -0.35 0.09 -0.34 0.09 -0.33 0.09 -0.33 0.09 -0.31 0.08 -0.3 0.08 -0.28 0.07 -0.26 0.07 -0.24 0.06 -0.22 0.06 -0.19 0.05 -0.16 0.04 -0.14 0.04 -0.11 0.04 -0.09 0.61 0.32 -0.01 0.02 -0.03 0.08 -0.04 0.12 -0.05 0.16 -0.06 0.19 -0.06 0.21 -0.07 0.24 -0.07 0.26 -0.08 0.28 -0.08 0.3 -0.09 0.31 -0.09 0.32 -0.09 0.33 -0.09 0.34 -0.09 0.35 -0.09 0.35 -0.09 0.35 -0.09 0.34 -0.09 0.34 -0.08 0.33 -0.08 0.32 -0.07 0.31 -0.07 0.29 -0.06 0.27 -0.06 0.25 -0.05 0.23 -0.04 0.2 -0.03 0.17 -0.02 0.14 -0.01 0.1 -0 0.04 -0.04 -0.14 -0.59 0.36z"></path> </g> <path class="fil5" d="M37.52 28.54c-0.05,10.18 0.44,20.18 -0.15,30.54l2.75 0.09c0,0 -0.91,-21.68 -0.38,-32.02 -0.1,0.2 -0.16,0.36 -0.3,0.56 -0.14,0.2 -0.41,0.45 -0.57,0.52l-0.15 0.07c-0.37,0.2 -0.72,0.02 -0.99,-0.37 -0.12,0.38 -0.19,0.62 -0.19,0.62z"></path> <path class="fil6" d="M37.54 29.68c0.03,9.79 0.37,19.54 -0.17,29.39l2.75 0.09c-0.55,-0.02 -1.31,-21.54 -1.9,-29.48 -0.22,0.13 -0.46,0.13 -0.68,-0z"></path> <path class="fil7" d="M49.74 32.77c0,0 -0.44,5.04 4.21,5.16 0.16,-0.41 -0.17,-5.45 -4.21,-5.16z"></path> <path class="fil8" d="M58.77 6.25c0,0 -3.91,5.57 1.42,8.84 0.46,-0.36 3.47,-6.46 -1.42,-8.84z"></path> <g> <path class="fil4" d="M22.92 21.56l-0.63 0.28 0 0 -0.13 -0.28 -0.13 -0.28 -0.14 -0.28 -0.14 -0.28 -0.14 -0.28 -0.15 -0.28 -0.15 -0.28 -0.15 -0.29 -0.15 -0.29 -0.15 -0.29 -0.15 -0.29 -0.15 -0.29 -0.15 -0.29 -0.14 -0.29 -0.14 -0.3 -0.14 -0.3 -0.14 -0.3 -0.13 -0.3 -0.13 -0.31 -0.12 -0.31 -0.11 -0.31 -0.11 -0.31 -0.1 -0.32 -0.09 -0.32 -0.08 -0.32 -0.07 -0.33 -0.06 -0.33 -0.05 -0.34 -0.04 -0.34 -0.03 -0.34 -0.02 -0.35 -0.01 -0.35 0.69 0 0.01 0.33 0.02 0.32 0.03 0.32 0.04 0.32 0.05 0.31 0.06 0.31 0.07 0.31 0.08 0.31 0.09 0.3 0.1 0.3 0.1 0.3 0.11 0.3 0.12 0.3 0.12 0.29 0.13 0.29 0.13 0.29 0.14 0.29 0.14 0.29 0.14 0.29 0.14 0.29 0.15 0.29 0.15 0.29 0.15 0.29 0.15 0.29 0.15 0.29 0.15 0.29 0.15 0.29 0.15 0.29 0.14 0.29 0.14 0.29 0.14 0.29 0.13 0.29 0 0zm5 7.22l-0.68 -0.12 0.03 0.21 -0.03 -0.05 -0.06 -0.09 -0.09 -0.13 -0.11 -0.16 -0.13 -0.19 -0.15 -0.21 -0.16 -0.23 -0.18 -0.25 -0.19 -0.27 -0.2 -0.29 -0.21 -0.3 -0.22 -0.31 -0.23 -0.32 -0.23 -0.32 -0.23 -0.32 -0.23 -0.32 -0.23 -0.32 -0.23 -0.32 -0.22 -0.31 -0.21 -0.3 -0.21 -0.29 -0.2 -0.27 -0.18 -0.26 -0.17 -0.24 -0.15 -0.22 -0.14 -0.19 -0.12 -0.16 -0.1 -0.14 -0.07 -0.11 -0.05 -0.08 -0.05 -0.08 0.63 -0.28 -0.01 -0.01 0.04 0.06 0.07 0.1 0.09 0.13 0.12 0.16 0.14 0.19 0.15 0.21 0.17 0.24 0.18 0.26 0.2 0.27 0.21 0.29 0.21 0.3 0.22 0.31 0.23 0.32 0.23 0.32 0.23 0.32 0.23 0.32 0.23 0.32 0.23 0.31 0.22 0.31 0.21 0.3 0.2 0.29 0.19 0.27 0.18 0.25 0.17 0.23 0.15 0.21 0.13 0.19 0.11 0.16 0.09 0.13 0.07 0.1 0.05 0.08 0.06 0.26z"></path> </g> <g> <path class="fil4" d="M44.99 14.35l0 0 -0.02 -0.12 -0.02 -0.12 -0.02 -0.11 -0.02 -0.1 -0.02 -0.1 -0.03 -0.09 -0.03 -0.09 -0.03 -0.08 -0.03 -0.08 -0.03 -0.07 -0.03 -0.07 -0.03 -0.07 -0.03 -0.07 -0.04 -0.07 -0.04 -0.07 -0.04 -0.07 -0.04 -0.07 -0.04 -0.07 -0.04 -0.07 -0.04 -0.07 -0.04 -0.07 -0.04 -0.07 -0.04 -0.07 -0.04 -0.08 -0.04 -0.08 -0.04 -0.08 -0.04 -0.09 -0.04 -0.09 -0.04 -0.09 -0.04 -0.1 -0.03 -0.1 -0.03 -0.11 0.67 -0.18 0.03 0.09 0.03 0.08 0.03 0.08 0.03 0.08 0.03 0.07 0.03 0.07 0.03 0.07 0.03 0.07 0.04 0.07 0.04 0.07 0.04 0.07 0.04 0.07 0.04 0.07 0.04 0.07 0.04 0.07 0.04 0.07 0.04 0.07 0.04 0.08 0.04 0.08 0.04 0.08 0.04 0.09 0.04 0.09 0.04 0.09 0.04 0.1 0.04 0.1 0.03 0.11 0.03 0.11 0.03 0.12 0.03 0.12 0.02 0.13 0.02 0.13 0.02 0.14 0 0 -0.69 0.08zm0.19 3.68l0 -0 0.04 -0.06 0.04 -0.07 0.03 -0.08 0.03 -0.09 0.02 -0.1 0.02 -0.1 0.01 -0.11 0.01 -0.12 0.01 -0.12 0 -0.13 -0 -0.13 -0.01 -0.13 -0.01 -0.14 -0.01 -0.14 -0.02 -0.14 -0.02 -0.14 -0.02 -0.14 -0.02 -0.14 -0.02 -0.14 -0.02 -0.14 -0.03 -0.13 -0.03 -0.13 -0.03 -0.13 -0.03 -0.12 -0.02 -0.12 -0.02 -0.12 -0.02 -0.11 -0.02 -0.11 -0.02 -0.1 -0.02 -0.09 -0.01 -0.09 -0.01 -0.08 0.69 -0.08 0.01 0.06 0.01 0.07 0.01 0.08 0.02 0.09 0.02 0.1 0.02 0.11 0.02 0.11 0.02 0.12 0.03 0.13 0.03 0.13 0.03 0.14 0.03 0.14 0.03 0.14 0.02 0.14 0.02 0.15 0.02 0.15 0.02 0.15 0.02 0.15 0.01 0.15 0.01 0.15 0.01 0.15 0 0.15 -0 0.15 -0.01 0.15 -0.01 0.15 -0.02 0.14 -0.03 0.14 -0.03 0.14 -0.04 0.13 -0.05 0.13 -0.06 0.13 -0.07 0.12 0 -0 -0.57 -0.4zm-2.23 4.43l0 0 0.03 -0.03 0.05 -0.06 0.06 -0.08 0.07 -0.1 0.07 -0.11 0.08 -0.13 0.08 -0.14 0.08 -0.15 0.08 -0.16 0.09 -0.17 0.09 -0.17 0.09 -0.18 0.09 -0.18 0.09 -0.19 0.09 -0.19 0.09 -0.19 0.09 -0.19 0.08 -0.19 0.08 -0.18 0.08 -0.18 0.08 -0.18 0.08 -0.17 0.07 -0.16 0.07 -0.15 0.06 -0.14 0.06 -0.13 0.06 -0.12 0.05 -0.11 0.05 -0.1 0.04 -0.08 0.04 -0.07 0.04 -0.07 0.57 0.4 -0.01 0.02 -0.03 0.05 -0.03 0.07 -0.04 0.09 -0.05 0.1 -0.05 0.12 -0.06 0.13 -0.06 0.14 -0.07 0.15 -0.07 0.16 -0.08 0.17 -0.08 0.18 -0.08 0.18 -0.08 0.18 -0.09 0.19 -0.09 0.19 -0.09 0.19 -0.09 0.19 -0.09 0.19 -0.09 0.19 -0.09 0.18 -0.09 0.18 -0.09 0.17 -0.09 0.17 -0.09 0.16 -0.09 0.15 -0.08 0.14 -0.08 0.13 -0.08 0.12 -0.08 0.11 -0.08 0.1 -0.09 0.09 0 0 -0.46 -0.52zm-4.72 6.82l0.03 -0.22 0.05 -0.11 0.06 -0.12 0.08 -0.13 0.1 -0.16 0.12 -0.18 0.13 -0.2 0.15 -0.22 0.16 -0.23 0.17 -0.25 0.18 -0.26 0.19 -0.27 0.2 -0.28 0.2 -0.29 0.21 -0.29 0.21 -0.29 0.21 -0.29 0.21 -0.29 0.21 -0.29 0.2 -0.28 0.2 -0.27 0.19 -0.26 0.18 -0.25 0.18 -0.24 0.16 -0.22 0.15 -0.2 0.14 -0.18 0.12 -0.16 0.11 -0.14 0.09 -0.11 0.07 -0.09 0.07 -0.07 0.46 0.52 -0.02 0.02 -0.06 0.07 -0.08 0.1 -0.1 0.13 -0.12 0.15 -0.14 0.18 -0.15 0.2 -0.16 0.22 -0.17 0.23 -0.18 0.25 -0.19 0.26 -0.2 0.27 -0.2 0.28 -0.21 0.29 -0.21 0.29 -0.21 0.29 -0.21 0.29 -0.2 0.29 -0.2 0.28 -0.19 0.28 -0.19 0.27 -0.18 0.26 -0.17 0.25 -0.16 0.23 -0.14 0.21 -0.13 0.19 -0.11 0.17 -0.09 0.15 -0.07 0.12 -0.05 0.08 -0.02 0.03 0.01 -0.14 -0.68 0.12z"></path> </g> <g> <path class="fil4" d="M33.86 13.33l-0.69 -0.08 0 0 0.02 -0.14 0.02 -0.13 0.02 -0.13 0.03 -0.12 0.03 -0.12 0.03 -0.11 0.03 -0.11 0.03 -0.1 0.04 -0.1 0.04 -0.09 0.04 -0.09 0.04 -0.09 0.04 -0.08 0.04 -0.08 0.04 -0.08 0.04 -0.07 0.04 -0.07 0.04 -0.07 0.04 -0.07 0.04 -0.07 0.04 -0.07 0.04 -0.06 0.04 -0.07 0.04 -0.07 0.03 -0.07 0.03 -0.07 0.03 -0.07 0.03 -0.07 0.03 -0.08 0.03 -0.08 0.03 -0.08 0.03 -0.09 0.67 0.18 -0.03 0.11 -0.03 0.1 -0.04 0.1 -0.04 0.1 -0.04 0.09 -0.04 0.09 -0.04 0.08 -0.04 0.08 -0.04 0.08 -0.04 0.07 -0.04 0.07 -0.04 0.07 -0.04 0.07 -0.04 0.07 -0.04 0.07 -0.04 0.07 -0.04 0.06 -0.04 0.07 -0.04 0.07 -0.03 0.07 -0.03 0.07 -0.03 0.07 -0.03 0.07 -0.03 0.08 -0.03 0.08 -0.03 0.09 -0.03 0.09 -0.02 0.1 -0.02 0.1 -0.02 0.11 -0.02 0.12 -0.02 0.12 0 0zm-0.19 3.68l-0.57 0.4 -0 -0 -0.07 -0.12 -0.06 -0.13 -0.05 -0.13 -0.04 -0.13 -0.03 -0.14 -0.03 -0.14 -0.02 -0.14 -0.01 -0.15 -0.01 -0.15 -0 -0.15 0 -0.15 0.01 -0.15 0.01 -0.15 0.01 -0.15 0.02 -0.15 0.02 -0.15 0.02 -0.15 0.02 -0.15 0.02 -0.14 0.03 -0.14 0.03 -0.14 0.03 -0.14 0.03 -0.13 0.03 -0.13 0.02 -0.12 0.02 -0.11 0.02 -0.11 0.02 -0.1 0.02 -0.09 0.01 -0.08 0.01 -0.07 0.01 -0.06 0.69 0.08 -0.01 0.08 -0.01 0.09 -0.02 0.09 -0.02 0.1 -0.02 0.11 -0.02 0.11 -0.02 0.12 -0.02 0.12 -0.03 0.12 -0.03 0.13 -0.03 0.13 -0.03 0.13 -0.02 0.14 -0.02 0.14 -0.02 0.14 -0.02 0.14 -0.02 0.14 -0.02 0.14 -0.01 0.14 -0.01 0.14 -0.01 0.13 -0 0.13 0 0.13 0.01 0.12 0.01 0.12 0.01 0.11 0.02 0.1 0.02 0.1 0.03 0.09 0.03 0.08 0.04 0.07 0.04 0.06 -0 -0zm2.23 4.43l-0.46 0.52 -0 0 -0.09 -0.09 -0.08 -0.1 -0.08 -0.11 -0.08 -0.12 -0.08 -0.13 -0.08 -0.14 -0.09 -0.15 -0.09 -0.16 -0.09 -0.17 -0.09 -0.17 -0.09 -0.18 -0.09 -0.18 -0.09 -0.19 -0.09 -0.19 -0.09 -0.19 -0.09 -0.19 -0.09 -0.19 -0.09 -0.19 -0.08 -0.18 -0.08 -0.18 -0.08 -0.18 -0.08 -0.17 -0.07 -0.16 -0.07 -0.15 -0.06 -0.14 -0.06 -0.13 -0.05 -0.12 -0.05 -0.1 -0.04 -0.09 -0.04 -0.07 -0.03 -0.05 -0.01 -0.02 0.57 -0.4 0.04 0.07 0.04 0.07 0.04 0.08 0.05 0.1 0.05 0.11 0.06 0.12 0.06 0.13 0.06 0.14 0.07 0.15 0.07 0.16 0.08 0.17 0.08 0.17 0.08 0.18 0.08 0.18 0.08 0.19 0.09 0.19 0.09 0.19 0.09 0.19 0.09 0.19 0.09 0.18 0.09 0.18 0.09 0.17 0.08 0.17 0.08 0.16 0.08 0.15 0.08 0.14 0.08 0.13 0.07 0.11 0.07 0.1 0.06 0.08 0.05 0.06 0.04 0.03 -0 0zm4.73 6.82l-0.68 -0.12 0.01 0.14 -0.02 -0.03 -0.05 -0.08 -0.07 -0.12 -0.09 -0.15 -0.11 -0.17 -0.13 -0.19 -0.14 -0.21 -0.16 -0.23 -0.17 -0.25 -0.18 -0.26 -0.19 -0.27 -0.2 -0.28 -0.2 -0.28 -0.21 -0.29 -0.21 -0.29 -0.21 -0.29 -0.21 -0.29 -0.21 -0.29 -0.2 -0.28 -0.2 -0.27 -0.19 -0.26 -0.18 -0.25 -0.17 -0.23 -0.16 -0.22 -0.15 -0.2 -0.14 -0.18 -0.12 -0.15 -0.1 -0.13 -0.08 -0.1 -0.06 -0.07 -0.01 -0.02 0.46 -0.52 0.07 0.07 0.07 0.09 0.09 0.11 0.11 0.14 0.12 0.16 0.14 0.18 0.15 0.2 0.16 0.22 0.18 0.24 0.18 0.25 0.19 0.26 0.2 0.27 0.2 0.28 0.21 0.29 0.21 0.29 0.21 0.29 0.21 0.29 0.21 0.29 0.2 0.29 0.2 0.28 0.19 0.27 0.18 0.26 0.17 0.25 0.16 0.23 0.15 0.22 0.13 0.2 0.12 0.18 0.1 0.16 0.08 0.13 0.06 0.12 0.05 0.11 0.03 0.22z"></path> </g> <path class="fil9" d="M14.51 28.03c0,0 0.81,-2.49 -1.57,-4.05 -0.14,0.35 -0.52,3.1 1.57,4.05z"></path> <g> <path class="fil4" d="M57.04 30.77l-0 0 0.08 -0.01 0.1 -0.02 0.12 -0.03 0.14 -0.04 0.15 -0.05 0.16 -0.06 0.18 -0.07 0.18 -0.07 0.19 -0.08 0.2 -0.08 0.2 -0.09 0.21 -0.09 0.21 -0.09 0.21 -0.09 0.21 -0.1 0.21 -0.1 0.21 -0.1 0.21 -0.1 0.2 -0.09 0.2 -0.09 0.19 -0.09 0.18 -0.09 0.17 -0.08 0.16 -0.08 0.15 -0.07 0.14 -0.06 0.13 -0.06 0.11 -0.05 0.1 -0.04 0.09 -0.03 0.08 -0.03 0.1 -0.02 0.07 0.69 0.02 -0 -0.04 0.01 -0.07 0.02 -0.09 0.04 -0.11 0.05 -0.12 0.05 -0.14 0.06 -0.15 0.07 -0.16 0.08 -0.17 0.08 -0.18 0.09 -0.19 0.09 -0.2 0.09 -0.2 0.1 -0.21 0.1 -0.21 0.1 -0.21 0.1 -0.22 0.1 -0.22 0.1 -0.21 0.09 -0.21 0.09 -0.21 0.09 -0.2 0.08 -0.2 0.08 -0.19 0.08 -0.18 0.07 -0.18 0.06 -0.17 0.06 -0.16 0.05 -0.15 0.04 -0.14 0.03 -0.13 0.02 -0 0 -0.06 -0.69zm-4.3 0.92l-0.01 0 0.08 -0.03 0.04 -0.01 0.06 -0.01 0.08 -0.02 0.09 -0.02 0.11 -0.02 0.12 -0.03 0.14 -0.03 0.15 -0.03 0.16 -0.03 0.17 -0.04 0.18 -0.04 0.18 -0.04 0.19 -0.04 0.19 -0.04 0.19 -0.04 0.19 -0.04 0.19 -0.04 0.19 -0.04 0.19 -0.04 0.18 -0.04 0.17 -0.04 0.16 -0.03 0.15 -0.03 0.14 -0.03 0.13 -0.03 0.12 -0.02 0.1 -0.02 0.08 -0.02 0.07 -0.01 0.05 -0.01 0.05 -0.01 0.06 0.69 0 0 -0.04 0.01 -0.06 0.01 -0.08 0.02 -0.1 0.02 -0.12 0.02 -0.13 0.03 -0.14 0.03 -0.15 0.03 -0.16 0.03 -0.17 0.04 -0.18 0.04 -0.19 0.04 -0.19 0.04 -0.19 0.04 -0.19 0.04 -0.19 0.04 -0.19 0.04 -0.19 0.04 -0.18 0.04 -0.18 0.04 -0.17 0.04 -0.16 0.03 -0.15 0.03 -0.14 0.03 -0.12 0.03 -0.11 0.02 -0.09 0.02 -0.07 0.02 -0.05 0.01 -0.03 0.01 0.05 -0.02 -0.01 0 -0.28 -0.63zm-5 1.31l-0 0 0.12 -0.06 0.13 -0.06 0.14 -0.06 0.15 -0.06 0.16 -0.05 0.16 -0.05 0.17 -0.05 0.18 -0.05 0.18 -0.05 0.19 -0.05 0.19 -0.05 0.19 -0.04 0.19 -0.04 0.19 -0.04 0.2 -0.04 0.19 -0.04 0.19 -0.04 0.19 -0.04 0.19 -0.04 0.18 -0.04 0.18 -0.04 0.17 -0.03 0.16 -0.03 0.16 -0.03 0.15 -0.03 0.14 -0.03 0.13 -0.03 0.12 -0.03 0.1 -0.03 0.09 -0.03 0.07 -0.02 0.05 -0.02 0.28 0.63 -0.09 0.04 -0.1 0.03 -0.11 0.03 -0.12 0.03 -0.13 0.03 -0.14 0.03 -0.15 0.03 -0.15 0.03 -0.16 0.03 -0.17 0.03 -0.17 0.03 -0.18 0.04 -0.18 0.04 -0.19 0.04 -0.19 0.04 -0.19 0.04 -0.19 0.04 -0.19 0.04 -0.19 0.04 -0.19 0.04 -0.19 0.04 -0.18 0.04 -0.18 0.04 -0.17 0.05 -0.17 0.05 -0.16 0.05 -0.15 0.05 -0.14 0.05 -0.13 0.05 -0.12 0.05 -0.1 0.05 -0.09 0.05 -0 0 -0.34 -0.61zm-2.76 0.48l0 0 0.03 -0 0.04 -0 0.06 -0.01 0.07 -0.01 0.08 -0.01 0.09 -0.01 0.09 -0.01 0.1 -0.01 0.1 -0.01 0.11 -0.02 0.11 -0.02 0.12 -0.02 0.12 -0.02 0.12 -0.02 0.12 -0.02 0.12 -0.02 0.12 -0.02 0.12 -0.02 0.12 -0.02 0.11 -0.02 0.11 -0.02 0.11 -0.02 0.1 -0.02 0.1 -0.02 0.09 -0.02 0.08 -0.02 0.07 -0.02 0.06 -0.02 0.05 -0.01 0.04 -0.01 0.02 -0.01 -0.01 0.01 0.34 0.61 -0.07 0.03 -0.06 0.02 -0.06 0.02 -0.07 0.02 -0.07 0.02 -0.08 0.02 -0.09 0.02 -0.09 0.02 -0.1 0.02 -0.1 0.02 -0.11 0.02 -0.12 0.02 -0.12 0.02 -0.12 0.02 -0.12 0.02 -0.12 0.02 -0.12 0.02 -0.12 0.02 -0.12 0.02 -0.12 0.02 -0.12 0.02 -0.12 0.02 -0.11 0.02 -0.11 0.02 -0.1 0.01 -0.1 0.01 -0.09 0.01 -0.09 0.01 -0.08 0.01 -0.07 0.01 -0.07 0 -0.06 0 0 0 0 -0.69zm-5.28 -2.52l0 0 0.06 0.07 0.08 0.08 0.1 0.09 0.11 0.09 0.13 0.1 0.14 0.1 0.15 0.1 0.17 0.11 0.18 0.11 0.18 0.11 0.19 0.11 0.2 0.11 0.2 0.11 0.21 0.11 0.21 0.1 0.21 0.1 0.21 0.1 0.21 0.1 0.21 0.09 0.21 0.09 0.21 0.08 0.2 0.08 0.2 0.07 0.19 0.07 0.18 0.06 0.17 0.05 0.16 0.05 0.15 0.04 0.14 0.03 0.12 0.02 0.1 0.01 0.08 0 0 0.69 -0.14 -0.01 -0.14 -0.02 -0.15 -0.03 -0.16 -0.03 -0.17 -0.04 -0.18 -0.05 -0.19 -0.06 -0.19 -0.06 -0.2 -0.07 -0.21 -0.08 -0.21 -0.08 -0.22 -0.09 -0.22 -0.09 -0.22 -0.1 -0.22 -0.1 -0.22 -0.1 -0.22 -0.1 -0.22 -0.11 -0.22 -0.11 -0.21 -0.11 -0.21 -0.11 -0.2 -0.11 -0.19 -0.11 -0.19 -0.11 -0.18 -0.11 -0.17 -0.11 -0.16 -0.11 -0.15 -0.11 -0.14 -0.11 -0.12 -0.11 -0.11 -0.11 -0.1 -0.11 0 0 0.54 -0.43zm-1.69 -2l-0 -0 0.03 0.06 0.03 0.06 0.04 0.06 0.04 0.06 0.04 0.06 0.05 0.07 0.05 0.06 0.05 0.06 0.05 0.07 0.05 0.07 0.05 0.07 0.06 0.06 0.06 0.07 0.06 0.07 0.06 0.06 0.06 0.07 0.06 0.07 0.06 0.06 0.06 0.06 0.06 0.06 0.06 0.06 0.06 0.06 0.06 0.06 0.06 0.06 0.06 0.06 0.06 0.06 0.06 0.06 0.05 0.06 0.05 0.06 0.05 0.06 0.05 0.06 0.05 0.06 -0.54 0.43 -0.04 -0.05 -0.04 -0.05 -0.05 -0.05 -0.05 -0.05 -0.05 -0.05 -0.05 -0.06 -0.05 -0.06 -0.06 -0.06 -0.06 -0.06 -0.06 -0.06 -0.06 -0.06 -0.06 -0.06 -0.06 -0.06 -0.06 -0.07 -0.06 -0.07 -0.06 -0.07 -0.06 -0.07 -0.06 -0.07 -0.06 -0.07 -0.06 -0.07 -0.06 -0.07 -0.06 -0.07 -0.06 -0.07 -0.06 -0.07 -0.06 -0.08 -0.06 -0.08 -0.05 -0.08 -0.05 -0.08 -0.05 -0.08 -0.05 -0.08 -0.04 -0.08 -0.04 -0.08 -0 -0 0.63 -0.3zm-9.36 -5.92l0 0 0.2 0.1 0.22 0.11 0.24 0.12 0.26 0.13 0.28 0.14 0.3 0.15 0.31 0.15 0.33 0.16 0.34 0.17 0.35 0.18 0.36 0.18 0.36 0.19 0.37 0.19 0.37 0.2 0.37 0.2 0.37 0.2 0.37 0.21 0.36 0.21 0.35 0.21 0.35 0.21 0.34 0.21 0.32 0.21 0.31 0.21 0.3 0.21 0.28 0.21 0.26 0.21 0.24 0.21 0.22 0.21 0.2 0.21 0.17 0.21 0.15 0.21 0.12 0.21 -0.63 0.3 -0.08 -0.14 -0.11 -0.16 -0.14 -0.17 -0.17 -0.18 -0.2 -0.19 -0.22 -0.19 -0.24 -0.2 -0.26 -0.2 -0.28 -0.2 -0.3 -0.2 -0.31 -0.21 -0.33 -0.21 -0.34 -0.21 -0.35 -0.21 -0.35 -0.2 -0.36 -0.2 -0.36 -0.2 -0.36 -0.2 -0.36 -0.19 -0.36 -0.19 -0.36 -0.19 -0.35 -0.18 -0.35 -0.17 -0.34 -0.17 -0.33 -0.16 -0.31 -0.15 -0.3 -0.14 -0.28 -0.14 -0.26 -0.13 -0.24 -0.12 -0.22 -0.11 -0.2 -0.1 0 0 0.3 -0.62zm-4.72 -3.53l0 0 0.15 0.09 0.15 0.1 0.16 0.1 0.16 0.11 0.16 0.11 0.16 0.12 0.16 0.12 0.17 0.13 0.17 0.13 0.17 0.13 0.17 0.13 0.17 0.14 0.17 0.14 0.17 0.14 0.17 0.14 0.16 0.14 0.16 0.13 0.16 0.13 0.16 0.13 0.16 0.13 0.15 0.12 0.15 0.12 0.14 0.11 0.14 0.11 0.13 0.1 0.13 0.1 0.12 0.09 0.12 0.08 0.11 0.07 0.1 0.06 0.09 0.05 0.08 0.04 -0.3 0.62 -0.11 -0.06 -0.12 -0.07 -0.12 -0.07 -0.12 -0.08 -0.13 -0.09 -0.13 -0.1 -0.14 -0.1 -0.14 -0.11 -0.14 -0.11 -0.15 -0.12 -0.15 -0.12 -0.15 -0.13 -0.16 -0.13 -0.16 -0.13 -0.16 -0.13 -0.16 -0.13 -0.16 -0.14 -0.16 -0.14 -0.17 -0.14 -0.16 -0.13 -0.16 -0.13 -0.16 -0.13 -0.16 -0.13 -0.16 -0.13 -0.16 -0.12 -0.16 -0.12 -0.16 -0.11 -0.15 -0.11 -0.15 -0.1 -0.15 -0.09 -0.14 -0.09 -0.14 -0.08 0 0 0.33 -0.61zm-0.55 -0.25l0.09 0 0.05 0.01 0.02 0 0.03 0.01 0.03 0.01 0.01 0.01 0.02 0.01 0.02 0.01 0.01 0.01 0.01 0.01 0.01 0.01 0.02 0.01 0.02 0.01 0.01 0.01 0.02 0.01 0.02 0.01 0.01 0.01 0.01 0.01 0.02 0.01 0.02 0.01 0.01 0 0.02 0.01 0.02 0.01 0.01 0 0.01 0.01 0.01 0 0.01 0.01 0.01 0.01 0.01 0 0.01 0.01 0 0 0 0 -0.33 0.61 -0.01 -0.01 -0.02 -0.01 -0.01 -0 -0.01 -0.01 -0.01 -0 -0.01 -0.01 -0.02 -0.01 -0.01 -0.01 -0.02 -0.01 -0.01 -0.01 -0.01 -0.01 -0.02 -0.01 -0.01 -0.01 -0.01 -0.01 -0.01 -0.01 -0.01 -0.01 -0.01 -0.01 -0.01 -0.01 -0.02 -0.01 -0.01 -0 -0.01 -0 -0.01 -0.01 -0.01 -0.01 -0.01 -0.01 0 0 -0 -0 -0.01 -0 0.01 0 0.01 0 0 0 0.04 0.01 0.08 0 -0.06 -0.69z"></path> </g> <g> <path class="fil4" d="M19.79 26.5l-0.07 0.69 -0 0 -0.17 -0.02 -0.18 -0.04 -0.2 -0.05 -0.21 -0.06 -0.22 -0.07 -0.24 -0.08 -0.25 -0.09 -0.26 -0.1 -0.27 -0.11 -0.27 -0.11 -0.28 -0.12 -0.29 -0.12 -0.29 -0.13 -0.29 -0.13 -0.29 -0.13 -0.29 -0.13 -0.29 -0.13 -0.28 -0.13 -0.28 -0.13 -0.27 -0.12 -0.26 -0.12 -0.25 -0.11 -0.23 -0.11 -0.22 -0.1 -0.2 -0.09 -0.19 -0.08 -0.17 -0.07 -0.14 -0.06 -0.12 -0.05 -0.09 -0.04 -0.06 -0.02 0.01 0 0.07 -0.69 0.12 0.02 0.1 0.03 0.11 0.04 0.13 0.06 0.15 0.07 0.17 0.08 0.19 0.09 0.21 0.1 0.22 0.1 0.23 0.11 0.25 0.12 0.26 0.12 0.27 0.12 0.27 0.13 0.28 0.13 0.28 0.13 0.29 0.13 0.29 0.13 0.29 0.13 0.29 0.13 0.28 0.12 0.28 0.12 0.27 0.11 0.26 0.1 0.25 0.1 0.24 0.09 0.22 0.08 0.21 0.07 0.19 0.06 0.17 0.04 0.14 0.03 0.11 0.02 -0 0zm5.76 1.23l-0.28 0.63 0 0 0.04 0.02 -0.04 -0.01 -0.07 -0.02 -0.1 -0.02 -0.12 -0.03 -0.15 -0.03 -0.17 -0.04 -0.18 -0.04 -0.2 -0.04 -0.22 -0.05 -0.23 -0.05 -0.24 -0.05 -0.25 -0.05 -0.25 -0.05 -0.26 -0.06 -0.26 -0.05 -0.26 -0.06 -0.26 -0.06 -0.25 -0.05 -0.25 -0.05 -0.24 -0.05 -0.23 -0.05 -0.22 -0.05 -0.21 -0.04 -0.19 -0.04 -0.18 -0.04 -0.16 -0.03 -0.14 -0.03 -0.11 -0.02 -0.08 -0.02 -0.06 -0.01 -0.01 -0 0.07 -0.69 0.06 0.01 0.07 0.01 0.09 0.02 0.11 0.02 0.14 0.03 0.16 0.03 0.18 0.04 0.19 0.04 0.21 0.04 0.22 0.05 0.23 0.05 0.24 0.05 0.25 0.05 0.25 0.05 0.26 0.06 0.26 0.05 0.26 0.06 0.26 0.06 0.25 0.05 0.25 0.05 0.24 0.05 0.23 0.05 0.22 0.05 0.2 0.04 0.18 0.04 0.17 0.04 0.15 0.03 0.13 0.03 0.1 0.02 0.08 0.02 0.05 0.01 0.08 0.02 0 0zm6.74 1.76l-0.34 0.6 0 0 -0.13 -0.07 -0.14 -0.07 -0.16 -0.07 -0.18 -0.07 -0.19 -0.07 -0.2 -0.07 -0.22 -0.06 -0.23 -0.06 -0.23 -0.06 -0.24 -0.06 -0.25 -0.06 -0.25 -0.06 -0.26 -0.06 -0.26 -0.06 -0.26 -0.05 -0.26 -0.05 -0.26 -0.05 -0.26 -0.05 -0.25 -0.05 -0.25 -0.05 -0.24 -0.05 -0.23 -0.05 -0.23 -0.05 -0.22 -0.05 -0.21 -0.04 -0.2 -0.04 -0.18 -0.04 -0.17 -0.04 -0.16 -0.04 -0.14 -0.04 -0.13 -0.04 -0.11 -0.05 0.28 -0.63 0.07 0.03 0.1 0.03 0.12 0.04 0.14 0.04 0.16 0.04 0.17 0.04 0.19 0.04 0.2 0.04 0.21 0.05 0.22 0.05 0.23 0.05 0.24 0.05 0.25 0.05 0.25 0.05 0.26 0.05 0.26 0.05 0.26 0.05 0.26 0.06 0.26 0.06 0.26 0.06 0.26 0.06 0.25 0.06 0.25 0.06 0.24 0.06 0.24 0.07 0.23 0.07 0.22 0.07 0.21 0.07 0.2 0.07 0.19 0.08 0.17 0.08 0.16 0.08 0 0zm3.78 0.66l0 0.69 0 0 -0.08 -0 -0.08 -0.01 -0.09 -0.01 -0.1 -0.01 -0.11 -0.01 -0.12 -0.02 -0.13 -0.02 -0.14 -0.02 -0.14 -0.02 -0.15 -0.02 -0.16 -0.02 -0.16 -0.03 -0.16 -0.03 -0.17 -0.03 -0.17 -0.03 -0.17 -0.03 -0.17 -0.03 -0.16 -0.03 -0.16 -0.03 -0.16 -0.03 -0.15 -0.03 -0.15 -0.03 -0.14 -0.03 -0.13 -0.03 -0.13 -0.03 -0.12 -0.03 -0.11 -0.03 -0.1 -0.03 -0.09 -0.02 -0.08 -0.02 -0.07 -0.03 -0.08 -0.04 0.34 -0.6 -0.01 -0 0.03 0.01 0.05 0.02 0.07 0.02 0.08 0.02 0.1 0.02 0.11 0.03 0.12 0.03 0.13 0.03 0.14 0.03 0.14 0.03 0.15 0.03 0.15 0.03 0.16 0.03 0.16 0.03 0.16 0.03 0.16 0.03 0.16 0.03 0.16 0.03 0.16 0.03 0.16 0.03 0.15 0.02 0.15 0.02 0.14 0.02 0.13 0.02 0.13 0.02 0.12 0.01 0.11 0.01 0.09 0.01 0.08 0.01 0.06 0 0.04 0 0 0zm7.22 -3.45l0.54 0.43 0 0 -0.12 0.14 -0.14 0.14 -0.16 0.14 -0.18 0.15 -0.2 0.15 -0.21 0.15 -0.23 0.15 -0.24 0.15 -0.25 0.15 -0.26 0.15 -0.27 0.15 -0.28 0.15 -0.28 0.15 -0.29 0.15 -0.29 0.14 -0.3 0.14 -0.3 0.14 -0.3 0.13 -0.3 0.13 -0.29 0.12 -0.29 0.12 -0.28 0.11 -0.28 0.1 -0.27 0.1 -0.26 0.09 -0.25 0.08 -0.24 0.07 -0.23 0.06 -0.21 0.05 -0.2 0.03 -0.19 0.02 -0.18 0.01 0 -0.69 0.12 -0.01 0.14 -0.02 0.17 -0.03 0.19 -0.04 0.21 -0.05 0.22 -0.06 0.24 -0.07 0.25 -0.08 0.26 -0.09 0.27 -0.1 0.27 -0.11 0.28 -0.11 0.28 -0.12 0.29 -0.13 0.29 -0.13 0.29 -0.13 0.29 -0.14 0.29 -0.14 0.28 -0.14 0.28 -0.15 0.27 -0.15 0.26 -0.15 0.25 -0.15 0.24 -0.15 0.23 -0.14 0.21 -0.14 0.19 -0.14 0.18 -0.13 0.16 -0.13 0.14 -0.12 0.11 -0.11 0.09 -0.1 0 0zm2.29 -2.72l0.63 0.3 0 0 -0.05 0.11 -0.06 0.11 -0.06 0.1 -0.06 0.1 -0.07 0.1 -0.07 0.1 -0.07 0.1 -0.08 0.1 -0.08 0.1 -0.08 0.1 -0.08 0.1 -0.08 0.1 -0.08 0.1 -0.08 0.09 -0.09 0.09 -0.09 0.09 -0.09 0.09 -0.09 0.09 -0.09 0.09 -0.08 0.09 -0.08 0.09 -0.08 0.08 -0.08 0.08 -0.08 0.08 -0.08 0.08 -0.07 0.08 -0.07 0.08 -0.07 0.07 -0.06 0.07 -0.06 0.07 -0.06 0.07 -0.05 0.06 -0.54 -0.43 0.06 -0.07 0.06 -0.08 0.07 -0.08 0.07 -0.08 0.07 -0.08 0.07 -0.08 0.08 -0.08 0.08 -0.08 0.08 -0.08 0.08 -0.08 0.08 -0.08 0.08 -0.08 0.08 -0.09 0.08 -0.09 0.08 -0.09 0.08 -0.09 0.08 -0.09 0.08 -0.09 0.08 -0.09 0.08 -0.09 0.08 -0.09 0.08 -0.09 0.07 -0.09 0.07 -0.09 0.07 -0.09 0.07 -0.09 0.06 -0.09 0.06 -0.09 0.05 -0.09 0.05 -0.09 0.05 -0.08 0.04 -0.08 0 0zm12.57 -7.93l0.3 0.62 0 0 -0.27 0.13 -0.3 0.14 -0.33 0.16 -0.36 0.17 -0.38 0.18 -0.4 0.2 -0.42 0.21 -0.44 0.22 -0.45 0.23 -0.47 0.24 -0.48 0.24 -0.48 0.25 -0.49 0.26 -0.49 0.26 -0.49 0.27 -0.49 0.27 -0.49 0.28 -0.48 0.28 -0.47 0.28 -0.46 0.28 -0.44 0.28 -0.43 0.28 -0.41 0.28 -0.38 0.28 -0.36 0.27 -0.33 0.27 -0.3 0.26 -0.27 0.25 -0.23 0.25 -0.19 0.23 -0.15 0.22 -0.11 0.2 -0.63 -0.3 0.15 -0.27 0.19 -0.27 0.23 -0.27 0.26 -0.27 0.29 -0.28 0.32 -0.28 0.35 -0.28 0.37 -0.28 0.4 -0.28 0.42 -0.29 0.44 -0.29 0.45 -0.29 0.46 -0.29 0.48 -0.28 0.48 -0.28 0.49 -0.28 0.5 -0.27 0.5 -0.27 0.5 -0.27 0.49 -0.26 0.49 -0.25 0.48 -0.24 0.47 -0.24 0.46 -0.23 0.44 -0.22 0.42 -0.21 0.4 -0.2 0.38 -0.18 0.36 -0.17 0.33 -0.16 0.3 -0.14 0.27 -0.13 0 0zm6.37 -4.77l0.34 0.61 -0 0 -0.18 0.11 -0.19 0.12 -0.2 0.13 -0.2 0.14 -0.21 0.14 -0.21 0.15 -0.21 0.16 -0.22 0.16 -0.22 0.17 -0.22 0.17 -0.22 0.18 -0.22 0.18 -0.22 0.18 -0.22 0.18 -0.22 0.18 -0.22 0.18 -0.22 0.18 -0.22 0.18 -0.21 0.18 -0.21 0.17 -0.21 0.17 -0.2 0.16 -0.2 0.16 -0.19 0.15 -0.19 0.14 -0.18 0.14 -0.18 0.13 -0.17 0.12 -0.16 0.11 -0.16 0.1 -0.15 0.09 -0.15 0.08 -0.3 -0.62 0.12 -0.06 0.13 -0.07 0.14 -0.09 0.15 -0.1 0.16 -0.11 0.17 -0.12 0.18 -0.13 0.18 -0.14 0.19 -0.15 0.19 -0.15 0.2 -0.16 0.2 -0.17 0.21 -0.17 0.21 -0.18 0.22 -0.18 0.22 -0.18 0.22 -0.18 0.22 -0.18 0.23 -0.18 0.23 -0.18 0.23 -0.18 0.23 -0.18 0.23 -0.18 0.22 -0.17 0.22 -0.17 0.22 -0.16 0.22 -0.16 0.22 -0.15 0.21 -0.14 0.21 -0.13 0.21 -0.13 0.2 -0.12 -0 0zm0.67 -0.32l-0.05 0.69 0.08 -0 0.02 -0.01 0.01 -0 0.02 -0.01 0 0 -0 0 -0.01 0.01 -0.01 0 -0.01 0.01 -0.01 0.01 -0.01 0.01 -0.01 0.01 -0.02 0.01 -0.02 0.01 -0.02 0.01 -0.02 0.01 -0.01 0.01 -0.02 0.01 -0.02 0.01 -0.02 0.01 -0.01 0.01 -0.02 0.01 -0.02 0.01 -0.02 0.01 -0.02 0.01 -0.01 0.01 -0.02 0.01 -0.02 0.01 -0.02 0.01 -0.01 0.01 -0.02 0.01 -0.01 0.01 -0.34 -0.61 0.01 -0 0 -0 0.01 -0.01 0.01 -0.01 0.01 -0.01 0.02 -0.01 0.02 -0.01 0.01 -0.01 0.01 -0.01 0.02 -0.01 0.02 -0.01 0.02 -0.01 0.02 -0.01 0.02 -0.01 0.02 -0.01 0.02 -0.01 0.02 -0.01 0.02 -0.01 0.02 -0.01 0.02 -0.01 0.02 -0.01 0.02 -0.01 0.02 -0.01 0.02 -0.01 0.02 -0.01 0.02 -0.01 0.02 -0.01 0.02 -0.01 0.04 -0.01 0.03 -0.01 0.04 -0.01 0.09 -0z"></path> </g> <path class="fil9" d="M50.75 39.78c0,0 -0.45,-6.88 -6.73,-6.07 -0.13,0.58 1.36,7.3 6.73,6.07z"></path> <path class="fil10" d="M40.71 9.54c0,0 -0.97,6.78 5.3,7.28 0.25,-0.54 0.17,-7.38 -5.3,-7.28z"></path> <path class="fil9" d="M45.51 16.77c0,0 5.2,-1.67 3.37,-6.34 -0.47,0.01 -5.35,2.45 -3.37,6.34z"></path> <path class="fil9" d="M54.43 31.54c0,0 3.38,-3 0.43,-5.93 -0.35,0.16 -3.23,3.64 -0.43,5.93z"></path> <path class="fil11" d="M58.15 30.97c0,0 -0.44,5.04 4.21,5.16 0.16,-0.41 -0.17,-5.45 -4.21,-5.16z"></path> <path class="fil12" d="M58.3 30.6c0,0 3.38,-3 0.43,-5.93 -0.35,0.16 -3.23,3.64 -0.43,5.93z"></path> <path class="fil9" d="M62.1 29.09c0,0 3.38,-3 0.43,-5.93 -0.35,0.16 -3.23,3.64 -0.43,5.93z"></path> <path class="fil13" d="M61.95 28.82c0,0 -0.22,2.52 2.1,2.58 0.08,-0.2 -0.09,-2.73 -2.1,-2.58z"></path> <path class="fil14" d="M23.26 11.99c0,0 -4.34,0.88 -3.28,4.81 0.38,0.03 4.53,-1.5 3.28,-4.81z"></path> <path class="fil15" d="M15.7 22.14c0,0 -2.66,-0.44 -2.9,2.03 0.21,0.1 2.9,0.13 2.9,-2.03z"></path> <path class="fil16" d="M13.29 24.01c0,0 -3.4,-2.25 -5.27,1 0.22,0.27 3.93,1.97 5.27,-1z"></path> <path class="fil17" d="M37.28 30.16c0,0 -0.77,-5.02 -5.33,-4.02 -0.06,0.43 1.47,5.27 5.33,4.02z"></path> <path class="fil18" d="M36.66 30.35c0,0 5.5,-0.71 4.53,-5.71 -0.47,-0.08 -5.79,1.46 -4.53,5.71z"></path> <path class="fil19" d="M23.73 33.88c0,0 2.73,1.89 4.31,-0.72 -0.18,-0.22 -3.16,-1.67 -4.31,0.72z"></path> <path class="fil20" d="M27.96 33.27c0,0 0.6,-3.91 -3.02,-4.23 -0.15,0.31 -0.14,4.26 3.02,4.23z"></path> <path class="fil9" d="M32.74 34.34c0,0 0.6,-3.91 -3.02,-4.23 -0.15,0.31 -0.14,4.26 3.02,4.23z"></path> <path class="fil21" d="M12.1 30.14c0,0 2.73,1.89 4.3,-0.72 -0.18,-0.22 -3.16,-1.67 -4.3,0.72z"></path> <path class="fil22" d="M16.29 32.19c0,0 2.73,1.89 4.31,-0.72 -0.18,-0.22 -3.16,-1.67 -4.31,0.72z"></path> <path class="fil9" d="M21.62 31.6c0,0 0.6,-3.91 -3.02,-4.23 -0.15,0.31 -0.14,4.26 3.02,4.23z"></path> <path class="fil23" d="M42.66 28.08c0,0 -2.27,3.98 1.52,5.83 0.29,-0.27 1.91,-4.55 -1.52,-5.83z"></path> <path class="fil24" d="M29.57 19.99c0,0 -5.85,3.56 -2.26,8.72 0.57,-0.15 5.81,-4.55 2.26,-8.72z"></path> <path class="fil9" d="M23.65 23.01c0,0 -1.87,-3.48 -4.96,-1.57 0.07,0.33 2.45,3.49 4.96,1.57z"></path> <path class="fil9" d="M19.12 12.19c0,0 -1.87,-3.48 -4.96,-1.57 0.07,0.33 2.45,3.49 4.96,1.57z"></path> <path class="fil9" d="M63.04 20.36c0,0 3.08,3.88 6.46,0.84 -0.16,-0.4 -3.79,-3.76 -6.46,-0.84z"></path> <path class="fil25" d="M52.51 16.34c0,0 -3.04,1.33 -1.64,4.04 0.28,-0.03 3.08,-1.81 1.64,-4.04z"></path> <path class="fil9" d="M50.81 20.26c0,0 3.01,2.56 5.19,-0.35 -0.18,-0.29 -3.55,-2.35 -5.19,0.35z"></path> <path class="fil26" d="M52.15 26.37c0,0 0.6,-3.91 -3.02,-4.23 -0.15,0.31 -0.14,4.26 3.02,4.23z"></path> <path class="fil27" d="M63.07 20.22c0,0 0.6,-3.91 -3.02,-4.23 -0.15,0.31 -0.14,4.26 3.02,4.23z"></path> <path class="fil28" d="M25.12 15.77c0,0 -3.04,1.33 -1.64,4.04 0.28,-0.03 3.08,-1.81 1.64,-4.04z"></path> <path class="fil9" d="M68.2 9.56c0,0 -2.58,-0.41 -3.75,2.18 0.37,0.08 3.14,0.03 3.75,-2.18z"></path> <path class="fil29" d="M62.2 9.31c0,0 -0.01,2.69 2.46,2.55 0.07,-0.22 -0.33,-2.88 -2.46,-2.55z"></path> <path class="fil30" d="M64.42 11.39c0,0 -1.69,3.71 1.81,5.05 0.23,-0.26 1.33,-4.19 -1.81,-5.05z"></path> <path class="fil9" d="M35.96 14.57c0,0 0.81,-2.49 -1.57,-4.05 -0.14,0.35 -0.52,3.1 1.57,4.05z"></path> <path class="fil31" d="M37.15 8.67c0,0 -2.66,-0.44 -2.9,2.03 0.21,0.1 2.9,0.13 2.9,-2.03z"></path> <path class="fil32" d="M34.74 10.54c0,0 -3.4,-2.25 -5.27,1 0.22,0.27 3.93,1.97 5.27,-1z"></path> <path class="fil9" d="M35.12 20.75c0,0 -1.87,-3.48 -4.96,-1.57 0.07,0.33 2.45,3.49 4.96,1.57z"></path> <path class="fil33" d="M35.08 20.8c0,0 1.68,-0.22 1.39,-1.75 -0.14,-0.02 -1.77,0.45 -1.39,1.75z"></path> <path class="fil34" d="M44.54 20.55c0,0 1.56,0.66 2.08,-0.81 -0.11,-0.09 -1.76,-0.51 -2.08,0.81z"></path> <path class="fil9" d="M55.16 22.72c0,0 -1.41,0.94 -0.47,2.18 0.14,-0.04 1.39,-1.19 0.47,-2.18z"></path> <path class="fil9" d="M50.36 30.45c0,0 -1.41,0.94 -0.47,2.18 0.14,-0.04 1.39,-1.19 0.47,-2.18z"></path> <path class="fil35" d="M32.78 34.32c0,0 -1.67,-0.3 -1.85,1.25 0.13,0.07 1.83,0.11 1.85,-1.25z"></path> <path class="fil36" d="M24.23 27.93c0,0 -1.67,-0.3 -1.85,1.25 0.13,0.07 1.83,0.11 1.85,-1.25z"></path> <path class="fil37" d="M17.6 26.2c0,0 -1.67,-0.3 -1.85,1.25 0.13,0.07 1.83,0.11 1.85,-1.25z"></path> <path class="fil9" d="M19.92 25.12c0,0 -0.37,1.66 1.17,1.9 0.07,-0.13 0.19,-1.82 -1.17,-1.9z"></path> <path class="fil9" d="M38.51 21.69c0,0 -0.29,1.67 1.26,1.85 0.07,-0.13 0.1,-1.83 -1.26,-1.85z"></path> <path class="fil38" d="M39.02 16.07c0,0 -1.6,2.91 1.15,4.21 0.2,-0.2 1.34,-3.31 -1.15,-4.21z"></path> <path class="fil9" d="M40.15 21.31c0,0 3.95,0.2 3.9,-3.43 -0.32,-0.11 -4.25,0.29 -3.9,3.43z"></path> <path class="fil39" d="M36.32 35.28c0,0 -1.67,-0.3 -1.85,1.25 0.13,0.07 1.83,0.11 1.85,-1.25z"></path> <path class="fil40" d="M44.47 26.15c0,0 2.55,1.7 3.96,-0.74 -0.17,-0.2 -2.94,-1.49 -3.96,0.74z"></path> <path class="fil41" d="M56.94 13.79c0,0 -3.04,1.33 -1.64,4.04 0.28,-0.03 3.08,-1.81 1.64,-4.04z"></path> <g> <path class="fil42" d="M66.42 71.25c-3.06,-8.01 -6.2,-8.81 -9.59,-10.7 -3.39,-1.89 -4.39,-2.6 -7.27,-3.28 -2.88,-0.69 -9.32,-1.7 -10.21,-1.7 -6.4,0 -9.87,4.31 -15.22,5.38 -3.24,0.65 -3.13,3.72 -8.39,5.23 -1.97,0.57 -6.04,5.07 -3.85,5.07l54.53 0.01z"></path> <path class="fil43" d="M66.42 71.25c-3.83,-7.49 -11.15,-7.05 -14.54,-8.46 -3.39,-1.42 -3.54,-2.47 -6.42,-2.98 -2.88,-0.51 -7.65,2.24 -11.29,2.24 -3.64,0 -4.83,-0.2 -9.49,0.81 -4.66,1.01 -3.82,4.68 -7.44,5.45 -3.62,0.78 -7.54,2.93 -5.35,2.93l54.53 0.01z"></path> <path class="fil44" d="M66.42 71.25c-1.74,-5.65 -5.21,-3.22 -8.6,-4.16 -3.39,-0.95 0.16,-1.81 -8.72,-2.98 -8.88,-1.17 -10,0.61 -14.83,1.09 -1.75,0.17 -5.34,1.14 -7.7,0.71 -4.7,-0.87 -7.02,3.05 -9.33,3.38 -3.62,0.52 -7.54,1.95 -5.35,1.95l54.53 0z"></path> <path class="fil45" d="M43.39 65.33c0.56,0.49 -0.89,0.29 -0.46,-0.24 0.09,-0.11 0.41,-0.06 0.39,0.09l0.08 0.15z"></path> <path class="fil45" d="M35.04 66.59c-0,0 0.1,0.31 0.01,0.5 -0.16,0.35 -0.55,0.57 -0.52,-0.32 0,-0.15 0.52,-0.22 0.51,-0.19z"></path> <path class="fil45" d="M47.72 65.73c0.43,0.51 -0.73,0.93 -0.61,0.07 0.02,-0.13 0.58,-0.1 0.61,-0.07z"></path> <path class="fil45" d="M43.41 57.71c0.56,0.49 -0.89,0.29 -0.46,-0.24 0.09,-0.11 0.41,-0.06 0.39,0.09l0.08 0.15z"></path> <path class="fil45" d="M35.06 58.97c-0,0 0.1,0.31 0.01,0.5 -0.16,0.35 -0.55,0.57 -0.52,-0.32 0.01,-0.15 0.52,-0.22 0.51,-0.19z"></path> <path class="fil45" d="M47.74 58.11c0.43,0.51 -0.73,0.93 -0.61,0.07 0.02,-0.13 0.58,-0.1 0.61,-0.07z"></path> <path class="fil45" d="M27.38 63.64c-0,0 0.1,0.31 0.01,0.5 -0.16,0.35 -0.55,0.57 -0.52,-0.32 0.01,-0.15 0.52,-0.22 0.51,-0.19z"></path> <path class="fil45" d="M42.28 61.61c-0,0 0.1,0.31 0.01,0.5 -0.16,0.35 -0.55,0.57 -0.52,-0.32 0.01,-0.15 0.52,-0.22 0.51,-0.19z"></path> <path class="fil45" d="M58.61 65.1c-0,0 0.1,0.31 0.01,0.5 -0.16,0.35 -0.55,0.57 -0.52,-0.32 0.01,-0.15 0.52,-0.22 0.51,-0.19z"></path> <path class="fil46" d="M47.21 61.45c0.98,1.17 -1.66,2.11 -1.38,0.16 0.04,-0.29 1.31,-0.22 1.38,-0.16z"></path> <path class="fil45" d="M53.55 59.32c0.43,0.51 -0.73,0.93 -0.61,0.07 0.02,-0.13 0.58,-0.1 0.61,-0.07z"></path> <path class="fil45" d="M21.74 69.17c0.43,0.51 -0.73,0.93 -0.61,0.07 0.02,-0.13 0.58,-0.1 0.61,-0.07z"></path> <path class="fil45" d="M29.84 68.99c0.43,0.51 -0.73,0.93 -0.61,0.07 0.02,-0.13 0.58,-0.1 0.61,-0.07z"></path> <path class="fil45" d="M37.52 59.66c0.56,0.49 -0.89,0.29 -0.46,-0.24 0.09,-0.11 0.41,-0.06 0.39,0.09l0.08 0.15z"></path> <path class="fil45" d="M39.4 68.48c0.56,0.49 -0.89,0.29 -0.46,-0.24 0.09,-0.11 0.41,-0.06 0.39,0.09l0.08 0.15z"></path> <path class="fil45" d="M51.08 68.86c0.56,0.49 -0.89,0.28 -0.46,-0.24 0.09,-0.11 0.41,-0.06 0.39,0.09l0.08 0.15z"></path> <path class="fil45" d="M60.04 69.96c0.56,0.49 -0.89,0.29 -0.46,-0.24 0.09,-0.11 0.41,-0.06 0.39,0.09l0.08 0.15z"></path> <path class="fil45" d="M54.18 66.32c0.56,0.49 -0.89,0.29 -0.46,-0.24 0.09,-0.11 0.41,-0.06 0.39,0.09l0.08 0.15z"></path> <path class="fil45" d="M45.63 68.16c0,0 0.05,0.15 0.01,0.25 -0.08,0.17 -0.28,0.28 -0.26,-0.16 0,-0.08 0.26,-0.11 0.26,-0.09z"></path> <path class="fil45" d="M33.8 62.73c-0,0 0.05,0.15 0,0.25 -0.08,0.17 -0.28,0.28 -0.26,-0.16 0,-0.08 0.26,-0.11 0.26,-0.09z"></path> <path class="fil45" d="M36.5 57.06c-0,0 0.05,0.15 0,0.25 -0.08,0.17 -0.28,0.28 -0.26,-0.16 0,-0.08 0.26,-0.11 0.26,-0.09z"></path> <path class="fil45" d="M25.19 61.1c-0,0 0.05,0.15 0,0.25 -0.08,0.17 -0.28,0.28 -0.26,-0.16 0,-0.08 0.26,-0.11 0.26,-0.09z"></path> <path class="fil45" d="M18.29 66.13c-0,0 0.05,0.15 0,0.25 -0.08,0.17 -0.28,0.28 -0.26,-0.16 0,-0.08 0.26,-0.11 0.26,-0.09z"></path> <path class="fil45" d="M13.38 68.62c-0,0 0.05,0.15 0.01,0.25 -0.08,0.17 -0.28,0.28 -0.26,-0.16 0,-0.08 0.26,-0.11 0.26,-0.09z"></path> <path class="fil45" d="M62.74 66.42c0,0 0.05,0.15 0.01,0.25 -0.08,0.17 -0.28,0.28 -0.26,-0.16 0,-0.08 0.26,-0.11 0.26,-0.09z"></path> <path class="fil45" d="M32.39 64.72c0,0 0.05,0.15 0.01,0.25 -0.08,0.17 -0.28,0.28 -0.26,-0.16 0,-0.08 0.26,-0.11 0.26,-0.09z"></path> <path class="fil45" d="M40.04 62.24c0,0 0.05,0.15 0.01,0.25 -0.08,0.17 -0.28,0.28 -0.26,-0.16 0,-0.08 0.26,-0.11 0.26,-0.09z"></path> <path class="fil45" d="M42.69 69.47c0.56,0.49 -0.89,0.29 -0.46,-0.24 0.09,-0.11 0.41,-0.06 0.39,0.09l0.08 0.15z"></path> <path class="fil45" d="M35.54 69.59c0.56,0.49 -0.89,0.28 -0.46,-0.24 0.09,-0.11 0.41,-0.06 0.39,0.09l0.08 0.15z"></path> <path class="fil45" d="M38.44 65.08c0.56,0.49 -0.89,0.29 -0.46,-0.24 0.09,-0.11 0.41,-0.06 0.39,0.09l0.08 0.15z"></path> <path class="fil45" d="M30.79 59.76c0.56,0.49 -0.89,0.29 -0.46,-0.24 0.09,-0.11 0.41,-0.06 0.39,0.09l0.08 0.15z"></path> <path class="fil45" d="M40.39 57.33c0.56,0.49 -0.89,0.29 -0.46,-0.24 0.09,-0.11 0.41,-0.06 0.39,0.09l0.08 0.15z"></path> <path class="fil45" d="M50.85 59.35c0.56,0.49 -0.89,0.29 -0.46,-0.24 0.09,-0.11 0.4,-0.06 0.39,0.09l0.08 0.15z"></path> <path class="fil45" d="M58.93 62.78c0.56,0.49 -0.89,0.29 -0.46,-0.24 0.09,-0.11 0.4,-0.06 0.39,0.09l0.08 0.15z"></path> <path class="fil45" d="M22.68 65.24c0.56,0.49 -0.89,0.29 -0.46,-0.24 0.09,-0.11 0.4,-0.06 0.39,0.09l0.08 0.15z"></path> <path class="fil45" d="M22.53 62.7c0.56,0.49 -0.89,0.29 -0.46,-0.24 0.09,-0.11 0.4,-0.06 0.39,0.09l0.08 0.15z"></path> <path class="fil45" d="M24.88 69c0.56,0.49 -0.89,0.28 -0.46,-0.24 0.09,-0.11 0.41,-0.06 0.39,0.09l0.08 0.15z"></path> <path class="fil45" d="M64.29 70.1c0.56,0.49 -0.89,0.29 -0.46,-0.24 0.09,-0.11 0.41,-0.06 0.39,0.09l0.08 0.15z"></path> <path class="fil45" d="M51.82 63.66c0.56,0.49 -0.89,0.28 -0.46,-0.24 0.09,-0.11 0.41,-0.06 0.39,0.09l0.08 0.15z"></path> <path class="fil45" d="M55.87 62.91c0.56,0.49 -0.89,0.29 -0.46,-0.24 0.09,-0.11 0.4,-0.06 0.39,0.09l0.08 0.15z"></path> <path class="fil45" d="M33.94 60.62c0.56,0.49 -0.89,0.28 -0.46,-0.24 0.09,-0.11 0.4,-0.06 0.39,0.09l0.08 0.15z"></path> <path class="fil45" d="M41.48 59.23c0.56,0.49 -0.89,0.28 -0.46,-0.24 0.09,-0.11 0.4,-0.06 0.39,0.09l0.08 0.15z"></path> <path class="fil45" d="M27.43 61.37c0.56,0.49 -0.89,0.29 -0.46,-0.24 0.09,-0.11 0.41,-0.06 0.39,0.09l0.08 0.15z"></path> <path class="fil45" d="M16.08 67.85c0.56,0.49 -0.89,0.29 -0.46,-0.24 0.09,-0.11 0.41,-0.06 0.39,0.09l0.08 0.15z"></path> <path class="fil47" d="M55.67 68.14c0.98,1.17 -1.66,2.11 -1.38,0.16 0.04,-0.29 1.31,-0.22 1.38,-0.16z"></path> <path class="fil48" d="M25.48 64.52c0.98,1.17 -1.66,2.11 -1.38,0.16 0.04,-0.29 1.31,-0.22 1.38,-0.16z"></path> <path class="fil49" d="M41.33 65.3c0.98,1.17 -1.66,2.11 -1.38,0.16 0.04,-0.29 1.31,-0.22 1.38,-0.16z"></path> <path class="fil50" d="M33.12 68.48c0.98,1.17 -1.66,2.11 -1.38,0.16 0.04,-0.29 1.31,-0.22 1.38,-0.16z"></path> <path class="fil51" d="M33.79 58.16c0.98,1.17 -1.66,2.11 -1.38,0.16 0.04,-0.29 1.31,-0.22 1.38,-0.16z"></path> <path class="fil52" d="M61.39 63.68c0.98,1.17 -1.66,2.11 -1.38,0.16 0.04,-0.29 1.31,-0.22 1.38,-0.16z"></path> <path class="fil53" d="M19.01 69.7c0.98,1.17 -1.66,2.11 -1.38,0.16 0.04,-0.29 1.31,-0.22 1.38,-0.16z"></path> <path class="fil54" d="M29.13 66.46c0.98,1.17 -1.66,2.11 -1.38,0.16 0.04,-0.29 1.31,-0.22 1.38,-0.16z"></path> <path class="fil55" d="M37.83 62.38c0.98,1.17 -1.65,2.11 -1.38,0.16 0.04,-0.29 1.31,-0.22 1.38,-0.16z"></path> <path class="fil56" d="M39.39 56.24c0.98,1.17 -1.66,2.11 -1.38,0.16 0.04,-0.29 1.31,-0.22 1.38,-0.16z"></path> <path class="fil57" d="M49.05 69.18c0.98,1.17 -1.66,2.11 -1.38,0.16 0.04,-0.29 1.31,-0.22 1.38,-0.16z"></path> <path class="fil58" d="M53.47 61.11c0.98,1.17 -1.66,2.11 -1.38,0.16 0.04,-0.29 1.31,-0.22 1.38,-0.16z"></path> </g> </g> </g> </g> <path class="fil59" d="M5.72 0l59.44 0c2.39,0 4.35,1.96 4.35,4.35l0 62.55c0,2.39 -1.96,4.35 -4.35,4.35l-52.78 0c-2.39,0 -4.35,-1.96 -4.35,-4.35l0 -36.51 -7.83 -10.98 -0.06 -16.14c-0.01,-2.39 3.18,-3.26 5.58,-3.26z"></path> </g> </svg> 