<?xml version="1.0" encoding="UTF-8"?> <!-- Creator: CorelDRAW 2020 (64-Bit) --> <svg xmlns="http://www.w3.org/2000/svg" xmlns:xlink="http://www.w3.org/1999/xlink" xmlns:xodm="http://www.corel.com/coreldraw/odm/2003" xml:space="preserve" width="13.5301mm" height="13.8687mm" style="shape-rendering:geometricPrecision; text-rendering:geometricPrecision; image-rendering:optimizeQuality; fill-rule:evenodd; clip-rule:evenodd" viewBox="0 0 99.93 102.43"> <defs> <style type="text/css"> <![CDATA[ .fil9 {fill:#6C391C} .fil1 {fill:#F9B23E} .fil0 {fill:#FFF2DE} .fil2 {fill:#FEFEFE;fill-rule:nonzero} .fil26 {fill:#6C391C;fill-rule:nonzero} .fil25 {fill:#835130;fill-rule:nonzero} .fil27 {fill:#A97650;fill-rule:nonzero} .fil5 {fill:#B23B38;fill-rule:nonzero} .fil6 {fill:#C94C43;fill-rule:nonzero} .fil24 {fill:#CF9370;fill-rule:nonzero} .fil4 {fill:white;fill-rule:nonzero} .fil10 {fill:#4F2411;fill-opacity:0.600000} .fil3 {fill:#CDE0FB;fill-opacity:0.721569} .fil8 {fill:url(#id0)} .fil7 {fill:url(#id1)} .fil14 {fill:url(#id2);fill-opacity:0.600000} .fil13 {fill:url(#id3);fill-opacity:0.600000} .fil17 {fill:url(#id4);fill-opacity:0.600000} .fil18 {fill:url(#id5);fill-opacity:0.600000} .fil21 {fill:url(#id6);fill-opacity:0.600000} .fil23 {fill:url(#id7);fill-opacity:0.600000} .fil12 {fill:url(#id8);fill-opacity:0.600000} .fil16 {fill:url(#id9);fill-opacity:0.600000} .fil11 {fill:url(#id10);fill-opacity:0.600000} .fil15 {fill:url(#id11);fill-opacity:0.600000} .fil20 {fill:url(#id12);fill-opacity:0.600000} .fil19 {fill:url(#id13);fill-opacity:0.600000} .fil22 {fill:url(#id14);fill-opacity:0.600000} ]]> </style> <linearGradient id="id0" gradientUnits="userSpaceOnUse" x1="55.21" y1="85.84" x2="55.42" y2="102.43"> <stop offset="0" style="stop-opacity:1; stop-color:#825130"></stop> <stop offset="0.301961" style="stop-opacity:1; stop-color:#84502F"></stop> <stop offset="1" style="stop-opacity:1; stop-color:#874F2E"></stop> </linearGradient> <radialGradient id="id1" gradientUnits="userSpaceOnUse" gradientTransform="matrix(1.79975E-17 -0.293921 0.999989 6.12317E-17 -36 107)" cx="55.31" cy="91.13" r="928.61" fx="55.31" fy="91.13"> <stop offset="0" style="stop-opacity:1; stop-color:#8C522E"></stop> <stop offset="1" style="stop-opacity:1; stop-color:#C4966F"></stop> </radialGradient> <linearGradient id="id2" gradientUnits="userSpaceOnUse" x1="51.42" y1="94.75" x2="53.75" y2="94.75"> <stop offset="0" style="stop-opacity:1; stop-color:#4F2411"></stop> <stop offset="1" style="stop-opacity:1; stop-color:#9E5B39"></stop> </linearGradient> <linearGradient id="id3" gradientUnits="userSpaceOnUse" xlink:href="#id2" x1="74.26" y1="93.63" x2="76.59" y2="93.63"> </linearGradient> <linearGradient id="id4" gradientUnits="userSpaceOnUse" xlink:href="#id2" x1="22.5" y1="92.42" x2="24.83" y2="92.42"> </linearGradient> <linearGradient id="id5" gradientUnits="userSpaceOnUse" xlink:href="#id2" x1="83.59" y1="101.09" x2="85.91" y2="101.09"> </linearGradient> <linearGradient id="id6" gradientUnits="userSpaceOnUse" xlink:href="#id2" x1="54.21" y1="81.7" x2="56.54" y2="81.7"> </linearGradient> <linearGradient id="id7" gradientUnits="userSpaceOnUse" xlink:href="#id2" x1="33.92" y1="88.71" x2="36.25" y2="88.71"> </linearGradient> <linearGradient id="id8" gradientUnits="userSpaceOnUse" xlink:href="#id2" x1="30.75" y1="98.84" x2="33.08" y2="98.84"> </linearGradient> <linearGradient id="id9" gradientUnits="userSpaceOnUse" xlink:href="#id2" x1="62.28" y1="84.46" x2="64.61" y2="84.46"> </linearGradient> <linearGradient id="id10" gradientUnits="userSpaceOnUse" xlink:href="#id2" x1="42.94" y1="89.2" x2="45.27" y2="89.2"> </linearGradient> <linearGradient id="id11" gradientUnits="userSpaceOnUse" xlink:href="#id2" x1="63.25" y1="99.34" x2="65.58" y2="99.34"> </linearGradient> <linearGradient id="id12" gradientUnits="userSpaceOnUse" xlink:href="#id2" x1="56.46" y1="90.55" x2="58.79" y2="90.55"> </linearGradient> <linearGradient id="id13" gradientUnits="userSpaceOnUse" xlink:href="#id2" x1="69" y1="96.42" x2="71.33" y2="96.42"> </linearGradient> <linearGradient id="id14" gradientUnits="userSpaceOnUse" xlink:href="#id2" x1="40.29" y1="100.34" x2="42.62" y2="100.34"> </linearGradient> </defs> <g id="Layer_x0020_1"> <metadata id="CorelCorpID_0Corel-Layer"></metadata> <path class="fil0" d="M36.48 14.04l57.2 0c3.44,0 6.25,2.81 6.25,6.25l0 75.88c0,3.44 -2.81,6.25 -6.25,6.25l-75.89 0c-3.44,0 -6.25,-2.81 -6.25,-6.25l0 -59.69 18.69 0c3.44,0 6.25,-2.81 6.25,-6.25l0 -16.19z"></path> <rect class="fil1" x="0" y="0" width="32.28" height="32.28" rx="6.25" ry="6.16"></rect> <path class="fil2" d="M10.98 23.56c-0.15,0 -0.28,-0.05 -0.38,-0.15 -0.1,-0.1 -0.15,-0.22 -0.15,-0.38l0 -1.25c0,-0.11 0.03,-0.26 0.09,-0.46 0.06,-0.19 0.2,-0.38 0.43,-0.56l2.73 -2.69c1.01,-0.78 1.84,-1.44 2.48,-1.99 0.64,-0.55 1.11,-1.05 1.42,-1.49 0.31,-0.45 0.46,-0.88 0.46,-1.29 0,-0.54 -0.15,-0.99 -0.45,-1.33 -0.3,-0.35 -0.77,-0.52 -1.43,-0.52 -0.44,0 -0.82,0.09 -1.13,0.28 -0.31,0.19 -0.54,0.43 -0.7,0.74 -0.16,0.31 -0.27,0.63 -0.34,0.98 -0.04,0.18 -0.13,0.31 -0.25,0.38 -0.12,0.07 -0.26,0.1 -0.42,0.1l-2.21 0c-0.14,0 -0.25,-0.04 -0.33,-0.12 -0.08,-0.08 -0.12,-0.19 -0.12,-0.31 0.01,-0.64 0.15,-1.24 0.41,-1.81 0.26,-0.57 0.62,-1.08 1.09,-1.52 0.47,-0.44 1.04,-0.8 1.71,-1.05 0.67,-0.26 1.42,-0.39 2.27,-0.39 1.17,0 2.15,0.19 2.94,0.57 0.79,0.38 1.39,0.91 1.79,1.57 0.4,0.67 0.6,1.44 0.6,2.31 0,0.67 -0.14,1.29 -0.41,1.86 -0.27,0.57 -0.66,1.12 -1.17,1.64 -0.51,0.52 -1.12,1.06 -1.84,1.62l-2.44 2.46 5.65 0c0.15,0 0.28,0.05 0.38,0.15 0.1,0.1 0.15,0.22 0.15,0.38l0 1.77c0,0.15 -0.05,0.28 -0.15,0.38 -0.1,0.1 -0.22,0.15 -0.38,0.15l-10.32 0z"></path> <g id="_1634460033392"> <path class="fil3" d="M22.58 101.02l14.5 -0.32c7.57,-5.33 11.75,-5.58 19.7,-10.8l7.7 -1.45c3.11,-2.04 10.63,4.7 13.68,2.73 -7.75,-3.07 -17.46,-10.62 -20.97,-17.72 -2.1,-4.25 -7.22,-20.58 -6.21,-25.91l-0.21 -0.95c0,0 -0.76,0.74 -2.02,2.12 -16.79,15.24 -21.01,30.28 -26.18,52.3z"></path> <path class="fil4" d="M46.59 55.11c0,0 -17.45,23.8 -17.61,40.62 0,0 -0.55,-12.41 17.61,-40.62z"></path> <path class="fil4" d="M44.26 67.44c0,0 -2.44,20.75 3.71,29.97 0,0 -7.64,-3.87 -3.71,-29.97z"></path> <path class="fil4" d="M51.05 62.45c0,0 0.96,12.86 3.04,16.74 0,0 -3.73,-4.64 -3.04,-16.74z"></path> <g> <path class="fil5" d="M72.14 45.43c-0.61,-0.25 -1.23,-0.52 -1.88,-0.82 -10.56,-4.92 -19.37,3.49 -19.37,3.49 -0.15,-0.23 -0.23,-0.46 -0.27,-0.68 1.23,-1.19 5.92,-5.27 12.65,-5.46 7.89,-0.22 9.47,0.58 8.87,3.47z"></path> <path class="fil6" d="M76.29 31.91l-3.2 2.08c-0.87,0.56 -1.17,1.68 -0.75,2.6l-0.34 0.22c-2.34,-4.63 -1.56,-9.9 2.01,-12.22 0.5,-0.33 1.03,-0.58 1.58,-0.76 1.74,-0.57 3.68,-0.45 5.55,0.28 1.77,0.69 3.47,1.91 4.85,3.6l-0.47 0.31c-0.66,-0.76 -1.81,-0.94 -2.68,-0.37l-3.2 2.08c-0.4,-0.61 -1.12,-0.89 -1.79,-0.76 -0.21,0.04 -0.42,0.12 -0.62,0.25l-0.44 0.29c-0.8,0.52 -1.03,1.61 -0.51,2.41zm17.64 2.89l-4.46 -6.86c-0.58,-0.89 -1.74,-1.2 -2.68,-0.74 -1.37,-1.71 -3.05,-2.98 -4.83,-3.77 -1.88,-0.83 -3.86,-1.1 -5.7,-0.75 -0.97,0.19 -1.9,0.56 -2.76,1.11 -4,2.6 -4.9,8.44 -2.29,13.51l-0.22 0.14c0,0 -0.75,0.09 -1.99,0.32 -3.92,0.74 -12.75,2.96 -18.18,8.5 0,0 -0.31,0.49 -0.21,1.14 0.03,0.21 0.11,0.44 0.27,0.68 0,0 8.81,-8.41 19.37,-3.49 0.65,0.3 1.27,0.57 1.88,0.82l1.22 1.88c2.02,3.11 6.22,4 9.33,1.98l7.85 -5.1 1.63 -1.06c2.77,-1.8 3.56,-5.54 1.76,-8.31z"></path> <path class="fil5" d="M92.17 43.12l-1.63 1.06c2.38,-1.96 -2.07,-7.46 -4.77,-11.15 -2.69,-3.68 -5.26,-1.28 -5.26,-1.28 -0.92,-1.23 -2.34,-0.88 -2.34,-0.88 -0.32,-1.29 -1.37,-1.37 -1.37,-1.37l0.44 -0.29c0.19,-0.12 0.4,-0.21 0.62,-0.25 0.68,-0.13 1.4,0.15 1.79,0.76l3.2 -2.08c0.87,-0.56 2.01,-0.38 2.68,0.37l0.47 -0.31c-1.38,-1.68 -3.07,-2.91 -4.85,-3.6 -1.87,-0.72 -3.81,-0.85 -5.55,-0.28 0.24,-0.28 0.48,-0.65 0.66,-1.14 1.84,-0.36 3.82,-0.08 5.7,0.75 1.78,0.78 3.46,2.06 4.83,3.77 0.93,-0.46 2.09,-0.16 2.68,0.74l4.46 6.86c1.8,2.77 1.01,6.51 -1.76,8.31z"></path> </g> <path class="fil7" d="M15.57 102.43c4.41,-11.54 8.94,-12.69 13.82,-15.42 4.88,-2.72 6.33,-3.74 10.47,-4.73 4.15,-0.99 13.44,-2.45 14.71,-2.45 9.22,0 14.22,6.22 21.94,7.76 4.67,0.93 4.52,5.36 12.1,7.53 2.84,0.81 8.71,7.3 5.55,7.3l-78.59 0.01z"></path> <path class="fil8" d="M15.57 102.43c5.52,-10.79 16.08,-10.15 20.96,-12.19 4.88,-2.04 5.1,-3.56 9.25,-4.3 4.15,-0.74 11.03,3.23 16.27,3.23 5.25,0 6.96,-0.28 13.68,1.17 6.72,1.46 5.5,6.74 10.72,7.86 5.21,1.12 10.87,4.22 7.71,4.22l-78.59 0.01z"></path> <path class="fil9" d="M15.57 102.43c2.5,-8.14 7.52,-4.64 12.4,-6 4.88,-1.36 -0.23,-2.6 12.56,-4.29 12.79,-1.69 14.42,0.88 21.37,1.57 2.52,0.25 7.7,1.64 11.1,1.02 6.78,-1.25 10.12,4.4 13.44,4.88 5.21,0.75 10.87,2.82 7.71,2.82l-78.59 0.01z"></path> <path class="fil10" d="M48.76 93.91c-0.81,0.71 1.28,0.41 0.67,-0.34 -0.13,-0.16 -0.58,-0.09 -0.56,0.12l-0.11 0.21z"></path> <path class="fil10" d="M60.79 95.72c0,0 -0.15,0.44 -0.01,0.73 0.23,0.5 0.79,0.82 0.75,-0.46 -0.01,-0.22 -0.75,-0.31 -0.74,-0.27z"></path> <path class="fil10" d="M42.52 94.48c-0.62,0.74 1.05,1.34 0.87,0.1 -0.03,-0.19 -0.83,-0.14 -0.87,-0.1z"></path> <path class="fil10" d="M48.74 82.93c-0.81,0.71 1.28,0.41 0.67,-0.34 -0.13,-0.16 -0.58,-0.09 -0.56,0.12l-0.11 0.21z"></path> <path class="fil10" d="M60.77 84.74c0,0 -0.15,0.44 -0.01,0.73 0.23,0.5 0.79,0.82 0.75,-0.46 -0.01,-0.22 -0.75,-0.31 -0.74,-0.27z"></path> <path class="fil10" d="M42.5 83.51c-0.62,0.74 1.05,1.34 0.87,0.1 -0.03,-0.19 -0.83,-0.14 -0.87,-0.1z"></path> <path class="fil10" d="M71.83 91.47c0,0 -0.15,0.44 -0.01,0.73 0.23,0.5 0.79,0.82 0.75,-0.46 -0.01,-0.22 -0.75,-0.31 -0.74,-0.27z"></path> <path class="fil10" d="M50.37 88.55c0,0 -0.14,0.44 -0.01,0.73 0.23,0.5 0.79,0.82 0.75,-0.46 -0.01,-0.22 -0.75,-0.31 -0.74,-0.27z"></path> <path class="fil10" d="M26.83 93.58c0,0 -0.15,0.44 -0.01,0.73 0.23,0.5 0.79,0.82 0.75,-0.46 -0.01,-0.22 -0.75,-0.31 -0.74,-0.27z"></path> <path class="fil11" d="M43.25 88.31c-1.41,1.68 2.38,3.04 1.98,0.23 -0.06,-0.42 -1.89,-0.31 -1.98,-0.23z"></path> <path class="fil10" d="M34.13 85.24c-0.62,0.74 1.05,1.34 0.87,0.1 -0.03,-0.19 -0.83,-0.14 -0.87,-0.1z"></path> <path class="fil10" d="M79.97 99.44c-0.62,0.74 1.05,1.34 0.87,0.1 -0.03,-0.19 -0.83,-0.14 -0.87,-0.1z"></path> <path class="fil10" d="M68.3 99.19c-0.62,0.74 1.05,1.34 0.87,0.1 -0.03,-0.19 -0.83,-0.14 -0.87,-0.1z"></path> <path class="fil10" d="M57.22 85.74c-0.81,0.71 1.28,0.41 0.67,-0.34 -0.13,-0.16 -0.58,-0.09 -0.56,0.13l-0.11 0.21z"></path> <path class="fil10" d="M54.51 98.45c-0.81,0.71 1.28,0.41 0.67,-0.34 -0.13,-0.16 -0.58,-0.09 -0.56,0.13l-0.11 0.21z"></path> <path class="fil10" d="M37.68 99c-0.81,0.71 1.28,0.41 0.67,-0.34 -0.13,-0.16 -0.58,-0.09 -0.56,0.13l-0.11 0.21z"></path> <path class="fil10" d="M24.77 100.58c-0.81,0.71 1.28,0.41 0.67,-0.34 -0.13,-0.16 -0.58,-0.09 -0.56,0.12l-0.11 0.21z"></path> <path class="fil10" d="M33.21 95.33c-0.81,0.71 1.28,0.41 0.67,-0.34 -0.13,-0.16 -0.58,-0.09 -0.56,0.12l-0.11 0.21z"></path> <path class="fil10" d="M45.53 97.99c0,0 -0.07,0.22 -0.01,0.36 0.12,0.25 0.4,0.41 0.38,-0.23 -0,-0.11 -0.38,-0.16 -0.37,-0.13z"></path> <path class="fil10" d="M62.58 90.16c0,0 -0.07,0.22 -0.01,0.36 0.12,0.25 0.4,0.41 0.38,-0.23 -0,-0.11 -0.38,-0.16 -0.37,-0.13z"></path> <path class="fil10" d="M58.69 81.99c0,0 -0.07,0.22 -0.01,0.36 0.12,0.25 0.4,0.41 0.38,-0.23 -0,-0.11 -0.38,-0.16 -0.37,-0.13z"></path> <path class="fil10" d="M74.99 87.81c0,0 -0.07,0.22 -0.01,0.36 0.12,0.25 0.4,0.41 0.37,-0.23 -0,-0.11 -0.38,-0.16 -0.37,-0.13z"></path> <path class="fil10" d="M84.94 95.06c0,0 -0.07,0.22 -0.01,0.36 0.12,0.25 0.4,0.41 0.37,-0.23 -0,-0.11 -0.38,-0.16 -0.37,-0.13z"></path> <path class="fil10" d="M92.01 98.64c0,0 -0.07,0.22 -0.01,0.36 0.12,0.25 0.4,0.41 0.38,-0.23 -0,-0.11 -0.38,-0.16 -0.37,-0.13z"></path> <path class="fil10" d="M20.87 95.48c0,0 -0.07,0.22 -0.01,0.36 0.12,0.25 0.4,0.41 0.38,-0.23 -0,-0.11 -0.38,-0.16 -0.37,-0.13z"></path> <path class="fil10" d="M64.62 93.03c0,0 -0.07,0.22 -0.01,0.36 0.12,0.25 0.4,0.41 0.38,-0.23 -0,-0.11 -0.38,-0.16 -0.37,-0.13z"></path> <path class="fil10" d="M53.59 89.45c0,0 -0.07,0.22 -0.01,0.36 0.12,0.25 0.4,0.41 0.38,-0.23 -0,-0.11 -0.38,-0.16 -0.37,-0.13z"></path> <path class="fil10" d="M49.77 99.87c-0.81,0.71 1.28,0.41 0.67,-0.34 -0.13,-0.16 -0.58,-0.09 -0.56,0.12l-0.11 0.21z"></path> <path class="fil10" d="M60.07 100.04c-0.81,0.71 1.28,0.41 0.67,-0.34 -0.13,-0.16 -0.58,-0.09 -0.56,0.12l-0.11 0.21z"></path> <path class="fil10" d="M55.89 93.54c-0.81,0.71 1.28,0.41 0.67,-0.34 -0.13,-0.16 -0.58,-0.09 -0.56,0.12l-0.11 0.21z"></path> <path class="fil10" d="M66.92 85.87c-0.81,0.71 1.28,0.41 0.67,-0.34 -0.13,-0.16 -0.58,-0.09 -0.56,0.12l-0.11 0.21z"></path> <path class="fil10" d="M53.08 82.37c-0.81,0.71 1.28,0.41 0.67,-0.34 -0.13,-0.16 -0.58,-0.09 -0.56,0.12l-0.11 0.21z"></path> <path class="fil10" d="M38.01 85.29c-0.81,0.71 1.28,0.41 0.67,-0.34 -0.13,-0.16 -0.58,-0.09 -0.56,0.12l-0.11 0.21z"></path> <path class="fil10" d="M26.36 90.24c-0.81,0.71 1.28,0.41 0.67,-0.34 -0.13,-0.16 -0.58,-0.09 -0.56,0.12l-0.11 0.21z"></path> <path class="fil10" d="M78.6 93.78c-0.81,0.71 1.28,0.41 0.67,-0.34 -0.13,-0.16 -0.58,-0.09 -0.56,0.12l-0.11 0.21z"></path> <path class="fil10" d="M78.82 90.11c-0.81,0.71 1.28,0.41 0.67,-0.34 -0.13,-0.16 -0.58,-0.09 -0.56,0.12l-0.11 0.21z"></path> <path class="fil10" d="M75.43 99.2c-0.81,0.71 1.28,0.41 0.67,-0.34 -0.13,-0.16 -0.58,-0.09 -0.56,0.12l-0.11 0.21z"></path> <path class="fil10" d="M18.64 100.78c-0.81,0.71 1.28,0.41 0.67,-0.34 -0.13,-0.16 -0.58,-0.09 -0.56,0.12l-0.11 0.21z"></path> <path class="fil10" d="M36.61 91.5c-0.81,0.71 1.28,0.41 0.67,-0.34 -0.13,-0.16 -0.58,-0.09 -0.56,0.12l-0.11 0.21z"></path> <path class="fil10" d="M30.77 90.42c-0.81,0.71 1.28,0.41 0.67,-0.34 -0.13,-0.16 -0.58,-0.09 -0.56,0.13l-0.11 0.21z"></path> <path class="fil10" d="M62.38 87.12c-0.81,0.71 1.28,0.41 0.67,-0.34 -0.13,-0.16 -0.58,-0.09 -0.56,0.13l-0.11 0.21z"></path> <path class="fil10" d="M51.51 85.12c-0.81,0.71 1.28,0.41 0.67,-0.34 -0.13,-0.16 -0.58,-0.09 -0.56,0.12l-0.11 0.21z"></path> <path class="fil10" d="M71.76 88.2c-0.81,0.71 1.28,0.41 0.67,-0.34 -0.13,-0.16 -0.58,-0.09 -0.56,0.13l-0.11 0.21z"></path> <path class="fil10" d="M88.13 97.53c-0.81,0.71 1.28,0.41 0.67,-0.34 -0.13,-0.16 -0.58,-0.09 -0.56,0.12l-0.11 0.21z"></path> <path class="fil12" d="M31.07 97.95c-1.41,1.68 2.38,3.04 1.98,0.23 -0.06,-0.42 -1.89,-0.31 -1.98,-0.23z"></path> <path class="fil13" d="M74.57 92.74c-1.41,1.68 2.39,3.04 1.98,0.23 -0.06,-0.42 -1.89,-0.31 -1.98,-0.23z"></path> <path class="fil14" d="M51.73 93.87c-1.41,1.68 2.39,3.04 1.98,0.23 -0.06,-0.42 -1.89,-0.31 -1.98,-0.23z"></path> <path class="fil15" d="M63.57 98.45c-1.41,1.68 2.38,3.04 1.98,0.23 -0.06,-0.42 -1.89,-0.31 -1.98,-0.23z"></path> <path class="fil16" d="M62.59 83.57c-1.41,1.68 2.39,3.03 1.98,0.23 -0.06,-0.42 -1.89,-0.31 -1.98,-0.23z"></path> <path class="fil17" d="M22.82 91.54c-1.41,1.68 2.38,3.04 1.98,0.23 -0.06,-0.42 -1.89,-0.31 -1.98,-0.23z"></path> <path class="fil18" d="M83.9 100.2c-1.41,1.68 2.39,3.04 1.98,0.23 -0.06,-0.42 -1.89,-0.31 -1.98,-0.23z"></path> <path class="fil19" d="M69.32 95.54c-1.41,1.68 2.38,3.04 1.98,0.23 -0.06,-0.42 -1.89,-0.31 -1.98,-0.23z"></path> <path class="fil20" d="M56.78 89.66c-1.41,1.68 2.39,3.03 1.98,0.23 -0.06,-0.42 -1.89,-0.31 -1.98,-0.23z"></path> <path class="fil21" d="M54.52 80.81c-1.41,1.68 2.38,3.04 1.98,0.23 -0.06,-0.42 -1.89,-0.31 -1.98,-0.23z"></path> <path class="fil22" d="M40.61 99.45c-1.41,1.68 2.39,3.04 1.98,0.23 -0.06,-0.42 -1.89,-0.31 -1.98,-0.23z"></path> <path class="fil23" d="M34.23 87.83c-1.41,1.68 2.39,3.04 1.98,0.23 -0.06,-0.42 -1.89,-0.31 -1.98,-0.23z"></path> <path class="fil24" d="M40.96 94.97c2.82,3.68 6.74,3.96 10.26,3.7 7.11,-0.52 10.91,-12.1 10.8,-14.61 -0.11,-2.51 -0.08,-2.22 -1.08,-3.23 -0.82,-0.83 -12.99,-0.14 -16.49,1.74 -4.64,2.5 -6.46,8.54 -3.5,12.41z"></path> <path class="fil25" d="M60.84 81.79c-1.11,-1.4 -12.25,-0.07 -15.54,1.68 -4.38,2.32 -6.03,7.52 -3.23,11.11 3.29,4.23 8.51,4.05 12.68,1.65 4.04,-2.33 7.98,-12.08 6.1,-14.44z"></path> <path class="fil26" d="M42.03 94.42c1.07,1.37 2.34,2.28 3.71,2.8 -0.3,-0.3 -0.6,-0.62 -0.88,-0.98 -2.79,-3.59 -1.14,-8.79 3.23,-11.11 2.48,-1.32 9.41,-2.39 13.16,-2.25 -0.06,-0.52 -0.21,-0.94 -0.45,-1.25 -1.11,-1.39 -12.25,-0.07 -15.54,1.68 -4.37,2.32 -6.03,7.52 -3.23,11.11z"></path> <path class="fil27" d="M58.75 85.34c0.06,0.02 0.12,0.04 0.16,0.09 0.14,0.13 0.14,0.33 0.13,0.48 -0.17,1.51 -1.02,2.64 -1.85,3.71 -0.86,1.12 -1.72,2.23 -2.58,3.35 -0.41,0.53 -1.75,2.06 -2.95,1.71 -0.26,-0.08 -0.52,-0.24 -0.75,-0.53 -0.44,-0.54 -0.13,-1.18 0.23,-1.57 1.8,-1.95 4.09,-3.41 5.51,-5.71 0.47,-0.76 0.99,-1.69 1.99,-1.56 0.04,0 0.08,0.01 0.11,0.02z"></path> </g> </g> </svg> 