<?xml version="1.0" encoding="UTF-8"?> <!-- Creator: CorelDRAW 2020 (64-Bit) --> <svg xmlns="http://www.w3.org/2000/svg" xmlns:xlink="http://www.w3.org/1999/xlink" xmlns:xodm="http://www.corel.com/coreldraw/odm/2003" xml:space="preserve" width="13.5304mm" height="13.8687mm" style="shape-rendering:geometricPrecision; text-rendering:geometricPrecision; image-rendering:optimizeQuality; fill-rule:evenodd; clip-rule:evenodd" viewBox="0 0 128.65 131.87"> <defs> <style type="text/css"> <![CDATA[ .fil5 {fill:#6C391C} .fil1 {fill:#F9B23E} .fil0 {fill:#FFF2DE} .fil2 {fill:#FEFEFE;fill-rule:nonzero} .fil19 {fill:#6C391C;fill-rule:nonzero} .fil18 {fill:#835130;fill-rule:nonzero} .fil20 {fill:#A97650;fill-rule:nonzero} .fil17 {fill:#CF9370;fill-rule:nonzero} .fil6 {fill:#4F2411;fill-opacity:0.600000} .fil4 {fill:url(#id0)} .fil3 {fill:url(#id1)} .fil11 {fill:url(#id2);fill-opacity:0.600000} .fil8 {fill:url(#id3);fill-opacity:0.600000} .fil12 {fill:url(#id4);fill-opacity:0.600000} .fil15 {fill:url(#id5);fill-opacity:0.600000} .fil13 {fill:url(#id6);fill-opacity:0.600000} .fil7 {fill:url(#id7);fill-opacity:0.600000} .fil14 {fill:url(#id8);fill-opacity:0.600000} .fil16 {fill:url(#id9);fill-opacity:0.600000} .fil10 {fill:url(#id10);fill-opacity:0.600000} .fil9 {fill:url(#id11);fill-opacity:0.600000} ]]> </style> <linearGradient id="id0" gradientUnits="userSpaceOnUse" x1="71.69" y1="114.28" x2="71.79" y2="131.87"> <stop offset="0" style="stop-opacity:1; stop-color:#825130"></stop> <stop offset="0.301961" style="stop-opacity:1; stop-color:#84502F"></stop> <stop offset="1" style="stop-opacity:1; stop-color:#874F2E"></stop> </linearGradient> <radialGradient id="id1" gradientUnits="userSpaceOnUse" gradientTransform="matrix(1.73911E-17 -0.284018 0.999993 6.12319E-17 -43 135)" cx="71.75" cy="114.73" r="799.97" fx="71.75" fy="114.73"> <stop offset="0" style="stop-opacity:1; stop-color:#8C522E"></stop> <stop offset="1" style="stop-opacity:1; stop-color:#C4966F"></stop> </radialGradient> <linearGradient id="id2" gradientUnits="userSpaceOnUse" x1="83.11" y1="127.13" x2="86.45" y2="127.13"> <stop offset="0" style="stop-opacity:1; stop-color:#4F2411"></stop> <stop offset="1" style="stop-opacity:1; stop-color:#9E5B39"></stop> </linearGradient> <linearGradient id="id3" gradientUnits="userSpaceOnUse" xlink:href="#id2" x1="36.59" y1="126.37" x2="39.93" y2="126.37"> </linearGradient> <linearGradient id="id4" gradientUnits="userSpaceOnUse" xlink:href="#id2" x1="24.79" y1="116.55" x2="28.12" y2="116.55"> </linearGradient> <linearGradient id="id5" gradientUnits="userSpaceOnUse" xlink:href="#id2" x1="50.25" y1="128.66" x2="53.58" y2="128.66"> </linearGradient> <linearGradient id="id6" gradientUnits="userSpaceOnUse" xlink:href="#id2" x1="112.22" y1="129.81" x2="115.55" y2="129.81"> </linearGradient> <linearGradient id="id7" gradientUnits="userSpaceOnUse" xlink:href="#id2" x1="53.97" y1="115.32" x2="57.31" y2="115.32"> </linearGradient> <linearGradient id="id8" gradientUnits="userSpaceOnUse" xlink:href="#id2" x1="107.75" y1="118.83" x2="111.08" y2="118.83"> </linearGradient> <linearGradient id="id9" gradientUnits="userSpaceOnUse" xlink:href="#id2" x1="42.14" y1="112.98" x2="45.47" y2="112.98"> </linearGradient> <linearGradient id="id10" gradientUnits="userSpaceOnUse" xlink:href="#id2" x1="63.86" y1="126.54" x2="67.19" y2="126.54"> </linearGradient> <linearGradient id="id11" gradientUnits="userSpaceOnUse" xlink:href="#id2" x1="96.12" y1="123.74" x2="99.46" y2="123.74"> </linearGradient> </defs> <g id="Layer_x0020_1"> <metadata id="CorelCorpID_0Corel-Layer"></metadata> <path class="fil0" d="M46.97 18.07l73.63 0c4.43,0 8.05,3.62 8.05,8.05l0 97.69c0,4.43 -3.62,8.05 -8.05,8.05l-97.69 0c-4.43,0 -8.05,-3.62 -8.05,-8.05l0 -76.85 24.06 0c4.43,0 8.05,-3.62 8.05,-8.05l0 -20.84z"></path> <rect class="fil1" x="0" y="0" width="41.56" height="41.56" rx="8.05" ry="7.93"></rect> <path class="fil2" d="M20.06 30.17c-0.18,0 -0.33,-0.06 -0.47,-0.19 -0.14,-0.12 -0.2,-0.29 -0.2,-0.48l0 -13.34 -3.86 3.01c-0.16,0.11 -0.33,0.15 -0.5,0.12 -0.17,-0.03 -0.32,-0.12 -0.44,-0.28l-1.34 -1.77c-0.11,-0.16 -0.15,-0.33 -0.12,-0.51 0.03,-0.18 0.12,-0.32 0.28,-0.43l6.12 -4.72c0.11,-0.07 0.21,-0.12 0.31,-0.15 0.1,-0.03 0.21,-0.04 0.33,-0.04l2.84 0c0.2,0 0.36,0.06 0.48,0.19 0.13,0.13 0.19,0.29 0.19,0.48l0 17.44c0,0.2 -0.06,0.36 -0.19,0.48 -0.13,0.13 -0.29,0.19 -0.48,0.19l-2.95 0z"></path> <g id="_1634669820352"> <g> <path class="fil3" d="M14.86 131.87c6.31,-17.66 12.79,-19.42 19.78,-23.58 1.83,-1.09 3.32,-2.01 4.64,-2.79 3.16,-0.06 12.48,3.1 21.08,6.52 7.26,2.89 9.59,8.29 13.95,8.3 7.74,0.02 20.06,-6.18 32.28,-6.18 5.31,1.03 6.66,4.66 12.82,6.54 4.07,1.25 12.47,11.17 7.94,11.17l-112.48 0.02z"></path> <path class="fil4" d="M14.86 131.87c7.9,-13.78 23.01,-12.97 29.99,-15.58 1.99,-0.74 13.26,4.33 28.23,4.67 10.06,0.23 23.46,-2.81 31.52,-1.22 8.06,1.6 4.48,5.34 11.7,6.72 7.22,1.38 15.56,5.39 11.04,5.39l-112.48 0.01z"></path> <path class="fil5" d="M14.86 131.87c3.58,-10.74 6.34,-4.14 13.33,-5.94 6.98,-1.8 -2.24,-3.65 16.08,-5.88 18.31,-2.23 24.64,4.27 34.59,5.19 3.61,0.33 13.33,-2.7 18.21,-3.53 9.7,-1.65 14.48,5.81 19.24,6.44 7.46,0.99 15.56,3.72 11.04,3.72l-112.48 0.01z"></path> <path class="fil6" d="M62.37 118.83c-1.16,1.09 1.83,0.63 0.96,-0.52 -0.18,-0.24 -0.84,-0.14 -0.8,0.19l-0.16 0.33z"></path> <path class="fil6" d="M85.8 121.71c0,0 -0.21,0.68 -0.02,1.11 0.33,0.77 1.14,1.25 1.07,-0.7 -0.01,-0.33 -1.08,-0.48 -1.05,-0.41z"></path> <path class="fil6" d="M53.43 119.71c-0.89,1.13 1.5,2.04 1.25,0.15 -0.04,-0.29 -1.19,-0.21 -1.25,-0.15z"></path> <path class="fil6" d="M28.25 122.85c0,0 -0.21,0.68 -0.02,1.11 0.33,0.77 1.14,1.25 1.07,-0.7 -0.01,-0.33 -1.08,-0.48 -1.05,-0.41z"></path> <path class="fil7" d="M54.43 113.97c-1.99,2.54 3.28,4.59 2.86,0.51 -0.38,-0.21 -0.65,-0.39 -0.91,-0.59 -0.8,-0.1 -1.86,-0 -1.95,0.08z"></path> <path class="fil6" d="M107.04 127.29c-0.89,1.13 1.5,2.04 1.25,0.15 -0.04,-0.29 -1.19,-0.21 -1.25,-0.15z"></path> <path class="fil6" d="M90.33 126.9c-0.89,1.13 1.5,2.04 1.25,0.15 -0.04,-0.29 -1.19,-0.21 -1.25,-0.15z"></path> <path class="fil6" d="M70.6 125.78c-1.16,1.09 1.83,0.63 0.96,-0.52 -0.18,-0.24 -0.84,-0.14 -0.8,0.19l-0.16 0.33z"></path> <path class="fil6" d="M46.5 126.62c-1.16,1.09 1.83,0.63 0.96,-0.52 -0.18,-0.24 -0.84,-0.14 -0.8,0.19l-0.16 0.33z"></path> <path class="fil6" d="M28.04 129.04c-1.16,1.09 1.83,0.63 0.96,-0.52 -0.18,-0.24 -0.84,-0.14 -0.8,0.19l-0.16 0.33z"></path> <path class="fil6" d="M40.11 121.01c-1.16,1.09 1.83,0.63 0.96,-0.52 -0.18,-0.24 -0.84,-0.14 -0.8,0.19l-0.16 0.33z"></path> <path class="fil6" d="M57.75 125.07c0,0 -0.1,0.34 -0.01,0.56 0.17,0.38 0.57,0.63 0.54,-0.35 -0,-0.17 -0.54,-0.24 -0.53,-0.21z"></path> <path class="fil6" d="M114.15 120.59c0,0 -0.1,0.34 -0.01,0.56 0.17,0.38 0.57,0.63 0.54,-0.35 -0.01,-0.17 -0.54,-0.24 -0.53,-0.21z"></path> <path class="fil6" d="M124.27 126.07c0,0 -0.1,0.34 -0.01,0.56 0.17,0.38 0.57,0.63 0.54,-0.35 -0,-0.17 -0.54,-0.24 -0.53,-0.21z"></path> <path class="fil6" d="M22.45 121.23c0,0 -0.1,0.34 -0.01,0.56 0.17,0.38 0.57,0.63 0.54,-0.35 -0,-0.17 -0.54,-0.24 -0.53,-0.2z"></path> <path class="fil6" d="M63.79 129.95c-1.16,1.09 1.83,0.63 0.96,-0.52 -0.18,-0.24 -0.84,-0.14 -0.8,0.19l-0.16 0.33z"></path> <path class="fil6" d="M78.56 128.21c-1.16,1.09 1.83,0.63 0.96,-0.52 -0.18,-0.24 -0.84,-0.14 -0.8,0.19l-0.16 0.33z"></path> <path class="fil6" d="M30.31 113.21c-1.16,1.09 1.83,0.63 0.96,-0.52 -0.18,-0.24 -0.84,-0.14 -0.8,0.19l-0.16 0.33z"></path> <path class="fil6" d="M97.25 117.45c-1.16,1.09 1.83,0.63 0.96,-0.52 -0.18,-0.24 -0.84,-0.14 -0.8,0.19l-0.16 0.33z"></path> <path class="fil6" d="M100.55 126.92c-1.16,1.09 1.83,0.63 0.96,-0.52 -0.18,-0.24 -0.84,-0.14 -0.8,0.19l-0.16 0.33z"></path> <path class="fil6" d="M19.25 129.34c-1.16,1.09 1.83,0.63 0.96,-0.52 -0.18,-0.24 -0.84,-0.14 -0.8,0.19l-0.16 0.33z"></path> <path class="fil6" d="M50.43 112.79c-1.16,1.09 1.83,0.63 0.96,-0.52 -0.18,-0.24 -0.84,-0.14 -0.8,0.19l-0.16 0.33z"></path> <path class="fil6" d="M36.62 113.49c-1.16,1.09 1.83,0.63 0.96,-0.52 -0.18,-0.24 -0.84,-0.14 -0.8,0.19l-0.16 0.33z"></path> <path class="fil6" d="M118.71 124.38c-1.16,1.09 1.83,0.63 0.96,-0.52 -0.18,-0.24 -0.84,-0.14 -0.8,0.19l-0.16 0.33z"></path> <path class="fil8" d="M37.04 125.02c-2.01,2.57 3.41,4.64 2.84,0.35 -0.09,-0.65 -2.71,-0.48 -2.84,-0.35z"></path> <path class="fil9" d="M96.57 122.38c-2.01,2.57 3.41,4.64 2.84,0.35 -0.09,-0.65 -2.71,-0.48 -2.84,-0.35z"></path> <path class="fil10" d="M64.31 125.19c-2.01,2.57 3.41,4.64 2.84,0.35 -0.09,-0.65 -2.71,-0.48 -2.84,-0.35z"></path> <path class="fil11" d="M83.56 125.78c-2.01,2.57 3.41,4.64 2.84,0.35 -0.09,-0.65 -2.71,-0.48 -2.84,-0.35z"></path> <path class="fil12" d="M25.24 115.2c-2.01,2.57 3.41,4.64 2.84,0.35 -0.09,-0.65 -2.71,-0.48 -2.84,-0.35z"></path> <path class="fil13" d="M112.67 128.46c-2.01,2.57 3.41,4.64 2.84,0.35 -0.09,-0.65 -2.71,-0.48 -2.84,-0.35z"></path> <path class="fil14" d="M108.2 117.48c-2.01,2.57 3.41,4.64 2.84,0.35 -0.09,-0.65 -2.71,-0.48 -2.84,-0.35z"></path> <path class="fil15" d="M50.7 127.31c-2.01,2.57 3.41,4.64 2.84,0.35 -0.09,-0.65 -2.71,-0.48 -2.84,-0.35z"></path> <path class="fil16" d="M42.59 111.63c-2.01,2.57 3.41,4.64 2.84,0.35 -0.09,-0.65 -2.71,-0.48 -2.84,-0.35z"></path> <path class="fil6" d="M104.51 115.93c-1.16,1.09 1.83,0.63 0.96,-0.52 -0.18,-0.24 -0.84,-0.14 -0.8,0.19l-0.16 0.33z"></path> <path class="fil6" d="M40 106.35c0,0 -0.21,0.68 -0.02,1.11 0.33,0.77 1.14,1.25 1.07,-0.7 -0.01,-0.33 -1.08,-0.48 -1.05,-0.41z"></path> <path class="fil6" d="M78.18 123.04c-1.16,1.09 1.83,0.63 0.96,-0.52 -0.18,-0.24 -0.84,-0.14 -0.8,0.19l-0.16 0.33z"></path> </g> <g> <path class="fil17" d="M102.9 62.4c-7.24,-4.42 -14.12,-2.31 -19.95,0.44 -11.8,5.58 -10.66,27.83 -8.82,32.05 1.84,4.21 1.59,3.74 3.97,4.8 1.94,0.87 22.26,-8.3 27,-13.82 6.28,-7.32 5.41,-18.83 -2.2,-23.48z"></path> <path class="fil18" d="M77.64 97.99c2.82,1.65 20.96,-7.95 25.43,-13.1 5.94,-6.84 5.33,-16.81 -1.79,-21.09 -8.4,-5.05 -17.2,-1.32 -22.73,5.53 -5.37,6.63 -5.66,25.88 -0.9,28.67z"></path> <path class="fil19" d="M101.44 64.04c-2.72,-1.64 -5.49,-2.35 -8.18,-2.33 0.71,0.3 1.43,0.67 2.14,1.1 7.13,4.29 7.74,14.26 1.79,21.09 -3.37,3.88 -14.49,10.28 -20.98,12.5 0.45,0.84 0.97,1.48 1.59,1.84 2.82,1.65 20.95,-7.95 25.43,-13.1 5.94,-6.84 5.33,-16.81 -1.8,-21.09z"></path> <path class="fil20" d="M78.87 90.54c-0.11,0.01 -0.23,0 -0.34,-0.04 -0.32,-0.13 -0.46,-0.46 -0.54,-0.74 -0.7,-2.68 0.01,-5.17 0.72,-7.55 0.74,-2.47 1.47,-4.94 2.21,-7.41 0.35,-1.17 1.64,-4.67 3.9,-4.86 0.5,-0.04 1.04,0.08 1.64,0.41 1.12,0.64 1,1.94 0.65,2.82 -1.79,4.51 -4.75,8.51 -5.65,13.37 -0.29,1.61 -0.57,3.53 -2.37,3.97 -0.07,0.02 -0.14,0.03 -0.21,0.04z"></path> </g> </g> </g> </svg> 