<?xml version="1.0" encoding="UTF-8"?> <!-- Creator: CorelDRAW 2020 (64-Bit) --> <svg xmlns="http://www.w3.org/2000/svg" xmlns:xlink="http://www.w3.org/1999/xlink" xmlns:xodm="http://www.corel.com/coreldraw/odm/2003" xml:space="preserve" width="13.5305mm" height="13.8684mm" style="shape-rendering:geometricPrecision; text-rendering:geometricPrecision; image-rendering:optimizeQuality; fill-rule:evenodd; clip-rule:evenodd" viewBox="0 0 81.88 83.93"> <defs> <style type="text/css"> <![CDATA[ .fil21 {fill:none} .fil6 {fill:#6C391C} .fil22 {fill:#F9B23E} .fil0 {fill:#FFF2DE} .fil23 {fill:#FEFEFE;fill-rule:nonzero} .fil2 {fill:#B7CF42;fill-rule:nonzero} .fil7 {fill:#4F2411;fill-opacity:0.600000} .fil5 {fill:url(#id1)} .fil4 {fill:url(#id2)} .fil1 {fill:url(#id3);fill-rule:nonzero} .fil3 {fill:url(#id4);fill-rule:nonzero} .fil15 {fill:url(#id5);fill-opacity:0.600000} .fil19 {fill:url(#id6);fill-opacity:0.600000} .fil17 {fill:url(#id7);fill-opacity:0.600000} .fil13 {fill:url(#id8);fill-opacity:0.600000} .fil11 {fill:url(#id9);fill-opacity:0.600000} .fil14 {fill:url(#id10);fill-opacity:0.600000} .fil20 {fill:url(#id11);fill-opacity:0.600000} .fil16 {fill:url(#id12);fill-opacity:0.600000} .fil8 {fill:url(#id13);fill-opacity:0.600000} .fil12 {fill:url(#id14);fill-opacity:0.600000} .fil10 {fill:url(#id15);fill-opacity:0.600000} .fil9 {fill:url(#id16);fill-opacity:0.600000} .fil18 {fill:url(#id17);fill-opacity:0.600000} ]]> </style> <clipPath id="id0"> <path d="M29.89 11.5l46.86 0c2.82,0 5.12,2.31 5.12,5.12l0 62.18c0,2.82 -2.31,5.12 -5.12,5.12l-62.18 0c-2.82,0 -5.12,-2.31 -5.12,-5.12l0 -48.91 15.31 0c2.82,0 5.12,-2.31 5.12,-5.12l0 -13.27z"></path> </clipPath> <linearGradient id="id1" gradientUnits="userSpaceOnUse" x1="45.1" y1="68.83" x2="45.3" y2="83.94"> <stop offset="0" style="stop-opacity:1; stop-color:#825130"></stop> <stop offset="0.301961" style="stop-opacity:1; stop-color:#84502F"></stop> <stop offset="1" style="stop-opacity:1; stop-color:#874F2E"></stop> </linearGradient> <radialGradient id="id2" gradientUnits="userSpaceOnUse" gradientTransform="matrix(1.79975E-17 -0.293921 -0.999994 -6.1232E-17 119 87)" cx="45.2" cy="73.64" r="760.86" fx="45.2" fy="73.64"> <stop offset="0" style="stop-opacity:1; stop-color:#8C522E"></stop> <stop offset="1" style="stop-opacity:1; stop-color:#C4966F"></stop> </radialGradient> <linearGradient id="id3" gradientUnits="userSpaceOnUse" x1="27.8" y1="42.31" x2="48.08" y2="42.31"> <stop offset="0" style="stop-opacity:1; stop-color:#6A9007"></stop> <stop offset="0.811765" style="stop-opacity:1; stop-color:#799C16"></stop> <stop offset="1" style="stop-opacity:1; stop-color:#89A825"></stop> </linearGradient> <linearGradient id="id4" gradientUnits="userSpaceOnUse" x1="46.11" y1="40.89" x2="64.6" y2="61.23"> <stop offset="0" style="stop-opacity:1; stop-color:#8EBB2E"></stop> <stop offset="0.839216" style="stop-opacity:1; stop-color:#7DA61B"></stop> <stop offset="1" style="stop-opacity:1; stop-color:#6B9108"></stop> </linearGradient> <linearGradient id="id5" gradientUnits="userSpaceOnUse" x1="19.45" y1="82.71" x2="17.32" y2="82.71"> <stop offset="0" style="stop-opacity:1; stop-color:#4F2411"></stop> <stop offset="1" style="stop-opacity:1; stop-color:#9E5B39"></stop> </linearGradient> <linearGradient id="id6" gradientUnits="userSpaceOnUse" xlink:href="#id5" x1="58.88" y1="82.03" x2="56.76" y2="82.03"> </linearGradient> <linearGradient id="id7" gradientUnits="userSpaceOnUse" xlink:href="#id5" x1="44.16" y1="73.11" x2="42.03" y2="73.11"> </linearGradient> <linearGradient id="id8" gradientUnits="userSpaceOnUse" xlink:href="#id5" x1="38.86" y1="67.56" x2="36.74" y2="67.56"> </linearGradient> <linearGradient id="id9" gradientUnits="userSpaceOnUse" xlink:href="#id5" x1="48.75" y1="76.94" x2="46.63" y2="76.94"> </linearGradient> <linearGradient id="id10" gradientUnits="userSpaceOnUse" xlink:href="#id5" x1="75.09" y1="74.82" x2="72.97" y2="74.82"> </linearGradient> <linearGradient id="id11" gradientUnits="userSpaceOnUse" xlink:href="#id5" x1="64.69" y1="71.44" x2="62.57" y2="71.44"> </linearGradient> <linearGradient id="id12" gradientUnits="userSpaceOnUse" xlink:href="#id5" x1="32.73" y1="78.46" x2="30.61" y2="78.46"> </linearGradient> <linearGradient id="id13" gradientUnits="userSpaceOnUse" xlink:href="#id5" x1="56.48" y1="71.88" x2="54.35" y2="71.88"> </linearGradient> <linearGradient id="id14" gradientUnits="userSpaceOnUse" xlink:href="#id5" x1="37.97" y1="81.12" x2="35.85" y2="81.12"> </linearGradient> <linearGradient id="id15" gradientUnits="userSpaceOnUse" xlink:href="#id5" x1="27.94" y1="75.91" x2="25.82" y2="75.91"> </linearGradient> <linearGradient id="id16" gradientUnits="userSpaceOnUse" xlink:href="#id5" x1="67.58" y1="80.66" x2="65.45" y2="80.66"> </linearGradient> <linearGradient id="id17" gradientUnits="userSpaceOnUse" xlink:href="#id5" x1="46.21" y1="65.05" x2="44.09" y2="65.05"> </linearGradient> </defs> <g id="Layer_x0020_1"> <metadata id="CorelCorpID_0Corel-Layer"></metadata> <path class="fil0" d="M29.89 11.5l46.86 0c2.82,0 5.12,2.31 5.12,5.12l0 62.18c0,2.82 -2.31,5.12 -5.12,5.12l-62.18 0c-2.82,0 -5.12,-2.31 -5.12,-5.12l0 -48.91 15.31 0c2.82,0 5.12,-2.31 5.12,-5.12l0 -13.27z"></path> <g style="clip-path:url(#id0)"> <g id="_1634669798080"> <g> <g> <path id="1" class="fil1" d="M31.1 44.38c0.51,1.39 1.39,2.69 2.65,3.46 2.1,1.3 4.77,0.96 7.22,0.64 2.45,-0.31 5.19,-0.47 7.11,1.07 -0.47,-3.12 -1.02,-6.42 -3.07,-8.82 -2,-2.34 -5.11,-3.42 -8.14,-3.98 -3.03,-0.56 -6.15,-0.72 -9.07,-1.69 1.24,1.12 1.84,2.79 2.2,4.42 0.36,1.64 0.52,3.32 1.1,4.89z"></path> <path class="fil2" d="M40.7 45.13c2.31,1 4.52,2.23 6.59,3.66 -3.46,-4.71 -10.79,-5.06 -14.44,-9.63 0.5,1.63 1.78,2.92 3.23,3.81 1.44,0.9 3.06,1.48 4.62,2.15z"></path> <path class="fil2" d="M41.64 41.61c1.37,1.92 2.73,3.84 4.1,5.76 -2.01,-1.3 -3.24,-3.52 -4.1,-5.76z"></path> <path class="fil2" d="M37.76 39.64c0.72,1.79 1.78,3.44 3.1,4.85 -0.52,-0.38 -0.64,0.05 -1.1,-0.39 -0.27,-0.25 -2,-2.03 -2,-4.46z"></path> <path class="fil2" d="M39.75 44.1c0.1,0.01 0.21,0.04 0.25,0.12 0.09,0.18 -0.17,0.32 -0.37,0.35 -1.05,0.13 -2.12,0.27 -3.18,0.12 -1.05,-0.14 -2.11,-0.6 -2.76,-1.44 2.02,0.28 4.04,0.56 6.06,0.85z"></path> <path class="fil2" d="M35.65 46.16c2.58,0.23 5.18,0.11 7.72,-0.37 0.02,0.52 -0.54,0.85 -1.04,1 -2.18,0.64 -4.5,0 -6.68,-0.63z"></path> <path class="fil3" d="M48.68 41.21c1.54,-2.91 4.63,-4.78 7.84,-5.46 3.22,-0.68 6.57,-0.31 9.79,0.37 -1.54,0.48 -2.65,1.88 -3.26,3.38 -0.61,1.5 -0.81,3.12 -1.14,4.71 -0.33,1.58 -0.82,3.2 -1.89,4.41 -1.52,1.72 -3.98,2.34 -6.26,2.17 -1.86,-0.14 -3.65,-0.75 -5.4,-1.43 0,0.02 -0,0.05 -0,0.07 -0.02,0.89 -0.27,1.75 -0.48,2.61 -1.05,4.42 -0.84,9.13 0.6,13.44 -0.75,0.73 -1.74,1.52 -2.73,1.18 -1.1,-0.37 -1.31,-1.81 -1.33,-2.97 -0.06,-2.87 -0.11,-5.75 0.27,-8.6 0.36,-2.72 1.12,-5.42 2.56,-7.75 0.14,-2.13 0.42,-4.26 1.41,-6.13z"></path> <path class="fil2" d="M55.09 42.96c1.41,-1.75 2.57,-3.95 4.69,-4.68 -2.03,1.81 -3.27,4.31 -4.93,6.46 -1.66,2.15 -4.05,4.09 -6.76,3.93 2.53,-1.66 5.11,-3.36 7.01,-5.72z"></path> <path class="fil2" d="M52.77 40.38c0.12,1.18 0.25,2.38 0.12,3.56 -0.13,1.18 -0.54,2.37 -1.36,3.24 0.04,-0.82 0.2,-1.62 0.36,-2.42 0.29,-1.46 0.58,-2.92 0.88,-4.37z"></path> <path class="fil2" d="M55.95 43.26c-0.15,0.31 -0.67,0.14 -0.77,-0.19 -0.1,-0.33 0.64,-4.52 1.23,-4.89 -0.15,1.69 -0.31,3.39 -0.46,5.08z"></path> <path class="fil2" d="M55.54 43.86c-0.18,-0.02 -0.38,-0.07 -0.46,-0.22 -0.1,-0.17 0.01,-0.41 0.18,-0.52 0.17,-0.11 0.38,-0.17 0.58,-0.14 1.66,0.28 2.49,-0.06 4.11,-0.3 -1.24,0.94 -2.86,1.38 -4.4,1.18z"></path> <path class="fil2" d="M58.33 45.81c-1.85,1.08 -4.14,1.38 -6.21,0.84 0.06,-0.2 0.13,-0.4 0.19,-0.59 2.01,-0.08 4.01,-0.17 6.02,-0.25z"></path> </g> <g> <path class="fil4" d="M81.41 83.94c-4.01,-10.52 -8.14,-11.56 -12.59,-14.05 -4.45,-2.48 -5.76,-3.41 -9.54,-4.31 -3.78,-0.9 -12.24,-2.24 -13.4,-2.24 -8.4,0 -12.96,5.66 -19.98,7.07 -4.26,0.85 -4.12,4.88 -11.02,6.86 -2.59,0.74 -7.94,6.65 -5.05,6.65l71.59 0.01z"></path> <path class="fil5" d="M81.41 83.94c-5.03,-9.83 -14.64,-9.25 -19.09,-11.11 -4.45,-1.86 -4.64,-3.24 -8.42,-3.92 -3.78,-0.67 -10.05,2.95 -14.83,2.95 -4.78,0 -6.34,-0.26 -12.47,1.07 -6.12,1.33 -5.01,6.14 -9.76,7.16 -4.75,1.02 -9.91,3.84 -7.02,3.84l71.59 0.01z"></path> <path class="fil6" d="M81.41 83.94c-2.28,-7.41 -6.85,-4.23 -11.29,-5.47 -4.45,-1.24 0.21,-2.37 -11.45,-3.91 -11.65,-1.54 -13.13,0.8 -19.47,1.43 -2.29,0.23 -7.01,1.5 -10.11,0.93 -6.18,-1.14 -9.22,4.01 -12.25,4.44 -4.75,0.68 -9.91,2.57 -7.02,2.57l71.59 0.01z"></path> <path class="fil7" d="M51.17 76.17c0.74,0.65 -1.17,0.37 -0.61,-0.31 0.12,-0.14 0.53,-0.08 0.51,0.11l0.1 0.2z"></path> <path class="fil7" d="M40.21 77.82c-0,0 0.13,0.4 0.01,0.66 -0.21,0.46 -0.72,0.75 -0.68,-0.42 0.01,-0.2 0.69,-0.28 0.67,-0.24z"></path> <path class="fil7" d="M56.86 76.69c0.56,0.67 -0.96,1.22 -0.8,0.09 0.02,-0.17 0.76,-0.13 0.8,-0.09z"></path> <path class="fil7" d="M51.19 66.17c0.74,0.65 -1.17,0.37 -0.61,-0.31 0.12,-0.14 0.53,-0.08 0.51,0.11l0.1 0.2z"></path> <path class="fil7" d="M40.23 67.82c-0,0 0.13,0.4 0.01,0.66 -0.21,0.46 -0.72,0.75 -0.68,-0.42 0.01,-0.2 0.69,-0.28 0.67,-0.24z"></path> <path class="fil7" d="M56.87 66.7c0.56,0.67 -0.96,1.22 -0.8,0.09 0.02,-0.17 0.76,-0.12 0.8,-0.09z"></path> <path class="fil7" d="M30.15 73.95c-0,0 0.13,0.4 0.01,0.66 -0.21,0.46 -0.72,0.75 -0.68,-0.42 0.01,-0.2 0.69,-0.28 0.67,-0.24z"></path> <path class="fil7" d="M49.71 71.29c-0,0 0.13,0.4 0.01,0.66 -0.21,0.46 -0.72,0.75 -0.68,-0.42 0.01,-0.2 0.69,-0.28 0.67,-0.24z"></path> <path class="fil7" d="M71.15 75.87c-0,0 0.13,0.4 0.01,0.66 -0.21,0.46 -0.72,0.75 -0.68,-0.42 0.01,-0.2 0.69,-0.28 0.67,-0.24z"></path> <path class="fil8" d="M56.19 71.08c1.28,1.53 -2.17,2.76 -1.81,0.21 0.06,-0.39 1.72,-0.28 1.81,-0.21z"></path> <path class="fil7" d="M64.5 68.28c0.56,0.67 -0.96,1.22 -0.8,0.09 0.02,-0.17 0.76,-0.13 0.8,-0.09z"></path> <path class="fil7" d="M22.74 81.21c0.56,0.67 -0.96,1.22 -0.8,0.09 0.02,-0.17 0.76,-0.13 0.8,-0.09z"></path> <path class="fil7" d="M33.38 80.98c0.56,0.67 -0.96,1.22 -0.8,0.09 0.02,-0.17 0.76,-0.12 0.8,-0.09z"></path> <path class="fil7" d="M43.47 68.73c0.74,0.65 -1.17,0.37 -0.61,-0.31 0.12,-0.14 0.53,-0.08 0.51,0.11l0.1 0.2z"></path> <path class="fil7" d="M45.93 80.31c0.74,0.65 -1.17,0.37 -0.61,-0.31 0.12,-0.14 0.53,-0.08 0.51,0.11l0.1 0.2z"></path> <path class="fil7" d="M61.27 80.81c0.74,0.65 -1.17,0.37 -0.61,-0.31 0.12,-0.14 0.53,-0.08 0.51,0.11l0.1 0.2z"></path> <path class="fil7" d="M73.02 82.25c0.74,0.65 -1.17,0.37 -0.61,-0.31 0.12,-0.14 0.53,-0.08 0.51,0.11l0.1 0.2z"></path> <path class="fil7" d="M65.34 77.47c0.74,0.65 -1.17,0.37 -0.61,-0.31 0.12,-0.14 0.53,-0.08 0.51,0.11l0.1 0.2z"></path> <path class="fil7" d="M54.11 79.89c-0,0 0.07,0.2 0.01,0.33 -0.11,0.23 -0.36,0.37 -0.34,-0.21 0,-0.1 0.34,-0.14 0.34,-0.12z"></path> <path class="fil7" d="M38.58 72.76c-0,0 0.07,0.2 0.01,0.33 -0.11,0.23 -0.36,0.37 -0.34,-0.21 0,-0.1 0.34,-0.14 0.34,-0.12z"></path> <path class="fil7" d="M42.13 65.32c-0,0 0.07,0.2 0.01,0.33 -0.11,0.23 -0.36,0.37 -0.34,-0.21 0,-0.1 0.34,-0.14 0.34,-0.12z"></path> <path class="fil7" d="M27.27 70.62c-0,0 0.07,0.2 0.01,0.33 -0.11,0.23 -0.36,0.37 -0.34,-0.21 0,-0.1 0.34,-0.14 0.34,-0.12z"></path> <path class="fil7" d="M18.21 77.22c-0,0 0.07,0.2 0.01,0.33 -0.11,0.23 -0.36,0.37 -0.34,-0.21 0,-0.1 0.34,-0.14 0.34,-0.12z"></path> <path class="fil7" d="M11.77 80.48c0,0 0.07,0.2 0.01,0.33 -0.11,0.23 -0.36,0.37 -0.34,-0.21 0,-0.1 0.34,-0.14 0.33,-0.12z"></path> <path class="fil7" d="M76.58 77.6c-0,0 0.07,0.2 0.01,0.33 -0.11,0.23 -0.36,0.37 -0.34,-0.21 0,-0.1 0.34,-0.14 0.34,-0.12z"></path> <path class="fil7" d="M36.72 75.37c-0,0 0.07,0.2 0.01,0.33 -0.11,0.23 -0.36,0.37 -0.34,-0.21 0,-0.1 0.34,-0.14 0.34,-0.12z"></path> <path class="fil7" d="M46.77 72.11c-0,0 0.07,0.2 0.01,0.33 -0.11,0.23 -0.36,0.37 -0.34,-0.21 0,-0.1 0.34,-0.14 0.34,-0.12z"></path> <path class="fil7" d="M50.25 81.61c0.74,0.65 -1.17,0.37 -0.61,-0.31 0.12,-0.14 0.53,-0.08 0.51,0.11l0.1 0.2z"></path> <path class="fil7" d="M40.87 81.76c0.74,0.65 -1.17,0.37 -0.61,-0.31 0.12,-0.14 0.53,-0.08 0.51,0.11l0.1 0.2z"></path> <path class="fil7" d="M44.67 75.84c0.74,0.65 -1.17,0.37 -0.61,-0.31 0.12,-0.14 0.53,-0.08 0.51,0.11l0.1 0.2z"></path> <path class="fil7" d="M34.63 68.85c0.74,0.65 -1.17,0.37 -0.61,-0.31 0.12,-0.14 0.53,-0.08 0.51,0.11l0.1 0.2z"></path> <path class="fil7" d="M47.23 65.67c0.74,0.65 -1.17,0.37 -0.61,-0.31 0.12,-0.14 0.53,-0.08 0.51,0.11l0.1 0.2z"></path> <path class="fil7" d="M60.97 68.32c0.74,0.65 -1.17,0.37 -0.61,-0.31 0.12,-0.14 0.53,-0.08 0.51,0.11l0.1 0.2z"></path> <path class="fil7" d="M71.58 72.83c0.74,0.65 -1.17,0.37 -0.61,-0.31 0.12,-0.14 0.53,-0.08 0.51,0.11l0.1 0.2z"></path> <path class="fil7" d="M23.98 76.06c0.74,0.65 -1.17,0.37 -0.61,-0.31 0.12,-0.14 0.53,-0.08 0.51,0.11l0.1 0.2z"></path> <path class="fil7" d="M23.79 72.72c0.74,0.65 -1.17,0.37 -0.61,-0.31 0.12,-0.14 0.53,-0.08 0.51,0.11l0.1 0.2z"></path> <path class="fil7" d="M26.87 80.99c0.74,0.65 -1.17,0.37 -0.61,-0.31 0.12,-0.14 0.53,-0.08 0.51,0.11l0.1 0.2z"></path> <path class="fil7" d="M78.61 82.43c0.74,0.65 -1.17,0.37 -0.61,-0.31 0.12,-0.14 0.53,-0.08 0.51,0.11l0.1 0.2z"></path> <path class="fil7" d="M62.24 73.98c0.74,0.65 -1.17,0.37 -0.61,-0.31 0.12,-0.14 0.53,-0.08 0.51,0.11l0.1 0.2z"></path> <path class="fil7" d="M67.56 73c0.74,0.65 -1.17,0.37 -0.61,-0.31 0.12,-0.14 0.53,-0.08 0.51,0.11l0.1 0.2z"></path> <path class="fil7" d="M38.76 69.99c0.74,0.65 -1.17,0.37 -0.61,-0.31 0.12,-0.14 0.53,-0.08 0.51,0.11l0.1 0.2z"></path> <path class="fil7" d="M48.67 68.16c0.74,0.65 -1.17,0.37 -0.61,-0.31 0.12,-0.14 0.53,-0.08 0.51,0.11l0.1 0.2z"></path> <path class="fil7" d="M30.21 70.97c0.74,0.65 -1.17,0.37 -0.61,-0.31 0.12,-0.14 0.53,-0.08 0.51,0.11l0.1 0.2z"></path> <path class="fil7" d="M15.31 79.48c0.74,0.65 -1.17,0.37 -0.61,-0.31 0.12,-0.14 0.53,-0.08 0.51,0.11l0.1 0.2z"></path> <path class="fil9" d="M67.29 79.86c1.28,1.53 -2.17,2.76 -1.81,0.21 0.06,-0.39 1.72,-0.28 1.81,-0.21z"></path> <path class="fil10" d="M27.66 75.11c1.28,1.53 -2.17,2.76 -1.81,0.21 0.06,-0.39 1.72,-0.28 1.81,-0.21z"></path> <path class="fil11" d="M48.46 76.14c1.28,1.53 -2.17,2.76 -1.81,0.21 0.06,-0.39 1.72,-0.28 1.81,-0.21z"></path> <path class="fil12" d="M37.68 80.31c1.28,1.53 -2.17,2.76 -1.81,0.21 0.06,-0.39 1.72,-0.28 1.81,-0.21z"></path> <path class="fil13" d="M38.57 66.75c1.28,1.53 -2.17,2.76 -1.81,0.21 0.06,-0.39 1.72,-0.28 1.81,-0.21z"></path> <path class="fil14" d="M74.81 74.01c1.28,1.53 -2.17,2.77 -1.81,0.21 0.06,-0.39 1.72,-0.28 1.81,-0.21z"></path> <path class="fil15" d="M19.16 81.91c1.28,1.53 -2.17,2.77 -1.81,0.21 0.06,-0.39 1.72,-0.28 1.81,-0.21z"></path> <path class="fil16" d="M32.44 77.66c1.28,1.53 -2.17,2.76 -1.81,0.21 0.06,-0.39 1.72,-0.28 1.81,-0.21z"></path> <path class="fil17" d="M43.87 72.3c1.28,1.53 -2.17,2.76 -1.81,0.21 0.06,-0.39 1.72,-0.28 1.81,-0.21z"></path> <path class="fil18" d="M45.92 64.24c1.28,1.53 -2.17,2.77 -1.81,0.21 0.06,-0.39 1.72,-0.28 1.81,-0.21z"></path> <path class="fil19" d="M58.6 81.22c1.28,1.53 -2.17,2.77 -1.81,0.21 0.06,-0.39 1.72,-0.28 1.81,-0.21z"></path> <path class="fil20" d="M64.4 70.63c1.28,1.53 -2.17,2.76 -1.81,0.21 0.06,-0.39 1.72,-0.28 1.81,-0.21z"></path> </g> </g> </g> </g> <path class="fil21" d="M29.89 11.5l46.86 0c2.82,0 5.12,2.31 5.12,5.12l0 62.18c0,2.82 -2.31,5.12 -5.12,5.12l-62.18 0c-2.82,0 -5.12,-2.31 -5.12,-5.12l0 -48.91 15.31 0c2.82,0 5.12,-2.31 5.12,-5.12l0 -13.27z"></path> <rect class="fil22" x="0" y="0" width="26.45" height="26.45" rx="5.12" ry="5.05"></rect> <path class="fil23" d="M13.22 19.29c-0.84,0 -1.57,-0.1 -2.17,-0.31 -0.6,-0.2 -1.1,-0.47 -1.49,-0.79 -0.39,-0.32 -0.68,-0.67 -0.87,-1.05 -0.19,-0.38 -0.3,-0.75 -0.31,-1.1 0,-0.1 0.03,-0.19 0.1,-0.26 0.07,-0.07 0.15,-0.1 0.26,-0.1l1.9 0c0.13,0 0.23,0.03 0.31,0.08 0.08,0.05 0.15,0.14 0.21,0.27 0.1,0.26 0.25,0.47 0.45,0.63 0.2,0.16 0.44,0.27 0.72,0.33 0.28,0.06 0.58,0.09 0.9,0.09 0.64,0 1.14,-0.15 1.5,-0.44 0.36,-0.3 0.55,-0.71 0.55,-1.25 0,-0.55 -0.17,-0.94 -0.51,-1.18 -0.34,-0.24 -0.83,-0.36 -1.45,-0.36l-1.83 0c-0.11,0 -0.21,-0.04 -0.29,-0.12 -0.08,-0.08 -0.12,-0.18 -0.12,-0.29l0 -0.84c0,-0.14 0.03,-0.25 0.08,-0.34 0.05,-0.09 0.11,-0.17 0.16,-0.22l2.94 -2.66 -4.82 0c-0.13,0 -0.23,-0.04 -0.31,-0.12 -0.08,-0.08 -0.12,-0.18 -0.12,-0.31l0 -1.37c0,-0.13 0.04,-0.23 0.12,-0.31 0.08,-0.08 0.18,-0.12 0.31,-0.12l7.6 0c0.13,0 0.23,0.04 0.31,0.12 0.08,0.08 0.12,0.18 0.12,0.31l0 1.25c0,0.11 -0.03,0.21 -0.08,0.3 -0.05,0.09 -0.11,0.16 -0.18,0.21l-2.77 2.72 0.17 0.03c0.67,0.07 1.27,0.23 1.79,0.5 0.52,0.26 0.93,0.63 1.23,1.12 0.3,0.48 0.44,1.1 0.44,1.84 0,0.77 -0.21,1.44 -0.63,2 -0.42,0.56 -1,0.99 -1.72,1.29 -0.73,0.3 -1.56,0.45 -2.49,0.45z"></path> </g> </svg> 