<?xml version="1.0" encoding="UTF-8"?> <!-- Creator: CorelDRAW 2020 (64-Bit) --> <svg xmlns="http://www.w3.org/2000/svg" xmlns:xlink="http://www.w3.org/1999/xlink" xmlns:xodm="http://www.corel.com/coreldraw/odm/2003" xml:space="preserve" width="13.5298mm" height="13.8687mm" style="shape-rendering:geometricPrecision; text-rendering:geometricPrecision; image-rendering:optimizeQuality; fill-rule:evenodd; clip-rule:evenodd" viewBox="0 0 69.5 71.24"> <defs> <style type="text/css"> <![CDATA[ .fil7 {fill:#DFBEA6} .fil109 {fill:#DFBEA6} .fil16 {fill:#915625} .fil4 {fill:#6C391C} .fil1 {fill:#F9B23E} .fil0 {fill:#FFF2DE} .fil2 {fill:#FEFEFE;fill-rule:nonzero} .fil9 {fill:url(#id0)} .fil10 {fill:url(#id1)} .fil6 {fill:url(#id2)} .fil106 {fill:url(#id3)} .fil5 {fill:url(#id4)} .fil3 {fill:url(#id5)} .fil11 {fill:url(#id6)} .fil13 {fill:url(#id7)} .fil8 {fill:url(#id8)} .fil105 {fill:url(#id9)} .fil12 {fill:url(#id10)} .fil108 {fill:url(#id11)} .fil107 {fill:url(#id12)} .fil110 {fill:url(#id13)} .fil64 {fill:url(#id14);fill-rule:nonzero} .fil81 {fill:url(#id15);fill-rule:nonzero} .fil74 {fill:url(#id16);fill-rule:nonzero} .fil57 {fill:url(#id17);fill-rule:nonzero} .fil37 {fill:url(#id18);fill-rule:nonzero} .fil42 {fill:url(#id19);fill-rule:nonzero} .fil95 {fill:url(#id20);fill-rule:nonzero} .fil103 {fill:url(#id21);fill-rule:nonzero} .fil33 {fill:url(#id22);fill-rule:nonzero} .fil96 {fill:url(#id23);fill-rule:nonzero} .fil91 {fill:url(#id24);fill-rule:nonzero} .fil93 {fill:url(#id25);fill-rule:nonzero} .fil52 {fill:url(#id26);fill-rule:nonzero} .fil35 {fill:url(#id27);fill-rule:nonzero} .fil66 {fill:url(#id28);fill-rule:nonzero} .fil88 {fill:url(#id29);fill-rule:nonzero} .fil84 {fill:url(#id30);fill-rule:nonzero} .fil32 {fill:url(#id31);fill-rule:nonzero} .fil47 {fill:url(#id32);fill-rule:nonzero} .fil25 {fill:url(#id33);fill-rule:nonzero} .fil40 {fill:url(#id34);fill-rule:nonzero} .fil69 {fill:url(#id35);fill-rule:nonzero} .fil78 {fill:url(#id36);fill-rule:nonzero} .fil48 {fill:url(#id37);fill-rule:nonzero} .fil38 {fill:url(#id38);fill-rule:nonzero} .fil44 {fill:url(#id39);fill-rule:nonzero} .fil29 {fill:url(#id40);fill-rule:nonzero} .fil56 {fill:url(#id41);fill-rule:nonzero} .fil70 {fill:url(#id42);fill-rule:nonzero} .fil30 {fill:url(#id43);fill-rule:nonzero} .fil100 {fill:url(#id44);fill-rule:nonzero} .fil98 {fill:url(#id45);fill-rule:nonzero} .fil17 {fill:url(#id46);fill-rule:nonzero} .fil19 {fill:url(#id47);fill-rule:nonzero} .fil89 {fill:url(#id48);fill-rule:nonzero} .fil82 {fill:url(#id49);fill-rule:nonzero} .fil31 {fill:url(#id50);fill-rule:nonzero} .fil49 {fill:url(#id51);fill-rule:nonzero} .fil15 {fill:url(#id52);fill-rule:nonzero} .fil55 {fill:url(#id53);fill-rule:nonzero} .fil14 {fill:url(#id54);fill-rule:nonzero} .fil76 {fill:url(#id55);fill-rule:nonzero} .fil87 {fill:url(#id56);fill-rule:nonzero} .fil67 {fill:url(#id57);fill-rule:nonzero} .fil94 {fill:url(#id58);fill-rule:nonzero} .fil28 {fill:url(#id59);fill-rule:nonzero} .fil41 {fill:url(#id60);fill-rule:nonzero} .fil102 {fill:url(#id61);fill-rule:nonzero} .fil45 {fill:url(#id62);fill-rule:nonzero} .fil85 {fill:url(#id63);fill-rule:nonzero} .fil65 {fill:url(#id64);fill-rule:nonzero} .fil23 {fill:url(#id65);fill-rule:nonzero} .fil22 {fill:url(#id66);fill-rule:nonzero} .fil73 {fill:url(#id67);fill-rule:nonzero} .fil18 {fill:url(#id68);fill-rule:nonzero} .fil60 {fill:url(#id69);fill-rule:nonzero} .fil86 {fill:url(#id70);fill-rule:nonzero} .fil75 {fill:url(#id71);fill-rule:nonzero} .fil97 {fill:url(#id72);fill-rule:nonzero} .fil54 {fill:url(#id73);fill-rule:nonzero} .fil104 {fill:url(#id74);fill-rule:nonzero} .fil90 {fill:url(#id75);fill-rule:nonzero} .fil46 {fill:url(#id76);fill-rule:nonzero} .fil61 {fill:url(#id77);fill-rule:nonzero} .fil51 {fill:url(#id78);fill-rule:nonzero} .fil80 {fill:url(#id79);fill-rule:nonzero} .fil50 {fill:url(#id80);fill-rule:nonzero} .fil101 {fill:url(#id81);fill-rule:nonzero} .fil34 {fill:url(#id82);fill-rule:nonzero} .fil27 {fill:url(#id83);fill-rule:nonzero} .fil36 {fill:url(#id84);fill-rule:nonzero} .fil71 {fill:url(#id85);fill-rule:nonzero} .fil79 {fill:url(#id86);fill-rule:nonzero} .fil83 {fill:url(#id87);fill-rule:nonzero} .fil24 {fill:url(#id88);fill-rule:nonzero} .fil99 {fill:url(#id89);fill-rule:nonzero} .fil59 {fill:url(#id90);fill-rule:nonzero} .fil72 {fill:url(#id91);fill-rule:nonzero} .fil58 {fill:url(#id92);fill-rule:nonzero} .fil26 {fill:url(#id93);fill-rule:nonzero} .fil62 {fill:url(#id94);fill-rule:nonzero} .fil43 {fill:url(#id95);fill-rule:nonzero} .fil77 {fill:url(#id96);fill-rule:nonzero} .fil63 {fill:url(#id97);fill-rule:nonzero} .fil92 {fill:url(#id98);fill-rule:nonzero} .fil68 {fill:url(#id99);fill-rule:nonzero} .fil20 {fill:url(#id100);fill-rule:nonzero} .fil21 {fill:url(#id101);fill-rule:nonzero} .fil53 {fill:url(#id102);fill-rule:nonzero} .fil39 {fill:url(#id103);fill-rule:nonzero} ]]> </style> <linearGradient id="id0" gradientUnits="userSpaceOnUse" x1="57.06" y1="44.3" x2="59.98" y2="46.62"> <stop offset="0" style="stop-opacity:1; stop-color:#D19563"></stop> <stop offset="1" style="stop-opacity:1; stop-color:#915625"></stop> </linearGradient> <linearGradient id="id1" gradientUnits="userSpaceOnUse" x1="17.71" y1="42.79" x2="59.81" y2="42.79"> <stop offset="0" style="stop-opacity:1; stop-color:#964F30"></stop> <stop offset="1" style="stop-opacity:1; stop-color:#9E5F2B"></stop> </linearGradient> <linearGradient id="id2" gradientUnits="userSpaceOnUse" xlink:href="#id0" x1="38.3" y1="41.43" x2="39.21" y2="48.71"> </linearGradient> <linearGradient id="id3" gradientUnits="userSpaceOnUse" xlink:href="#id0" x1="12.95" y1="58.81" x2="22.01" y2="59.91"> </linearGradient> <linearGradient id="id4" gradientUnits="userSpaceOnUse" xlink:href="#id0" x1="38.03" y1="48.11" x2="39.5" y2="57.83"> </linearGradient> <linearGradient id="id5" gradientUnits="userSpaceOnUse" xlink:href="#id0" x1="38.03" y1="58.65" x2="39.5" y2="68.36"> </linearGradient> <linearGradient id="id6" gradientUnits="userSpaceOnUse" xlink:href="#id1" x1="59.55" y1="45.07" x2="63.54" y2="45.07"> </linearGradient> <linearGradient id="id7" gradientUnits="userSpaceOnUse" xlink:href="#id1" x1="13.99" y1="45.07" x2="17.97" y2="45.07"> </linearGradient> <linearGradient id="id8" gradientUnits="userSpaceOnUse" xlink:href="#id0" x1="17.45" y1="44.3" x2="20.37" y2="46.62"> </linearGradient> <linearGradient id="id9" gradientUnits="userSpaceOnUse" xlink:href="#id0" x1="69.29" y1="54.36" x2="50.25" y2="64.36"> </linearGradient> <linearGradient id="id10" gradientUnits="userSpaceOnUse" xlink:href="#id1" x1="13.98" y1="47.35" x2="63.54" y2="47.35"> </linearGradient> <linearGradient id="id11" gradientUnits="userSpaceOnUse" xlink:href="#id0" x1="37.97" y1="63.49" x2="39.56" y2="73.2"> </linearGradient> <linearGradient id="id12" gradientUnits="userSpaceOnUse" xlink:href="#id0" x1="37.97" y1="45.52" x2="39.56" y2="55.23"> </linearGradient> <linearGradient id="id13" gradientUnits="userSpaceOnUse" xlink:href="#id0" x1="37.97" y1="54.5" x2="39.56" y2="64.22"> </linearGradient> <linearGradient id="id14" gradientUnits="userSpaceOnUse" x1="53.12" y1="51.29" x2="47.71" y2="52.86"> <stop offset="0" style="stop-opacity:1; stop-color:#F9A22F"></stop> <stop offset="0.729412" style="stop-opacity:1; stop-color:#F79527"></stop> <stop offset="1" style="stop-opacity:1; stop-color:#F5871F"></stop> </linearGradient> <linearGradient id="id15" gradientUnits="userSpaceOnUse" x1="54.38" y1="59.8" x2="48.63" y2="61.47"> <stop offset="0" style="stop-opacity:1; stop-color:#F5871F"></stop> <stop offset="1" style="stop-opacity:1; stop-color:#CC7E35"></stop> </linearGradient> <linearGradient id="id16" gradientUnits="userSpaceOnUse" xlink:href="#id14" x1="23.97" y1="53.77" x2="18.56" y2="55.35"> </linearGradient> <linearGradient id="id17" gradientUnits="userSpaceOnUse" xlink:href="#id15" x1="45.25" y1="40.77" x2="39.29" y2="40.18"> </linearGradient> <linearGradient id="id18" gradientUnits="userSpaceOnUse" xlink:href="#id15" x1="53.39" y1="38.87" x2="47.41" y2="38.48"> </linearGradient> <linearGradient id="id19" gradientUnits="userSpaceOnUse" xlink:href="#id14" x1="36.16" y1="40.73" x2="41.79" y2="40.37"> </linearGradient> <linearGradient id="id20" gradientUnits="userSpaceOnUse" xlink:href="#id15" x1="34.63" y1="61.53" x2="29.09" y2="63.81"> </linearGradient> <linearGradient id="id21" gradientUnits="userSpaceOnUse" xlink:href="#id15" x1="23" y1="58.51" x2="28.57" y2="60.72"> </linearGradient> <linearGradient id="id22" gradientUnits="userSpaceOnUse" xlink:href="#id15" x1="60.72" y1="40.83" x2="54.74" y2="40.45"> </linearGradient> <linearGradient id="id23" gradientUnits="userSpaceOnUse" xlink:href="#id14" x1="32.74" y1="62.31" x2="27.52" y2="64.45"> </linearGradient> <linearGradient id="id24" gradientUnits="userSpaceOnUse" xlink:href="#id15" x1="25.23" y1="62.28" x2="19.48" y2="63.96"> </linearGradient> <linearGradient id="id25" gradientUnits="userSpaceOnUse" xlink:href="#id15" x1="38.43" y1="65.08" x2="32.45" y2="65.33"> </linearGradient> <linearGradient id="id26" gradientUnits="userSpaceOnUse" xlink:href="#id14" x1="27.07" y1="45.83" x2="21.82" y2="47.91"> </linearGradient> <linearGradient id="id27" gradientUnits="userSpaceOnUse" xlink:href="#id15" x1="55.08" y1="41.84" x2="49.51" y2="44.05"> </linearGradient> <linearGradient id="id28" gradientUnits="userSpaceOnUse" xlink:href="#id14" x1="49.53" y1="55.82" x2="44.12" y2="57.39"> </linearGradient> <linearGradient id="id29" gradientUnits="userSpaceOnUse" xlink:href="#id14" x1="40.26" y1="61.57" x2="34.84" y2="63.14"> </linearGradient> <linearGradient id="id30" gradientUnits="userSpaceOnUse" xlink:href="#id14" x1="48.83" y1="64.9" x2="43.41" y2="66.48"> </linearGradient> <linearGradient id="id31" gradientUnits="userSpaceOnUse" xlink:href="#id14" x1="35.06" y1="40.93" x2="29.43" y2="40.56"> </linearGradient> <linearGradient id="id32" gradientUnits="userSpaceOnUse" xlink:href="#id15" x1="36.3" y1="47.05" x2="30.73" y2="49.25"> </linearGradient> <linearGradient id="id33" gradientUnits="userSpaceOnUse" xlink:href="#id15" x1="22.45" y1="43.17" x2="16.49" y2="42.58"> </linearGradient> <linearGradient id="id34" gradientUnits="userSpaceOnUse" xlink:href="#id14" x1="45.84" y1="40.63" x2="40.6" y2="42.71"> </linearGradient> <linearGradient id="id35" gradientUnits="userSpaceOnUse" xlink:href="#id15" x1="42.93" y1="51.91" x2="37.18" y2="53.58"> </linearGradient> <linearGradient id="id36" gradientUnits="userSpaceOnUse" xlink:href="#id14" x1="33.45" y1="53.23" x2="28.23" y2="55.37"> </linearGradient> <linearGradient id="id37" gradientUnits="userSpaceOnUse" xlink:href="#id14" x1="34.4" y1="47.8" x2="29.15" y2="49.88"> </linearGradient> <linearGradient id="id38" gradientUnits="userSpaceOnUse" xlink:href="#id14" x1="51.35" y1="38.74" x2="45.72" y2="38.37"> </linearGradient> <linearGradient id="id39" gradientUnits="userSpaceOnUse" xlink:href="#id14" x1="43.59" y1="45.11" x2="48.84" y2="47.19"> </linearGradient> <linearGradient id="id40" gradientUnits="userSpaceOnUse" xlink:href="#id15" x1="30.02" y1="41.56" x2="24.34" y2="43.45"> </linearGradient> <linearGradient id="id41" gradientUnits="userSpaceOnUse" xlink:href="#id14" x1="24.81" y1="50.31" x2="30.06" y2="52.39"> </linearGradient> <linearGradient id="id42" gradientUnits="userSpaceOnUse" xlink:href="#id14" x1="40.96" y1="52.48" x2="35.55" y2="54.05"> </linearGradient> <linearGradient id="id43" gradientUnits="userSpaceOnUse" xlink:href="#id14" x1="28.08" y1="42.21" x2="22.73" y2="43.98"> </linearGradient> <linearGradient id="id44" gradientUnits="userSpaceOnUse" xlink:href="#id14" x1="50.88" y1="47.36" x2="56.12" y2="49.44"> </linearGradient> <linearGradient id="id45" gradientUnits="userSpaceOnUse" xlink:href="#id14" x1="39.68" y1="48.38" x2="44.92" y2="50.46"> </linearGradient> <linearGradient id="id46" gradientUnits="userSpaceOnUse" xlink:href="#id15" x1="41.78" y1="38.12" x2="35.82" y2="37.53"> </linearGradient> <linearGradient id="id47" gradientUnits="userSpaceOnUse" xlink:href="#id15" x1="50.44" y1="39" x2="44.48" y2="38.4"> </linearGradient> <linearGradient id="id48" gradientUnits="userSpaceOnUse" xlink:href="#id15" x1="28.63" y1="66.21" x2="22.65" y2="65.82"> </linearGradient> <linearGradient id="id49" gradientUnits="userSpaceOnUse" xlink:href="#id14" x1="52.42" y1="60.37" x2="47" y2="61.95"> </linearGradient> <linearGradient id="id50" gradientUnits="userSpaceOnUse" xlink:href="#id15" x1="37.1" y1="41.06" x2="31.13" y2="40.67"> </linearGradient> <linearGradient id="id51" gradientUnits="userSpaceOnUse" xlink:href="#id15" x1="34.61" y1="44.07" x2="28.63" y2="43.68"> </linearGradient> <linearGradient id="id52" gradientUnits="userSpaceOnUse" xlink:href="#id14" x1="44.89" y1="50.52" x2="50.14" y2="52.6"> </linearGradient> <linearGradient id="id53" gradientUnits="userSpaceOnUse" xlink:href="#id15" x1="22.91" y1="49.56" x2="28.48" y2="51.76"> </linearGradient> <linearGradient id="id54" gradientUnits="userSpaceOnUse" xlink:href="#id15" x1="42.99" y1="49.77" x2="48.56" y2="51.97"> </linearGradient> <linearGradient id="id55" gradientUnits="userSpaceOnUse" xlink:href="#id14" x1="37.1" y1="56.08" x2="31.46" y2="56.31"> </linearGradient> <linearGradient id="id56" gradientUnits="userSpaceOnUse" xlink:href="#id15" x1="42.22" y1="60.99" x2="36.47" y2="62.67"> </linearGradient> <linearGradient id="id57" gradientUnits="userSpaceOnUse" xlink:href="#id15" x1="46.33" y1="55.84" x2="40.35" y2="55.45"> </linearGradient> <linearGradient id="id58" gradientUnits="userSpaceOnUse" xlink:href="#id14" x1="36.39" y1="65.16" x2="30.75" y2="65.4"> </linearGradient> <linearGradient id="id59" gradientUnits="userSpaceOnUse" xlink:href="#id14" x1="55.51" y1="38.75" x2="49.89" y2="38.19"> </linearGradient> <linearGradient id="id60" gradientUnits="userSpaceOnUse" xlink:href="#id15" x1="34.11" y1="40.87" x2="40.09" y2="40.48"> </linearGradient> <linearGradient id="id61" gradientUnits="userSpaceOnUse" xlink:href="#id14" x1="41.49" y1="60.4" x2="46.73" y2="62.48"> </linearGradient> <linearGradient id="id62" gradientUnits="userSpaceOnUse" xlink:href="#id15" x1="41.94" y1="46.04" x2="35.96" y2="45.65"> </linearGradient> <linearGradient id="id63" gradientUnits="userSpaceOnUse" xlink:href="#id15" x1="45.62" y1="64.92" x2="39.64" y2="64.53"> </linearGradient> <linearGradient id="id64" gradientUnits="userSpaceOnUse" xlink:href="#id15" x1="51.5" y1="55.25" x2="45.75" y2="56.92"> </linearGradient> <linearGradient id="id65" gradientUnits="userSpaceOnUse" xlink:href="#id15" x1="26.61" y1="41.74" x2="20.65" y2="41.15"> </linearGradient> <linearGradient id="id66" gradientUnits="userSpaceOnUse" xlink:href="#id14" x1="31.11" y1="39.23" x2="25.5" y2="38.67"> </linearGradient> <linearGradient id="id67" gradientUnits="userSpaceOnUse" xlink:href="#id15" x1="25.94" y1="53.2" x2="20.19" y2="54.87"> </linearGradient> <linearGradient id="id68" gradientUnits="userSpaceOnUse" xlink:href="#id14" x1="39.75" y1="37.92" x2="34.13" y2="37.36"> </linearGradient> <linearGradient id="id69" gradientUnits="userSpaceOnUse" xlink:href="#id14" x1="59.48" y1="45.86" x2="53.85" y2="45.49"> </linearGradient> <linearGradient id="id70" gradientUnits="userSpaceOnUse" xlink:href="#id14" x1="43.58" y1="64.79" x2="37.95" y2="64.42"> </linearGradient> <linearGradient id="id71" gradientUnits="userSpaceOnUse" xlink:href="#id15" x1="39.14" y1="55.99" x2="33.16" y2="56.24"> </linearGradient> <linearGradient id="id72" gradientUnits="userSpaceOnUse" xlink:href="#id15" x1="37.78" y1="47.63" x2="43.34" y2="49.84"> </linearGradient> <linearGradient id="id73" gradientUnits="userSpaceOnUse" xlink:href="#id14" x1="17.38" y1="45.94" x2="23.01" y2="45.57"> </linearGradient> <linearGradient id="id74" gradientUnits="userSpaceOnUse" xlink:href="#id14" x1="24.9" y1="59.27" x2="30.15" y2="61.35"> </linearGradient> <linearGradient id="id75" gradientUnits="userSpaceOnUse" xlink:href="#id14" x1="26.59" y1="66.08" x2="20.96" y2="65.71"> </linearGradient> <linearGradient id="id76" gradientUnits="userSpaceOnUse" xlink:href="#id14" x1="39.9" y1="45.9" x2="34.27" y2="45.54"> </linearGradient> <linearGradient id="id77" gradientUnits="userSpaceOnUse" xlink:href="#id15" x1="58.49" y1="54.65" x2="52.51" y2="54.26"> </linearGradient> <linearGradient id="id78" gradientUnits="userSpaceOnUse" xlink:href="#id15" x1="28.97" y1="45.08" x2="23.4" y2="47.29"> </linearGradient> <linearGradient id="id79" gradientUnits="userSpaceOnUse" xlink:href="#id14" x1="55.74" y1="63.6" x2="50.11" y2="63.23"> </linearGradient> <linearGradient id="id80" gradientUnits="userSpaceOnUse" xlink:href="#id14" x1="32.57" y1="43.94" x2="26.94" y2="43.57"> </linearGradient> <linearGradient id="id81" gradientUnits="userSpaceOnUse" xlink:href="#id15" x1="39.59" y1="59.65" x2="45.15" y2="61.86"> </linearGradient> <linearGradient id="id82" gradientUnits="userSpaceOnUse" xlink:href="#id14" x1="58.68" y1="40.7" x2="53.05" y2="40.33"> </linearGradient> <linearGradient id="id83" gradientUnits="userSpaceOnUse" xlink:href="#id15" x1="57.54" y1="38.95" x2="51.58" y2="38.36"> </linearGradient> <linearGradient id="id84" gradientUnits="userSpaceOnUse" xlink:href="#id14" x1="53.17" y1="42.6" x2="47.93" y2="44.68"> </linearGradient> <linearGradient id="id85" gradientUnits="userSpaceOnUse" xlink:href="#id15" x1="29.34" y1="57.13" x2="23.36" y2="56.74"> </linearGradient> <linearGradient id="id86" gradientUnits="userSpaceOnUse" xlink:href="#id15" x1="57.78" y1="63.73" x2="51.8" y2="63.34"> </linearGradient> <linearGradient id="id87" gradientUnits="userSpaceOnUse" xlink:href="#id15" x1="50.79" y1="64.33" x2="45.04" y2="66"> </linearGradient> <linearGradient id="id88" gradientUnits="userSpaceOnUse" xlink:href="#id14" x1="24.58" y1="41.54" x2="18.97" y2="40.98"> </linearGradient> <linearGradient id="id89" gradientUnits="userSpaceOnUse" xlink:href="#id15" x1="48.98" y1="46.6" x2="54.54" y2="48.81"> </linearGradient> <linearGradient id="id90" gradientUnits="userSpaceOnUse" xlink:href="#id15" x1="61.52" y1="45.99" x2="55.54" y2="45.6"> </linearGradient> <linearGradient id="id91" gradientUnits="userSpaceOnUse" xlink:href="#id14" x1="27.29" y1="57" x2="21.67" y2="56.63"> </linearGradient> <linearGradient id="id92" gradientUnits="userSpaceOnUse" xlink:href="#id14" x1="43.22" y1="40.57" x2="37.6" y2="40.01"> </linearGradient> <linearGradient id="id93" gradientUnits="userSpaceOnUse" xlink:href="#id14" x1="20.42" y1="42.97" x2="14.8" y2="42.41"> </linearGradient> <linearGradient id="id94" gradientUnits="userSpaceOnUse" xlink:href="#id14" x1="56.45" y1="54.51" x2="50.82" y2="54.15"> </linearGradient> <linearGradient id="id95" gradientUnits="userSpaceOnUse" xlink:href="#id15" x1="41.69" y1="44.35" x2="47.26" y2="46.56"> </linearGradient> <linearGradient id="id96" gradientUnits="userSpaceOnUse" xlink:href="#id15" x1="35.34" y1="52.45" x2="29.8" y2="54.72"> </linearGradient> <linearGradient id="id97" gradientUnits="userSpaceOnUse" xlink:href="#id15" x1="55.09" y1="50.72" x2="49.34" y2="52.39"> </linearGradient> <linearGradient id="id98" gradientUnits="userSpaceOnUse" xlink:href="#id14" x1="23.27" y1="62.86" x2="17.85" y2="64.43"> </linearGradient> <linearGradient id="id99" gradientUnits="userSpaceOnUse" xlink:href="#id14" x1="44.29" y1="55.71" x2="38.66" y2="55.34"> </linearGradient> <linearGradient id="id100" gradientUnits="userSpaceOnUse" xlink:href="#id14" x1="48.4" y1="38.79" x2="42.79" y2="38.23"> </linearGradient> <linearGradient id="id101" gradientUnits="userSpaceOnUse" xlink:href="#id15" x1="33.15" y1="39.44" x2="27.19" y2="38.84"> </linearGradient> <linearGradient id="id102" gradientUnits="userSpaceOnUse" xlink:href="#id15" x1="15.34" y1="46.07" x2="21.31" y2="45.68"> </linearGradient> <linearGradient id="id103" gradientUnits="userSpaceOnUse" xlink:href="#id15" x1="47.75" y1="39.88" x2="42.18" y2="42.09"> </linearGradient> </defs> <g id="Layer_x0020_1"> <metadata id="CorelCorpID_0Corel-Layer"></metadata> <path class="fil0" d="M25.37 9.77l39.78 0c2.39,0 4.35,1.96 4.35,4.35l0 52.78c0,2.39 -1.96,4.35 -4.35,4.35l-52.78 0c-2.39,0 -4.35,-1.96 -4.35,-4.35l0 -41.52 13 0c2.39,0 4.35,-1.96 4.35,-4.35l0 -11.26z"></path> <rect class="fil1" x="0" y="0" width="22.45" height="22.45" rx="4.35" ry="4.28"></rect> <path class="fil2" d="M11.24 16.45c-0.68,0 -1.27,-0.08 -1.79,-0.24 -0.52,-0.16 -0.95,-0.38 -1.3,-0.67 -0.35,-0.29 -0.61,-0.62 -0.78,-1 -0.17,-0.38 -0.26,-0.8 -0.26,-1.25 0,-0.55 0.13,-1.03 0.4,-1.44 0.27,-0.41 0.61,-0.72 1.04,-0.94 -0.34,-0.22 -0.6,-0.5 -0.79,-0.85 -0.19,-0.34 -0.28,-0.74 -0.28,-1.2 0,-0.54 0.14,-1.03 0.42,-1.46 0.28,-0.43 0.7,-0.77 1.25,-1.02 0.56,-0.25 1.25,-0.38 2.09,-0.38 0.83,0 1.52,0.12 2.08,0.37 0.56,0.25 0.97,0.58 1.25,1.01 0.28,0.43 0.41,0.91 0.41,1.46 0,0.45 -0.09,0.86 -0.27,1.2 -0.18,0.35 -0.44,0.63 -0.79,0.86 0.44,0.21 0.8,0.53 1.07,0.94 0.27,0.42 0.4,0.9 0.4,1.45 0,0.6 -0.16,1.14 -0.47,1.61 -0.31,0.47 -0.78,0.85 -1.4,1.12 -0.62,0.28 -1.38,0.41 -2.28,0.41zm0 -1.68c0.34,0 0.65,-0.06 0.92,-0.17 0.28,-0.12 0.5,-0.29 0.66,-0.51 0.16,-0.22 0.25,-0.48 0.25,-0.78 0,-0.31 -0.08,-0.57 -0.25,-0.79 -0.16,-0.22 -0.38,-0.38 -0.66,-0.5 -0.28,-0.12 -0.58,-0.17 -0.92,-0.17 -0.34,0 -0.65,0.06 -0.93,0.17 -0.28,0.12 -0.5,0.28 -0.66,0.5 -0.16,0.22 -0.24,0.48 -0.24,0.79 0,0.3 0.08,0.56 0.24,0.78 0.16,0.22 0.38,0.39 0.66,0.51 0.28,0.12 0.59,0.17 0.93,0.17zm0 -4.52c0.3,-0.01 0.57,-0.07 0.81,-0.17 0.24,-0.11 0.44,-0.25 0.58,-0.44 0.14,-0.19 0.22,-0.41 0.22,-0.66 0,-0.26 -0.07,-0.49 -0.21,-0.67 -0.14,-0.19 -0.33,-0.34 -0.57,-0.44 -0.24,-0.11 -0.52,-0.16 -0.83,-0.16 -0.31,0 -0.58,0.05 -0.83,0.16 -0.24,0.11 -0.43,0.25 -0.57,0.44 -0.14,0.19 -0.21,0.41 -0.21,0.67 0,0.26 0.07,0.49 0.21,0.67 0.14,0.19 0.33,0.34 0.57,0.44 0.24,0.11 0.52,0.16 0.83,0.16z"></path> <g id="_1634661135824"> <rect class="fil3" x="15.82" y="60.61" width="45.89" height="5.79"></rect> <rect class="fil4" x="15.82" y="64.21" width="45.89" height="2.19"></rect> <rect class="fil5" x="15.82" y="50.07" width="45.89" height="5.79"></rect> <polygon class="fil6" points="14.8,47.22 17.96,42.92 59.55,42.92 62.71,47.22 "></polygon> <polygon class="fil7" points="18.08,43.1 20.37,43.1 17.44,43.9 "></polygon> <polygon class="fil8" points="17.44,43.9 17.44,47.82 20.37,47.82 20.37,43.1 "></polygon> <polygon class="fil7" points="59.34,43.1 57.05,43.1 59.98,43.9 "></polygon> <polygon class="fil9" points="59.98,43.9 59.98,47.82 57.05,47.82 57.05,43.1 "></polygon> <polygon class="fil10" points="17.71,42.66 18.33,42.66 59.18,42.66 59.81,42.66 59.55,42.92 59.18,42.92 18.33,42.92 17.96,42.92 "></polygon> <polygon class="fil11" points="59.81,42.66 59.55,42.92 62.71,47.22 63.54,47.48 "></polygon> <polygon class="fil12" points="58.92,47.48 62.34,47.48 63.54,47.48 62.71,47.22 62.34,47.22 21.49,47.22 21.12,47.22 21.12,47.22 15.43,47.22 14.8,47.22 13.98,47.48 14.37,47.48 58.55,47.48 58.92,47.48 "></polygon> <polygon class="fil13" points="17.71,42.66 17.97,42.92 14.8,47.22 13.99,47.48 "></polygon> <polygon class="fil7" points="15.54,46.6 15.06,47.22 17.44,47.22 17.44,47.03 "></polygon> <polygon class="fil7" points="61.89,46.6 62.36,47.22 59.98,47.22 59.98,47.03 "></polygon> <g> <g> <path class="fil14" d="M42.99 49.77c-0.76,1.91 -0.12,3.95 1.41,4.56 1.54,0.61 3.4,-0.44 4.15,-2.35 0.76,-1.91 0.12,-3.95 -1.41,-4.56 -1.54,-0.61 -3.4,0.44 -4.16,2.35z"></path> <path class="fil15" d="M44.89 50.52c-0.76,1.91 -0.2,3.92 1.25,4.5 1.45,0.57 3.24,-0.51 3.99,-2.42 0.76,-1.91 0.2,-3.92 -1.25,-4.5 -1.45,-0.57 -3.24,0.51 -3.99,2.42z"></path> </g> <g> <g> <g> <g> <path class="fil16" d="M37.92 35.1c-0.02,-0.5 0.06,-0.66 -0.07,-1.31 0.43,0.09 0.71,0.06 0.71,0.06l-0.64 1.25z"></path> <g> <path class="fil17" d="M41.78 38.12c-0.2,2.04 -1.7,3.57 -3.35,3.4 -1.65,-0.16 -2.81,-1.95 -2.61,-4 0.2,-2.04 1.7,-3.57 3.35,-3.4 1.65,0.16 2.81,1.95 2.61,4z"></path> <path class="fil18" d="M39.75 37.92c-0.2,2.04 -1.63,3.57 -3.18,3.42 -1.55,-0.15 -2.64,-1.94 -2.44,-3.98 0.2,-2.04 1.63,-3.57 3.18,-3.42 1.55,0.16 2.64,1.94 2.44,3.98z"></path> </g> </g> <g> <path class="fil16" d="M46.57 35.97c-0.02,-0.5 0.06,-0.66 -0.07,-1.31 0.43,0.09 0.71,0.06 0.71,0.06l-0.64 1.25z"></path> <g> <path class="fil19" d="M50.44 39c-0.2,2.04 -1.7,3.57 -3.35,3.4 -1.65,-0.16 -2.81,-1.95 -2.61,-4 0.2,-2.04 1.7,-3.57 3.35,-3.4 1.65,0.16 2.81,1.95 2.61,4z"></path> <path class="fil20" d="M48.4 38.79c-0.2,2.04 -1.63,3.57 -3.18,3.42 -1.55,-0.15 -2.64,-1.94 -2.44,-3.98 0.2,-2.04 1.63,-3.57 3.18,-3.42 1.55,0.16 2.64,1.94 2.44,3.98z"></path> </g> </g> <g> <path class="fil16" d="M29.29 36.41c-0.02,-0.5 0.06,-0.66 -0.07,-1.31 0.43,0.09 0.71,0.06 0.71,0.06l-0.64 1.25z"></path> <g> <path class="fil21" d="M33.15 39.44c-0.2,2.04 -1.7,3.57 -3.35,3.4 -1.65,-0.16 -2.81,-1.95 -2.61,-4 0.2,-2.04 1.7,-3.57 3.35,-3.4 1.65,0.16 2.81,1.95 2.61,4z"></path> <path class="fil22" d="M31.11 39.23c-0.2,2.04 -1.63,3.57 -3.18,3.42 -1.55,-0.16 -2.64,-1.94 -2.44,-3.98 0.2,-2.04 1.63,-3.57 3.18,-3.42 1.55,0.15 2.64,1.94 2.44,3.98z"></path> </g> </g> <g> <path class="fil16" d="M22.75 38.72c-0.02,-0.5 0.06,-0.66 -0.07,-1.31 0.42,0.09 0.71,0.06 0.71,0.06l-0.64 1.25z"></path> <g> <path class="fil23" d="M26.61 41.74c-0.2,2.04 -1.7,3.57 -3.35,3.4 -1.65,-0.16 -2.81,-1.95 -2.61,-4 0.2,-2.04 1.7,-3.57 3.35,-3.4 1.65,0.16 2.81,1.95 2.61,4z"></path> <path class="fil24" d="M24.58 41.54c-0.2,2.04 -1.63,3.57 -3.18,3.42 -1.55,-0.16 -2.64,-1.94 -2.44,-3.98 0.2,-2.04 1.63,-3.57 3.18,-3.42 1.55,0.15 2.64,1.94 2.44,3.98z"></path> </g> </g> <g> <path class="fil16" d="M18.59 40.15c-0.02,-0.5 0.06,-0.66 -0.07,-1.31 0.43,0.09 0.71,0.06 0.71,0.06l-0.64 1.25z"></path> <g> <path class="fil25" d="M22.45 43.17c-0.2,2.04 -1.7,3.57 -3.35,3.4 -1.65,-0.16 -2.81,-1.95 -2.61,-4 0.2,-2.04 1.7,-3.57 3.35,-3.4 1.65,0.16 2.81,1.95 2.61,4z"></path> <path class="fil26" d="M20.42 42.97c-0.2,2.04 -1.63,3.57 -3.18,3.42 -1.55,-0.15 -2.64,-1.94 -2.44,-3.98 0.2,-2.04 1.63,-3.57 3.18,-3.42 1.55,0.15 2.64,1.94 2.44,3.98z"></path> </g> </g> <g> <path class="fil16" d="M53.68 35.93c-0.02,-0.5 0.06,-0.66 -0.07,-1.31 0.43,0.09 0.71,0.06 0.71,0.06l-0.64 1.25z"></path> <g> <path class="fil27" d="M57.54 38.95c-0.2,2.04 -1.7,3.57 -3.35,3.4 -1.65,-0.16 -2.81,-1.95 -2.61,-4 0.2,-2.04 1.7,-3.57 3.35,-3.4 1.65,0.16 2.81,1.95 2.61,4z"></path> <path class="fil28" d="M55.51 38.75c-0.2,2.04 -1.63,3.57 -3.18,3.42 -1.55,-0.16 -2.64,-1.94 -2.44,-3.98 0.2,-2.04 1.63,-3.57 3.18,-3.42 1.55,0.15 2.64,1.94 2.44,3.98z"></path> </g> </g> <g> <path class="fil16" d="M25.27 40.38c-0.22,-0.45 -0.21,-0.63 -0.6,-1.17 0.43,-0.09 0.67,-0.23 0.67,-0.23l-0.07 1.4z"></path> <g> <path class="fil29" d="M30.02 41.56c0.65,1.95 -0.1,3.95 -1.67,4.47 -1.57,0.52 -3.37,-0.64 -4.01,-2.59 -0.65,-1.95 0.1,-3.95 1.67,-4.47 1.57,-0.52 3.37,0.64 4.01,2.59z"></path> <path class="fil30" d="M28.08 42.21c0.65,1.95 -0.03,3.93 -1.51,4.42 -1.48,0.49 -3.2,-0.69 -3.85,-2.64 -0.65,-1.95 0.03,-3.93 1.51,-4.42 1.48,-0.49 3.2,0.69 3.85,2.64z"></path> </g> </g> <g> <path class="fil16" d="M33.14 38.17c-0.03,-0.5 0.04,-0.66 -0.12,-1.31 0.43,0.08 0.71,0.04 0.71,0.04l-0.6 1.27z"></path> <g> <path class="fil31" d="M37.1 41.06c-0.13,2.05 -1.58,3.62 -3.23,3.52 -1.65,-0.11 -2.88,-1.86 -2.75,-3.91 0.13,-2.05 1.58,-3.62 3.23,-3.52 1.65,0.11 2.88,1.86 2.75,3.91z"></path> <path class="fil32" d="M35.06 40.93c-0.13,2.05 -1.5,3.63 -3.06,3.53 -1.55,-0.1 -2.71,-1.84 -2.57,-3.89 0.13,-2.05 1.5,-3.63 3.06,-3.53 1.55,0.1 2.71,1.84 2.57,3.89z"></path> </g> </g> <g> <path class="fil33" d="M60.72 40.84c-0.13,2.05 -1.58,3.62 -3.23,3.52 -1.65,-0.11 -2.88,-1.86 -2.75,-3.91 0.13,-2.05 1.58,-3.62 3.23,-3.52 1.65,0.11 2.88,1.86 2.75,3.91z"></path> <path class="fil34" d="M58.68 40.7c-0.13,2.05 -1.5,3.63 -3.06,3.53 -1.55,-0.1 -2.71,-1.84 -2.57,-3.89 0.13,-2.05 1.5,-3.63 3.06,-3.53 1.55,0.1 2.71,1.84 2.57,3.89z"></path> </g> <g> <path class="fil35" d="M55.08 41.84c0.76,1.91 0.12,3.95 -1.41,4.56 -1.54,0.61 -3.4,-0.44 -4.15,-2.35 -0.76,-1.91 -0.12,-3.95 1.41,-4.56 1.54,-0.61 3.4,0.44 4.15,2.35z"></path> <path class="fil36" d="M53.17 42.6c0.76,1.91 0.2,3.92 -1.25,4.5 -1.45,0.57 -3.24,-0.51 -3.99,-2.42 -0.76,-1.91 -0.2,-3.92 1.25,-4.5 1.45,-0.57 3.24,0.51 3.99,2.42z"></path> </g> <g> <path class="fil37" d="M53.39 38.87c-0.13,2.05 -1.58,3.62 -3.23,3.52 -1.65,-0.11 -2.88,-1.86 -2.75,-3.91 0.13,-2.05 1.58,-3.62 3.23,-3.52 1.65,0.11 2.88,1.86 2.75,3.91z"></path> <path class="fil38" d="M51.35 38.74c-0.13,2.05 -1.5,3.63 -3.06,3.53 -1.55,-0.1 -2.71,-1.84 -2.57,-3.89 0.13,-2.05 1.5,-3.63 3.06,-3.53 1.55,0.1 2.71,1.84 2.57,3.89z"></path> </g> <g> <path class="fil39" d="M47.75 39.88c0.76,1.91 0.12,3.95 -1.41,4.56 -1.54,0.61 -3.4,-0.44 -4.15,-2.35 -0.76,-1.91 -0.12,-3.95 1.41,-4.56 1.54,-0.61 3.4,0.44 4.15,2.35z"></path> <path class="fil40" d="M45.84 40.63c0.76,1.91 0.2,3.92 -1.25,4.5 -1.45,0.57 -3.24,-0.51 -3.99,-2.42 -0.76,-1.91 -0.2,-3.92 1.25,-4.5 1.45,-0.57 3.24,0.51 3.99,2.42z"></path> </g> <g> <path class="fil41" d="M34.11 40.87c0.13,2.05 1.58,3.62 3.23,3.52 1.65,-0.11 2.88,-1.86 2.75,-3.91 -0.13,-2.05 -1.58,-3.62 -3.23,-3.52 -1.65,0.11 -2.88,1.86 -2.75,3.91z"></path> <path class="fil42" d="M36.16 40.73c0.13,2.05 1.5,3.63 3.06,3.53 1.55,-0.1 2.71,-1.84 2.57,-3.89 -0.13,-2.05 -1.5,-3.63 -3.06,-3.53 -1.55,0.1 -2.71,1.84 -2.57,3.89z"></path> </g> <g> <path class="fil43" d="M41.69 44.35c-0.76,1.91 -0.12,3.95 1.41,4.56 1.54,0.61 3.4,-0.44 4.15,-2.35 0.76,-1.91 0.12,-3.95 -1.41,-4.56 -1.54,-0.61 -3.4,0.44 -4.15,2.35z"></path> <path class="fil44" d="M43.59 45.11c-0.76,1.91 -0.2,3.92 1.25,4.5 1.45,0.57 3.24,-0.51 3.99,-2.42 0.76,-1.91 0.2,-3.92 -1.25,-4.5 -1.45,-0.57 -3.24,0.51 -3.99,2.42z"></path> </g> <g> <path class="fil45" d="M41.94 46.04c-0.13,2.05 -1.58,3.62 -3.23,3.52 -1.65,-0.11 -2.88,-1.86 -2.75,-3.91 0.13,-2.05 1.58,-3.62 3.23,-3.52 1.65,0.11 2.88,1.86 2.75,3.91z"></path> <path class="fil46" d="M39.9 45.9c-0.13,2.05 -1.5,3.63 -3.06,3.53 -1.55,-0.1 -2.71,-1.84 -2.57,-3.89 0.13,-2.05 1.5,-3.63 3.06,-3.53 1.55,0.1 2.71,1.84 2.57,3.89z"></path> </g> <g> <path class="fil47" d="M36.3 47.05c0.76,1.91 0.12,3.95 -1.41,4.56 -1.54,0.61 -3.4,-0.44 -4.15,-2.35 -0.76,-1.91 -0.12,-3.95 1.41,-4.56 1.54,-0.61 3.4,0.44 4.16,2.35z"></path> <path class="fil48" d="M34.4 47.8c0.76,1.91 0.2,3.92 -1.25,4.5 -1.45,0.57 -3.24,-0.51 -3.99,-2.42 -0.76,-1.91 -0.2,-3.92 1.25,-4.5 1.45,-0.57 3.24,0.51 3.99,2.42z"></path> </g> <g> <path class="fil49" d="M34.61 44.07c-0.13,2.05 -1.58,3.62 -3.23,3.52 -1.65,-0.11 -2.88,-1.86 -2.75,-3.91 0.13,-2.05 1.58,-3.62 3.23,-3.52 1.65,0.11 2.88,1.86 2.75,3.91z"></path> <path class="fil50" d="M32.57 43.94c-0.13,2.05 -1.5,3.63 -3.06,3.53 -1.55,-0.1 -2.71,-1.84 -2.57,-3.89 0.13,-2.05 1.5,-3.63 3.06,-3.53 1.55,0.1 2.71,1.84 2.57,3.89z"></path> </g> <g> <path class="fil51" d="M28.97 45.08c0.76,1.91 0.12,3.95 -1.41,4.56 -1.54,0.61 -3.4,-0.44 -4.15,-2.35 -0.76,-1.91 -0.12,-3.95 1.41,-4.56 1.54,-0.61 3.4,0.44 4.15,2.35z"></path> <path class="fil52" d="M27.07 45.83c0.76,1.91 0.2,3.92 -1.25,4.5 -1.45,0.57 -3.24,-0.51 -3.99,-2.42 -0.76,-1.91 -0.2,-3.92 1.25,-4.5 1.45,-0.57 3.24,0.51 3.99,2.42z"></path> </g> <g> <path class="fil53" d="M15.34 46.07c0.13,2.05 1.58,3.62 3.23,3.52 1.65,-0.11 2.88,-1.86 2.75,-3.91 -0.13,-2.05 -1.58,-3.62 -3.23,-3.52 -1.65,0.11 -2.88,1.86 -2.75,3.91z"></path> <path class="fil54" d="M17.38 45.94c0.13,2.05 1.5,3.63 3.06,3.53 1.55,-0.1 2.71,-1.84 2.57,-3.89 -0.13,-2.05 -1.5,-3.63 -3.06,-3.53 -1.55,0.1 -2.71,1.84 -2.57,3.89z"></path> </g> <g> <path class="fil55" d="M22.91 49.56c-0.76,1.91 -0.12,3.95 1.41,4.56 1.54,0.61 3.4,-0.44 4.15,-2.35 0.76,-1.91 0.12,-3.95 -1.41,-4.56 -1.54,-0.61 -3.4,0.44 -4.15,2.35z"></path> <path class="fil56" d="M24.81 50.31c-0.76,1.91 -0.2,3.92 1.25,4.5 1.45,0.57 3.24,-0.51 3.99,-2.42 0.76,-1.91 0.2,-3.92 -1.25,-4.5 -1.45,-0.57 -3.24,0.51 -3.99,2.42z"></path> </g> <g> <path class="fil16" d="M41.39 37.75c-0.02,-0.5 0.06,-0.66 -0.07,-1.31 0.43,0.09 0.71,0.06 0.71,0.06l-0.64 1.25z"></path> <g> <path class="fil57" d="M45.25 40.77c-0.2,2.04 -1.7,3.57 -3.35,3.4 -1.65,-0.16 -2.81,-1.95 -2.61,-4 0.2,-2.04 1.7,-3.57 3.35,-3.4 1.65,0.16 2.81,1.95 2.61,4z"></path> <path class="fil58" d="M43.22 40.57c-0.2,2.04 -1.63,3.57 -3.18,3.42 -1.55,-0.15 -2.64,-1.94 -2.44,-3.98 0.2,-2.04 1.63,-3.57 3.18,-3.42 1.55,0.16 2.64,1.94 2.44,3.98z"></path> </g> </g> </g> <g> <path class="fil59" d="M61.52 45.99c-0.13,2.05 -1.58,3.62 -3.23,3.52 -1.65,-0.11 -2.88,-1.86 -2.75,-3.91 0.13,-2.05 1.58,-3.62 3.23,-3.52 1.65,0.11 2.88,1.86 2.75,3.91z"></path> <path class="fil60" d="M59.48 45.86c-0.13,2.05 -1.5,3.63 -3.06,3.53 -1.55,-0.1 -2.71,-1.84 -2.57,-3.89 0.13,-2.05 1.5,-3.63 3.06,-3.53 1.55,0.1 2.71,1.84 2.57,3.89z"></path> </g> <g> <path class="fil61" d="M58.49 54.65c-0.13,2.05 -1.58,3.62 -3.23,3.52 -1.65,-0.11 -2.88,-1.86 -2.75,-3.91 0.13,-2.05 1.58,-3.62 3.23,-3.52 1.65,0.11 2.88,1.86 2.75,3.91z"></path> <path class="fil62" d="M56.45 54.51c-0.13,2.05 -1.5,3.63 -3.06,3.53 -1.55,-0.1 -2.71,-1.84 -2.57,-3.89 0.13,-2.05 1.5,-3.63 3.06,-3.53 1.55,0.1 2.71,1.84 2.57,3.89z"></path> </g> <g> <path class="fil63" d="M55.09 50.72c0.57,1.97 -0.25,3.95 -1.84,4.41 -1.59,0.46 -3.34,-0.76 -3.91,-2.74 -0.57,-1.97 0.25,-3.94 1.84,-4.41 1.59,-0.46 3.34,0.76 3.91,2.73z"></path> <path class="fil64" d="M53.12 51.29c0.57,1.97 -0.18,3.92 -1.67,4.36 -1.5,0.43 -3.17,-0.81 -3.75,-2.78 -0.57,-1.97 0.18,-3.92 1.67,-4.36 1.5,-0.43 3.17,0.81 3.75,2.78z"></path> </g> <g> <path class="fil65" d="M51.5 55.25c0.57,1.97 -0.25,3.94 -1.84,4.41 -1.59,0.46 -3.34,-0.76 -3.91,-2.74 -0.57,-1.97 0.25,-3.94 1.84,-4.41 1.59,-0.46 3.34,0.76 3.91,2.73z"></path> <path class="fil66" d="M49.53 55.82c0.57,1.97 -0.18,3.92 -1.67,4.36 -1.5,0.43 -3.17,-0.81 -3.75,-2.78 -0.57,-1.97 0.18,-3.92 1.67,-4.36 1.5,-0.43 3.17,0.81 3.75,2.78z"></path> </g> <g> <path class="fil67" d="M46.33 55.84c-0.13,2.05 -1.58,3.62 -3.23,3.52 -1.65,-0.11 -2.88,-1.86 -2.75,-3.91 0.13,-2.05 1.58,-3.62 3.23,-3.52 1.65,0.11 2.88,1.86 2.75,3.91z"></path> <path class="fil68" d="M44.29 55.71c-0.13,2.05 -1.5,3.63 -3.06,3.53 -1.55,-0.1 -2.71,-1.84 -2.57,-3.89 0.13,-2.05 1.5,-3.63 3.06,-3.53 1.55,0.1 2.71,1.84 2.57,3.89z"></path> </g> <g> <path class="fil69" d="M42.93 51.91c0.57,1.97 -0.25,3.94 -1.84,4.41 -1.59,0.46 -3.34,-0.76 -3.91,-2.74 -0.57,-1.97 0.25,-3.94 1.84,-4.41 1.59,-0.46 3.34,0.76 3.91,2.73z"></path> <path class="fil70" d="M40.97 52.48c0.57,1.97 -0.18,3.92 -1.67,4.36 -1.5,0.43 -3.17,-0.81 -3.75,-2.78 -0.57,-1.97 0.18,-3.92 1.67,-4.36 1.5,-0.43 3.17,0.81 3.75,2.78z"></path> </g> <g> <path class="fil71" d="M29.34 57.13c-0.13,2.05 -1.58,3.62 -3.23,3.52 -1.65,-0.11 -2.88,-1.86 -2.75,-3.91 0.13,-2.05 1.58,-3.62 3.23,-3.52 1.65,0.11 2.88,1.86 2.75,3.91z"></path> <path class="fil72" d="M27.29 57c-0.13,2.05 -1.5,3.63 -3.06,3.53 -1.55,-0.1 -2.71,-1.84 -2.57,-3.89 0.13,-2.05 1.5,-3.63 3.06,-3.53 1.55,0.1 2.71,1.84 2.57,3.89z"></path> </g> <g> <path class="fil73" d="M25.94 53.2c0.57,1.97 -0.25,3.95 -1.84,4.41 -1.59,0.46 -3.34,-0.76 -3.91,-2.74 -0.57,-1.97 0.25,-3.94 1.84,-4.41 1.59,-0.46 3.34,0.76 3.91,2.73z"></path> <path class="fil74" d="M23.97 53.77c0.57,1.97 -0.18,3.92 -1.67,4.36 -1.5,0.43 -3.17,-0.81 -3.75,-2.78 -0.57,-1.97 0.18,-3.92 1.67,-4.36 1.5,-0.43 3.17,0.81 3.75,2.78z"></path> </g> <g> <path class="fil75" d="M39.14 55.99c0.09,2.05 -1.19,3.77 -2.84,3.84 -1.65,0.07 -3.06,-1.54 -3.15,-3.59 -0.09,-2.05 1.19,-3.77 2.84,-3.84 1.65,-0.07 3.06,1.54 3.15,3.59z"></path> <path class="fil76" d="M37.1 56.08c0.09,2.05 -1.11,3.77 -2.66,3.83 -1.56,0.06 -2.89,-1.55 -2.97,-3.6 -0.09,-2.05 1.11,-3.77 2.66,-3.83 1.56,-0.06 2.89,1.55 2.97,3.6z"></path> </g> <g> <path class="fil77" d="M35.34 52.45c0.78,1.9 0.17,3.95 -1.36,4.58 -1.53,0.63 -3.4,-0.4 -4.18,-2.3 -0.78,-1.9 -0.17,-3.95 1.36,-4.58 1.53,-0.63 3.4,0.4 4.18,2.3z"></path> <path class="fil78" d="M33.45 53.23c0.78,1.9 0.24,3.92 -1.2,4.51 -1.44,0.59 -3.24,-0.47 -4.02,-2.37 -0.78,-1.9 -0.24,-3.92 1.2,-4.51 1.44,-0.59 3.24,0.47 4.02,2.37z"></path> </g> </g> <g> <g> <path class="fil79" d="M57.78 63.73c-0.13,2.05 -1.58,3.62 -3.23,3.52 -1.65,-0.11 -2.88,-1.86 -2.75,-3.91 0.13,-2.05 1.58,-3.62 3.23,-3.52 1.65,0.11 2.88,1.86 2.75,3.91z"></path> <path class="fil80" d="M55.74 63.6c-0.13,2.05 -1.5,3.63 -3.06,3.53 -1.55,-0.1 -2.71,-1.84 -2.57,-3.89 0.13,-2.05 1.5,-3.63 3.06,-3.53 1.55,0.1 2.71,1.84 2.57,3.89z"></path> </g> <g> <path class="fil81" d="M54.38 59.8c0.57,1.97 -0.25,3.95 -1.84,4.41 -1.59,0.46 -3.34,-0.76 -3.91,-2.74 -0.57,-1.97 0.25,-3.94 1.84,-4.41 1.59,-0.46 3.34,0.76 3.91,2.73z"></path> <path class="fil82" d="M52.42 60.37c0.57,1.97 -0.18,3.92 -1.67,4.36 -1.5,0.43 -3.17,-0.81 -3.75,-2.78 -0.57,-1.97 0.18,-3.92 1.67,-4.36 1.5,-0.43 3.17,0.81 3.75,2.78z"></path> </g> <g> <path class="fil83" d="M50.79 64.33c0.57,1.97 -0.25,3.95 -1.84,4.41 -1.59,0.46 -3.34,-0.76 -3.91,-2.74 -0.57,-1.97 0.25,-3.94 1.84,-4.41 1.59,-0.46 3.34,0.76 3.91,2.73z"></path> <path class="fil84" d="M48.83 64.9c0.57,1.97 -0.18,3.92 -1.67,4.36 -1.5,0.43 -3.17,-0.81 -3.75,-2.78 -0.57,-1.97 0.18,-3.92 1.67,-4.36 1.5,-0.43 3.17,0.81 3.75,2.78z"></path> </g> <g> <path class="fil85" d="M45.62 64.92c-0.13,2.05 -1.58,3.62 -3.23,3.52 -1.65,-0.11 -2.88,-1.86 -2.75,-3.91 0.13,-2.05 1.58,-3.62 3.23,-3.52 1.65,0.11 2.88,1.86 2.75,3.91z"></path> <path class="fil86" d="M43.58 64.79c-0.13,2.05 -1.5,3.63 -3.06,3.53 -1.55,-0.1 -2.71,-1.84 -2.57,-3.89 0.13,-2.05 1.5,-3.63 3.06,-3.53 1.55,0.1 2.71,1.84 2.57,3.89z"></path> </g> <g> <path class="fil87" d="M42.22 60.99c0.57,1.97 -0.25,3.95 -1.84,4.41 -1.59,0.46 -3.34,-0.76 -3.91,-2.74 -0.57,-1.97 0.25,-3.94 1.84,-4.41 1.59,-0.46 3.34,0.76 3.91,2.73z"></path> <path class="fil88" d="M40.26 61.57c0.57,1.97 -0.18,3.92 -1.67,4.36 -1.5,0.43 -3.17,-0.81 -3.75,-2.78 -0.57,-1.97 0.18,-3.92 1.67,-4.36 1.5,-0.43 3.17,0.81 3.75,2.78z"></path> </g> <g> <path class="fil89" d="M28.63 66.21c-0.13,2.05 -1.58,3.62 -3.23,3.52 -1.65,-0.11 -2.88,-1.86 -2.75,-3.91 0.13,-2.05 1.58,-3.62 3.23,-3.52 1.65,0.11 2.88,1.86 2.75,3.91z"></path> <path class="fil90" d="M26.59 66.08c-0.13,2.05 -1.5,3.63 -3.06,3.53 -1.55,-0.1 -2.71,-1.84 -2.57,-3.89 0.13,-2.05 1.5,-3.63 3.06,-3.53 1.55,0.1 2.71,1.84 2.57,3.89z"></path> </g> <g> <path class="fil91" d="M25.23 62.29c0.57,1.97 -0.25,3.94 -1.84,4.41 -1.59,0.46 -3.34,-0.76 -3.91,-2.74 -0.57,-1.97 0.25,-3.94 1.84,-4.41 1.59,-0.46 3.34,0.76 3.91,2.74z"></path> <path class="fil92" d="M23.26 62.86c0.57,1.97 -0.18,3.92 -1.67,4.36 -1.5,0.43 -3.17,-0.81 -3.75,-2.78 -0.57,-1.97 0.18,-3.92 1.67,-4.36 1.5,-0.43 3.17,0.81 3.75,2.78z"></path> </g> <g> <path class="fil93" d="M38.43 65.08c0.09,2.05 -1.19,3.77 -2.84,3.84 -1.65,0.07 -3.06,-1.54 -3.15,-3.59 -0.09,-2.05 1.19,-3.77 2.84,-3.84 1.65,-0.07 3.06,1.54 3.15,3.59z"></path> <path class="fil94" d="M36.39 65.16c0.09,2.05 -1.11,3.77 -2.66,3.83 -1.56,0.06 -2.89,-1.55 -2.97,-3.6 -0.09,-2.05 1.11,-3.77 2.66,-3.83 1.56,-0.06 2.89,1.55 2.97,3.6z"></path> </g> <g> <path class="fil95" d="M34.63 61.53c0.78,1.9 0.17,3.95 -1.36,4.58 -1.53,0.63 -3.4,-0.4 -4.18,-2.3 -0.78,-1.9 -0.17,-3.95 1.36,-4.58 1.53,-0.63 3.4,0.4 4.18,2.3z"></path> <path class="fil96" d="M32.74 62.31c0.78,1.9 0.24,3.92 -1.2,4.51 -1.44,0.59 -3.24,-0.47 -4.02,-2.37 -0.78,-1.9 -0.24,-3.92 1.2,-4.51 1.44,-0.59 3.24,0.47 4.02,2.37z"></path> </g> </g> </g> <g> <path class="fil97" d="M37.78 47.63c-0.76,1.91 -0.12,3.95 1.41,4.56 1.54,0.61 3.4,-0.44 4.15,-2.35 0.76,-1.91 0.12,-3.95 -1.41,-4.56 -1.54,-0.61 -3.4,0.44 -4.15,2.35z"></path> <path class="fil98" d="M39.68 48.38c-0.76,1.91 -0.2,3.92 1.25,4.5 1.45,0.57 3.24,-0.51 3.99,-2.42 0.76,-1.91 0.2,-3.92 -1.25,-4.5 -1.45,-0.57 -3.24,0.51 -3.99,2.42z"></path> </g> <g> <path class="fil99" d="M48.98 46.6c-0.76,1.91 -0.12,3.95 1.41,4.56 1.54,0.61 3.4,-0.44 4.15,-2.35 0.76,-1.91 0.12,-3.95 -1.41,-4.56 -1.54,-0.61 -3.4,0.44 -4.15,2.35z"></path> <path class="fil100" d="M50.88 47.36c-0.76,1.91 -0.2,3.92 1.25,4.5 1.45,0.57 3.24,-0.51 3.99,-2.42 0.76,-1.91 0.2,-3.92 -1.25,-4.5 -1.45,-0.57 -3.24,0.51 -3.99,2.42z"></path> </g> <g> <path class="fil101" d="M39.59 59.65c-0.76,1.91 -0.12,3.95 1.41,4.56 1.54,0.61 3.4,-0.44 4.15,-2.35 0.76,-1.91 0.12,-3.95 -1.41,-4.56 -1.54,-0.61 -3.4,0.44 -4.15,2.35z"></path> <path class="fil102" d="M41.49 60.4c-0.76,1.91 -0.2,3.92 1.25,4.5 1.45,0.57 3.24,-0.51 3.99,-2.42 0.76,-1.91 0.2,-3.92 -1.25,-4.5 -1.45,-0.57 -3.24,0.51 -3.99,2.42z"></path> </g> <g> <path class="fil103" d="M23 58.51c-0.76,1.91 -0.12,3.95 1.41,4.56 1.54,0.61 3.4,-0.44 4.15,-2.35 0.76,-1.91 0.12,-3.95 -1.41,-4.56 -1.54,-0.61 -3.4,0.44 -4.15,2.35z"></path> <path class="fil104" d="M24.9 59.27c-0.76,1.91 -0.2,3.92 1.25,4.5 1.45,0.57 3.24,-0.51 3.99,-2.42 0.76,-1.91 0.2,-3.92 -1.25,-4.5 -1.45,-0.57 -3.24,0.51 -3.99,2.42z"></path> </g> </g> <rect class="fil105" x="56.87" y="47.48" width="5.79" height="23.77"></rect> <rect class="fil106" x="14.58" y="47.48" width="5.79" height="23.77"></rect> <rect class="fil107" x="13.98" y="47.48" width="49.56" height="5.79"></rect> <rect class="fil108" x="13.98" y="65.45" width="49.56" height="5.79"></rect> <g> <circle class="fil109" cx="62.53" cy="66.63" r="0.23"></circle> <circle class="fil109" cx="62.53" cy="68.35" r="0.23"></circle> <circle class="fil109" cx="62.53" cy="70.07" r="0.23"></circle> </g> <g> <circle class="fil109" cx="14.87" cy="66.63" r="0.23"></circle> <circle class="fil109" cx="14.87" cy="68.35" r="0.23"></circle> <circle class="fil109" cx="14.87" cy="70.07" r="0.23"></circle> </g> <g> <circle class="fil109" cx="14.87" cy="48.6" r="0.23"></circle> <circle class="fil109" cx="14.87" cy="50.32" r="0.23"></circle> <circle class="fil109" cx="14.87" cy="52.04" r="0.23"></circle> </g> <g> <circle class="fil109" cx="62.53" cy="48.6" r="0.23"></circle> <circle class="fil109" cx="62.53" cy="50.32" r="0.23"></circle> <circle class="fil109" cx="62.53" cy="52.04" r="0.23"></circle> </g> <rect class="fil110" x="13.98" y="56.46" width="49.56" height="5.79"></rect> <g> <circle class="fil109" cx="62.53" cy="57.64" r="0.23"></circle> <circle class="fil109" cx="62.53" cy="59.36" r="0.23"></circle> <circle class="fil109" cx="62.53" cy="61.08" r="0.23"></circle> </g> <g> <circle class="fil109" cx="14.87" cy="57.64" r="0.23"></circle> <circle class="fil109" cx="14.87" cy="59.36" r="0.23"></circle> <circle class="fil109" cx="14.87" cy="61.08" r="0.23"></circle> </g> </g> </g> </svg> 